<svg xmlns="http://www.w3.org/2000/svg" viewBox="0 0 371.9 792.88">
  <title>about-bg-left</title>
  <g id="Layer_2" data-name="Layer 2">
    <g id="Layer_1-2" data-name="Layer 1">
      <g>
        <path d="M100.22,788.31l218.2-109.1a8.18,8.18,0,0,0,0-14.63L100.21,555.47a43.28,43.28,0,0,0-38.69,0L0,586.19V757.57l61.52,30.75A43.27,43.27,0,0,0,100.22,788.31Z" style="fill: #95c93d"/>
        <path d="M0,188.51l97.3,48.64a51.81,51.81,0,0,0,46.09,0l160.85-81.32a7.45,7.45,0,0,0,0-13.33L30.07,5.41A51.57,51.57,0,0,0,7,0,51.56,51.56,0,0,0,0,.5Z" style="fill: #95c93d"/>
        <path d="M292.83,481.88a11.79,11.79,0,0,0-10.5,0L209,518.52l73.38,36.68a11.79,11.79,0,0,0,10.5,0l73.32-36.66Z" style="fill: #fff"/>
        <path d="M295.36,476.82a17.48,17.48,0,0,0-15.56,0l-73.51,36.72a5.58,5.58,0,0,0,0,10l73.51,36.74a17.45,17.45,0,0,0,15.56,0l73.46-36.73a5.58,5.58,0,0,0,0-10Zm-13,78.38L209,518.52l73.38-36.65a11.79,11.79,0,0,1,10.5,0l73.32,36.66L292.83,555.2A11.79,11.79,0,0,1,282.33,555.2Z" style="fill: #95c93d"/>
        <path d="M180.05,364.92a8.41,8.41,0,0,0-4.74-7.67L0,269.48V460.25l175.31-87.66A8.41,8.41,0,0,0,180.05,364.92Z" style="fill: #fff"/>
        <path d="M185.71,364.92a14.17,14.17,0,0,0-7.87-12.73L0,263.15v6.33l175.31,87.77a8.58,8.58,0,0,1,0,15.34L0,460.25v6.32l177.84-88.92A14.15,14.15,0,0,0,185.71,364.92Z" style="fill: #95c93d"/>
      </g>
    </g>
  </g>
</svg>
