<svg xmlns="http://www.w3.org/2000/svg" viewBox="0 0 413.29 846.9">
  <title>about-bg-right</title>
  <g id="Layer_2" data-name="Layer 2">
    <g id="Layer_1-2" data-name="Layer 1">
      <g>
        <path d="M323.31,52.86,221.72,2.12a20.09,20.09,0,0,0-18,0L102.22,52.88a3.8,3.8,0,0,0,0,6.81l101.5,50.75a20.1,20.1,0,0,0,18,0L323.31,59.67A3.81,3.81,0,0,0,323.31,52.86Z" style="fill: #95c93d"/>
        <path d="M301.86,601.49a74.22,74.22,0,0,1-66,0L12.33,490.85a11.56,11.56,0,0,1,0-20.67l273.51-138.7a74.24,74.24,0,0,1,66,0l61.43,30.36v-6.63l-58.77-29a80.16,80.16,0,0,0-71.34,0L9.67,464.87a17.5,17.5,0,0,0,0,31.3L233.17,606.8a80.15,80.15,0,0,0,71.36,0l108.76-55.13V545Z" style="fill: #95c93d"/>
        <path d="M413.29,695.54l-60.17-29.67a66.1,66.1,0,0,0-59.11,0L193.87,716.23a12.5,12.5,0,0,0,0,22.36l217,107.18c.8.4,1.62.76,2.44,1.13Z" style="fill: #95c93d"/>
        <path d="M193.07,171.75a7.78,7.78,0,0,0,4.37,7.09L413.29,287.29V56.75L197.44,164.67A7.77,7.77,0,0,0,193.07,171.75Z" style="fill: #fff"/>
        <path d="M194.89,159.56a13.62,13.62,0,0,0,0,24.38l218.4,109.74v-6.39L197.44,178.84a7.93,7.93,0,0,1,0-14.17L413.29,56.75V50.36Z" style="fill: #95c93d"/>
      </g>
    </g>
  </g>
</svg>
