<svg xmlns="http://www.w3.org/2000/svg" viewBox="0 0 133.99 134.45"><title>automated-reports</title><g id="Layer_2" data-name="Layer 2"><g id="Layer_1-2" data-name="Layer 1"><path d="M30.36,18.67H42.28A21.28,21.28,0,0,1,63.57,39.95V79.5a9.82,9.82,0,0,1-9.82,9.82H18.91A9.82,9.82,0,0,1,9.08,79.5V39.95A21.28,21.28,0,0,1,30.36,18.67Z" style="fill:#fff;stroke:#767776;stroke-linecap:round;stroke-miterlimit:10;stroke-width:2px"/><path d="M65.35,71.17,63.24,82.41c-1.35,7.2-7.43,12.52-13.69,12.52H23.09c-6.27,0-12.34-5.33-13.68-12.53L7.31,71.15" style="fill:#fff;stroke:#767776;stroke-linecap:round;stroke-miterlimit:10;stroke-width:2px"/><line x1="50.37" y1="22.56" x2="59.95" y2="10.86" style="fill:#fff;stroke:#767776;stroke-linecap:round;stroke-miterlimit:10;stroke-width:2px"/><line x1="50.37" y1="22.56" x2="62.54" y2="7.69" style="fill:#fff;stroke:#767776;stroke-linecap:round;stroke-miterlimit:10;stroke-width:2px"/><line x1="56.83" y1="8.49" x2="62.95" y2="13.49" style="fill:#fff;stroke:#767776;stroke-linecap:round;stroke-miterlimit:10;stroke-width:2px"/><line x1="54.13" y1="11.75" x2="60.25" y2="16.76" style="fill:#fff;stroke:#767776;stroke-linecap:round;stroke-miterlimit:10;stroke-width:2px"/><line x1="22.41" y1="22.56" x2="12.83" y2="10.86" style="fill:#fff;stroke:#767776;stroke-linecap:round;stroke-miterlimit:10;stroke-width:2px"/><line x1="22.41" y1="22.56" x2="10.24" y2="7.69" style="fill:#fff;stroke:#767776;stroke-linecap:round;stroke-miterlimit:10;stroke-width:2px"/><line x1="15.95" y1="8.49" x2="9.83" y2="13.49" style="fill:#fff;stroke:#767776;stroke-linecap:round;stroke-miterlimit:10;stroke-width:2px"/><line x1="18.65" y1="11.75" x2="12.53" y2="16.76" style="fill:#fff;stroke:#767776;stroke-linecap:round;stroke-miterlimit:10;stroke-width:2px"/><path d="M50.26,8.41,48.55,3.36a.63.63,0,0,0-.41-.4.64.64,0,0,0-.81.42L45.64,8.81,44,4.16a.67.67,0,0,0-.42-.4.64.64,0,0,0-.8.43L42,6.89,40.26.47A.64.64,0,0,0,39,.48L36.51,9.94,35.25,3.37a.62.62,0,0,0-.43-.48A.64.64,0,0,0,34,3.3L32.84,7,30.64,1.5a.66.66,0,0,0-.42-.38.65.65,0,0,0-.79.45L27.28,9.28l-.23-.66-1.35-4,0-.06a.56.56,0,0,0-.2-.28.6.6,0,0,0-.85.1l-3.88,5,4-3.45L25.84,9l.69,2,.2.53,0,.07,0,.07a.57.57,0,0,0,.24.23.66.66,0,0,0,.65,0c.28-.22.24-.32.25-.29l0-.06,0-.13.08-.26.28-1,1.8-6.43,2.16,5.35a.65.65,0,0,0,1.21,0l.95-3,1.32,6.86a.65.65,0,0,0,.46.5A.64.64,0,0,0,37,13l2.62-9.86,1.7,6.27a.67.67,0,0,0,.44.44.63.63,0,0,0,.79-.43l.89-2.94,1.59,4.61a.64.64,0,0,0,1.22,0L48,5.63l1.31,3.86,0,.08a.67.67,0,0,0,.11.18.58.58,0,0,0,.82.07l3.65-3.1Z" style="fill:#f5771f"/><rect x="25.64" y="94.92" width="21.09" height="14.83" style="fill:none;stroke:#767776;stroke-miterlimit:10;stroke-width:2px"/><line x1="25.64" y1="99.93" x2="46.74" y2="99.93" style="fill:none;stroke:#767776;stroke-miterlimit:10;stroke-width:2px"/><line x1="25.64" y1="104.93" x2="46.74" y2="104.93" style="fill:none;stroke:#767776;stroke-miterlimit:10;stroke-width:2px"/><path d="M59.88,65.73l-2.1,7.52c-.9,3.25-3.38,5.43-6.16,5.43H20.39c-2.78,0-5.26-2.18-6.16-5.43l-2.1-7.52" style="fill:#fff;stroke:#767776;stroke-linecap:round;stroke-miterlimit:10;stroke-width:2px"/><circle cx="9.36" cy="66.12" r="4.65" style="fill:#fff;stroke:#767776;stroke-linecap:round;stroke-miterlimit:10;stroke-width:2px"/><circle cx="63.23" cy="66.12" r="4.65" style="fill:#fff;stroke:#767776;stroke-linecap:round;stroke-miterlimit:10;stroke-width:2px"/><circle cx="25.64" cy="43.49" r="5.25" style="fill:none;stroke:#f5771f;stroke-linecap:round;stroke-miterlimit:10;stroke-width:2px"/><circle cx="46.74" cy="43.49" r="5.25" style="fill:none;stroke:#f5771f;stroke-linecap:round;stroke-miterlimit:10;stroke-width:2px"/><path d="M71.38,124.76l-3.91-9.62a9.09,9.09,0,0,0-8-5.21H12.89a9.09,9.09,0,0,0-8,5.21L1,124.76" style="fill:#fff;stroke:#767776;stroke-linecap:round;stroke-miterlimit:10;stroke-width:2px"/><path d="M90.4,124.69a83.52,83.52,0,0,0,4.84-33.16" style="fill:#fff;stroke:#767776;stroke-linecap:round;stroke-miterlimit:10;stroke-width:2px"/><path d="M104.65,133.45c3.54-8.6,7.31-22.33,7.35-41.89" style="fill:#fff;stroke:#767776;stroke-linecap:round;stroke-miterlimit:10;stroke-width:2px"/><ellipse cx="103.62" cy="91.45" rx="2.98" ry="8.38" transform="translate(10.83 193.87) rotate(-89.26)" style="fill:#fff;stroke:#767776;stroke-linecap:round;stroke-miterlimit:10;stroke-width:2px"/><path d="M109.14,88.81c0,1.08-2.5,1.92-5.55,1.89s-5.5-1-5.49-2V82a.24.24,0,0,1,.38-.2c1,.64,3.67.84,5.35.83,3,0,5.29-2,5.31-3.12Z" style="fill:#fff;stroke:#767776;stroke-linecap:round;stroke-linejoin:round;stroke-width:2px"/><path d="M98.1,84.61c0,1.09,2.44,2,5.49,2s5.53-.81,5.55-1.89" style="fill:#fff;stroke:#767776;stroke-linecap:round;stroke-miterlimit:10;stroke-width:2px"/><path d="M96.4,80.49A8.64,8.64,0,0,1,93,73.75l7.51-.9c-.26,1.94.78,4,3.65,4.65" style="fill:#fff;stroke:#767776;stroke-linecap:round;stroke-linejoin:round;stroke-width:2px"/><path d="M76,27.74A164.37,164.37,0,0,0,111.22,24s.1,28.94,9,45c0,0-16,6.17-34.05,5C86.21,74,75,57,76,27.74Z" style="fill:#fff;stroke:#f5771f;stroke-linecap:round;stroke-linejoin:round;stroke-width:2px"/><path d="M84.2,24a104.38,104.38,0,0,0,34.17,2.51s-2.15,26.79,4.79,43.82c0,0-16.59,4.2-34.41.85C88.75,71.2,79.71,53,84.2,24Z" style="fill:#fff;stroke:#f5771f;stroke-linecap:round;stroke-linejoin:round;stroke-width:2px"/><path d="M98.74,18.67a164.09,164.09,0,0,0,34.25,9s-10.18,27.1-7.52,45.3c0,0-17.12.1-33.61-7.41C91.86,65.57,87.45,45.69,98.74,18.67Z" style="fill:#fff;stroke:#f5771f;stroke-linecap:round;stroke-linejoin:round;stroke-width:2px"/><path d="M101.23,81.25l9.85-3.14c4.93-8.24-2-15-2-15l-8,2.19c2.86.88,5,4.12,5,8,0,4.54-2.93,8.23-6.54,8.23a5.54,5.54,0,0,1-3-.93" style="fill:#fff;stroke:#767776;stroke-linecap:round;stroke-linejoin:round;stroke-width:2px"/></g></g></svg>
