<svg xmlns="http://www.w3.org/2000/svg" viewBox="0 0 425.01 344.57">
  <title>business_buildings</title>
  <g id="Layer_2" data-name="Layer 2">
    <g id="Layer_1-2" data-name="Layer 1">
      <g>
        <g>
          <path d="M165.81,326.94l33.84,16.93a6.76,6.76,0,0,0,6,0l33.87-16.93a1.27,1.27,0,0,0,0-2.27l-33.88-16.92a6.7,6.7,0,0,0-6,0l-33.84,16.92A1.27,1.27,0,0,0,165.81,326.94Z" style="fill: #2c58c4"/>
          <path d="M347.91,158l33.84,16.92a6.69,6.69,0,0,0,6,0L421.63,158a1.27,1.27,0,0,0,0-2.27l-33.88-16.92a6.7,6.7,0,0,0-6,0l-33.84,16.92A1.27,1.27,0,0,0,347.91,158Z" style="fill: #2c58c4"/>
          <path d="M78.11,308.88l24.73,12.36a4.89,4.89,0,0,0,4.38,0L132,308.88a.93.93,0,0,0,0-1.66l-24.75-12.36a4.89,4.89,0,0,0-4.38,0L78.11,307.22A.93.93,0,0,0,78.11,308.88Z" style="fill: #fff;stroke: #2c58c4;stroke-miterlimit: 10;stroke-width: 2px"/>
          <path d="M158.58,199.32l128,64a25.4,25.4,0,0,0,22.7,0L415.7,209.91a4.8,4.8,0,0,0,0-8.59l-128.13-64a25.4,25.4,0,0,0-22.7,0L158.58,190.73A4.8,4.8,0,0,0,158.58,199.32Z" style="fill: #fff;stroke: #2c58c4;stroke-miterlimit: 10;stroke-width: 2px"/>
          <path d="M37,186.4l92.29,46.15a18.32,18.32,0,0,0,16.36,0L238,186.38a3.46,3.46,0,0,0,0-6.19l-92.36-46.13a18.32,18.32,0,0,0-16.36,0L37,180.21A3.46,3.46,0,0,0,37,186.4Z" style="fill: #2c58c4;stroke: #fff;stroke-miterlimit: 10;stroke-width: 2px"/>
          <path d="M136.94,252.42l102.39,51.19a20.29,20.29,0,0,0,18.16,0l82.92-41.49a3.84,3.84,0,0,0,0-6.87L237.93,204.07a20.3,20.3,0,0,0-18.15,0l-82.84,41.48A3.84,3.84,0,0,0,136.94,252.42Z" style="fill: #fff;stroke: #2c58c4;stroke-miterlimit: 10;stroke-width: 2px"/>
          <path d="M4.09,232.26l149.13,74.57a29.59,29.59,0,0,0,26.45,0L285.1,253.39a5.6,5.6,0,0,0,0-10L135.86,168.84a29.57,29.57,0,0,0-26.44,0L4.09,222.26A5.59,5.59,0,0,0,4.09,232.26Z" style="fill: #fff;stroke: #2c58c4;stroke-miterlimit: 10;stroke-width: 2px"/>
          <path d="M219.41,257.92l72.35,35.74a22,22,0,0,0,19.71,0l111.24-55.6a4.17,4.17,0,0,0,0-7.46l-72.43-35.72a22,22,0,0,0-19.7,0L219.41,250.46A4.17,4.17,0,0,0,219.41,257.92Z" style="fill: #2c58c4"/>
        </g>
        <g>
          <g>
            <g>
              <polygon points="199.48 112.89 124.87 150.66 73.15 124.58 147.76 86.81 199.48 112.89" style="fill: #767776;stroke: #767776;stroke-linejoin: round;stroke-width: 2px"/>
              <polygon points="73.15 133.06 73.15 124.46 147.76 86.81 147.76 95.42 73.15 133.06" style="fill: #fff;stroke: #767776;stroke-linejoin: round;stroke-width: 2px"/>
              <polygon points="199.48 121.5 199.48 112.89 147.76 86.81 147.76 95.42 199.48 121.5" style="fill: #fff;stroke: #767776;stroke-linejoin: round;stroke-width: 2px"/>
              <polygon points="124.86 234.86 124.87 150.66 73.15 124.58 73.15 208.78 124.86 234.86" style="fill: #fff;stroke: #767776;stroke-linejoin: round;stroke-width: 2px"/>
              <polygon points="124.87 234.86 124.87 150.66 199.48 113.01 199.48 197.22 124.87 234.86" style="fill: #767776;stroke: #767776;stroke-linejoin: round;stroke-width: 2px"/>
            </g>
            <path d="M124.87,179.09s1.23,3.12.51,3.59c-1.21.77-12.27,6.79-13.62,6.84s-1.28-3.17-1.28-3.17" style="fill: #fff;stroke: #767776;stroke-linejoin: round;stroke-width: 2px"/>
            <path d="M110.48,186.35s0,3.68-1.78,3.53-46.77-23.56-48.79-24.72-1.69-3.07-1.17-4.89" style="fill: #fff;stroke: #767776;stroke-linejoin: round;stroke-width: 2px"/>
            <g>
              <polygon points="110.45 186.35 124.87 162.62 73.15 136.53 58.74 160.26 110.45 186.35" style="fill: #fff;stroke: #767776;stroke-linejoin: round;stroke-width: 2px"/>
              <polygon points="110.48 186.35 124.87 179.09 124.87 162.62 110.48 186.35" style="fill: #fff;stroke: #767776;stroke-linejoin: round;stroke-width: 2px"/>
            </g>
          </g>
          <g>
            <g>
              <polygon points="235.72 78.08 310.33 115.85 362.05 89.76 287.44 52 235.72 78.08" style="fill: #767776;stroke: #767776;stroke-linejoin: round;stroke-width: 2px"/>
              <polygon points="362.05 98.25 362.05 89.65 287.44 52 287.44 60.61 362.05 98.25" style="fill: #fff;stroke: #767776;stroke-linejoin: round;stroke-width: 2px"/>
              <polygon points="235.72 86.69 235.72 78.08 287.44 52 287.44 60.61 235.72 86.69" style="fill: #fff;stroke: #767776;stroke-linejoin: round;stroke-width: 2px"/>
              <polygon points="310.34 235.45 310.33 115.85 362.05 89.76 362.05 209.37 310.34 235.45" style="fill: #fff;stroke: #767776;stroke-linejoin: round;stroke-width: 2px"/>
              <polygon points="310.32 235.45 310.33 115.85 235.72 78.2 235.72 197.81 310.32 235.45" style="fill: #767776;stroke: #767776;stroke-linejoin: round;stroke-width: 2px"/>
            </g>
            <polyline points="365.1 219.99 365.09 155.85 372.39 152.17 372.39 216.32" style="fill: none;stroke: #767776;stroke-linecap: round;stroke-linejoin: round;stroke-width: 2px"/>
            <g>
              <line x1="372.39" y1="212.97" x2="365.09" y2="216.65" style="fill: #fff;stroke: #767776;stroke-linecap: round;stroke-linejoin: round;stroke-width: 2px"/>
              <line x1="372.39" y1="207.46" x2="365.09" y2="211.14" style="fill: #fff;stroke: #767776;stroke-linecap: round;stroke-linejoin: round;stroke-width: 2px"/>
              <line x1="372.39" y1="201.95" x2="365.09" y2="205.63" style="fill: #fff;stroke: #767776;stroke-linecap: round;stroke-linejoin: round;stroke-width: 2px"/>
              <line x1="372.39" y1="196.44" x2="365.09" y2="200.12" style="fill: #fff;stroke: #767776;stroke-linecap: round;stroke-linejoin: round;stroke-width: 2px"/>
              <line x1="372.39" y1="190.92" x2="365.09" y2="194.6" style="fill: #fff;stroke: #767776;stroke-linecap: round;stroke-linejoin: round;stroke-width: 2px"/>
              <line x1="372.39" y1="185.41" x2="365.09" y2="189.09" style="fill: #fff;stroke: #767776;stroke-linecap: round;stroke-linejoin: round;stroke-width: 2px"/>
              <line x1="372.39" y1="179.9" x2="365.09" y2="183.58" style="fill: #fff;stroke: #767776;stroke-linecap: round;stroke-linejoin: round;stroke-width: 2px"/>
              <line x1="372.39" y1="174.39" x2="365.09" y2="178.07" style="fill: #fff;stroke: #767776;stroke-linecap: round;stroke-linejoin: round;stroke-width: 2px"/>
              <line x1="372.39" y1="168.88" x2="365.09" y2="172.56" style="fill: #fff;stroke: #767776;stroke-linecap: round;stroke-linejoin: round;stroke-width: 2px"/>
              <line x1="372.39" y1="163.37" x2="365.09" y2="167.05" style="fill: #fff;stroke: #767776;stroke-linecap: round;stroke-linejoin: round;stroke-width: 2px"/>
              <line x1="372.39" y1="157.86" x2="365.09" y2="161.54" style="fill: #fff;stroke: #767776;stroke-linecap: round;stroke-linejoin: round;stroke-width: 2px"/>
            </g>
            <g>
              <polygon points="310.33 173.72 323.57 180.63 375.29 154.54 362.05 147.63 310.33 173.72" style="fill: #767776;stroke: #767776;stroke-linejoin: round;stroke-width: 2px"/>
              <g>
                <polygon points="375.28 154.54 375.29 144.3 362.05 137.38 362.05 147.63 375.28 154.54" style="fill: #fff;stroke: #767776;stroke-linejoin: round;stroke-width: 2px"/>
                <polygon points="316.24 170.67 316.24 144.29 336.41 133.98 336.41 160.37 316.24 170.67" style="fill: #fff;stroke: #767776;stroke-linejoin: round;stroke-width: 2px"/>
                <polygon points="339.98 151.76 339.97 132.27 356.98 123.53 356.98 143.03 339.98 151.76" style="fill: #fff;stroke: #767776;stroke-linejoin: round;stroke-width: 2px"/>
                <polygon points="323.57 180.6 323.57 170.5 375.29 144.42 375.29 154.52 323.57 180.6" style="fill: #fff;stroke: #767776;stroke-linejoin: round;stroke-width: 2px"/>
                <polygon points="323.56 180.6 323.57 170.5 310.33 163.58 310.33 173.69 323.56 180.6" style="fill: #767776;stroke: #767776;stroke-linejoin: round;stroke-width: 2px"/>
                <line x1="326.32" y1="139.13" x2="326.32" y2="165.96" style="fill: none;stroke: #767776;stroke-linejoin: round;stroke-width: 2px"/>
                <polygon points="316.24 136.46 316.24 121.92 356.98 101.34 356.98 115.89 316.24 136.46" style="fill: #fff;stroke: #767776;stroke-linejoin: round;stroke-width: 2px"/>
              </g>
            </g>
          </g>
          <polygon points="137.47 241.05 216.99 281.16 296.51 241.05 216.99 200.95 137.47 241.05" style="fill: #fff;stroke: #767776;stroke-linejoin: round;stroke-width: 2px"/>
          <polygon points="137.47 41.1 216.99 81.21 296.51 41.1 216.99 1 137.47 41.1" style="fill: #767776;stroke: #767776;stroke-linejoin: round;stroke-width: 2px"/>
          <polygon points="296.5 49.78 296.51 41.11 216.99 1 216.99 9.68 296.5 49.78" style="fill: #fff;stroke: #767776;stroke-linejoin: round;stroke-width: 2px"/>
          <polygon points="137.47 49.78 137.46 41.11 216.99 1 216.99 9.68 137.47 49.78" style="fill: #fff;stroke: #767776;stroke-linejoin: round;stroke-width: 2px"/>
          <polygon points="217 281.15 216.99 81.21 296.51 41.1 296.51 241.06 217 281.15" style="fill: #fff;stroke: #767776;stroke-linejoin: round;stroke-width: 2px"/>
          <polygon points="216.98 281.15 216.99 81.21 137.46 41.1 137.46 241.06 216.98 281.15" style="fill: #fff;stroke: #767776;stroke-linejoin: round;stroke-width: 2px"/>
          <g>
            <polygon points="194.63 108.01 194.63 91.46 185.25 86.73 185.25 103.28 194.63 108.01" style="fill: #fff;stroke: #767776;stroke-linejoin: round;stroke-width: 2px"/>
            <polygon points="167.9 94.56 167.9 78.02 158.52 73.28 158.52 89.83 167.9 94.56" style="fill: #767776;stroke: #767776;stroke-linejoin: round;stroke-width: 2px"/>
            <polygon points="154.53 87.84 154.53 71.29 145.15 66.56 145.15 83.11 154.53 87.84" style="fill: #fff;stroke: #767776;stroke-linejoin: round;stroke-width: 2px"/>
            <polygon points="208 138.87 208 122.33 198.62 117.59 198.62 134.14 208 138.87" style="fill: #767776;stroke: #767776;stroke-linejoin: round;stroke-width: 2px"/>
            <polygon points="194.63 132.15 194.63 115.61 185.25 110.87 185.25 127.42 194.63 132.15" style="fill: #fff;stroke: #767776;stroke-linejoin: round;stroke-width: 2px"/>
            <polygon points="167.9 118.71 167.9 102.16 158.52 97.43 158.52 113.97 167.9 118.71" style="fill: #fff;stroke: #767776;stroke-linejoin: round;stroke-width: 2px"/>
            <polygon points="154.53 111.98 154.53 95.44 145.15 90.7 145.15 107.25 154.53 111.98" style="fill: #fff;stroke: #767776;stroke-linejoin: round;stroke-width: 2px"/>
            <polygon points="208 163.02 208 146.47 198.62 141.74 198.62 158.29 208 163.02" style="fill: #fff;stroke: #767776;stroke-linejoin: round;stroke-width: 2px"/>
            <polygon points="181.27 149.57 181.27 133.03 171.88 128.29 171.88 144.84 181.27 149.57" style="fill: #fff;stroke: #767776;stroke-linejoin: round;stroke-width: 2px"/>
            <polygon points="167.9 142.85 167.9 126.31 158.52 121.57 158.52 138.12 167.9 142.85" style="fill: #767776;stroke: #767776;stroke-linejoin: round;stroke-width: 2px"/>
            <polygon points="154.53 136.13 154.53 119.58 145.15 114.85 145.15 131.4 154.53 136.13" style="fill: #fff;stroke: #767776;stroke-linejoin: round;stroke-width: 2px"/>
            <polygon points="208 187.16 208 170.62 198.62 165.88 198.62 182.43 208 187.16" style="fill: #fff;stroke: #767776;stroke-linejoin: round;stroke-width: 2px"/>
            <polygon points="194.63 180.44 194.63 163.89 185.25 159.16 185.25 175.71 194.63 180.44" style="fill: #fff;stroke: #767776;stroke-linejoin: round;stroke-width: 2px"/>
            <polygon points="181.27 173.72 181.27 157.17 171.88 152.44 171.88 168.99 181.27 173.72" style="fill: #fff;stroke: #767776;stroke-linejoin: round;stroke-width: 2px"/>
            <polygon points="167.9 167 167.9 150.45 158.52 145.72 158.52 162.26 167.9 167" style="fill: #fff;stroke: #767776;stroke-linejoin: round;stroke-width: 2px"/>
            <polygon points="208 211.31 208 194.76 198.62 190.03 198.62 206.57 208 211.31" style="fill: #fff;stroke: #767776;stroke-linejoin: round;stroke-width: 2px"/>
            <polygon points="194.63 204.58 194.63 188.04 185.25 183.31 185.25 199.85 194.63 204.58" style="fill: #fff;stroke: #767776;stroke-linejoin: round;stroke-width: 2px"/>
            <polygon points="167.9 191.14 167.9 174.59 158.52 169.86 158.52 186.41 167.9 191.14" style="fill: #fff;stroke: #767776;stroke-linejoin: round;stroke-width: 2px"/>
            <polygon points="154.53 184.42 154.53 167.87 145.15 163.14 145.15 179.68 154.53 184.42" style="fill: #fff;stroke: #767776;stroke-linejoin: round;stroke-width: 2px"/>
            <polygon points="208 235.45 208 218.91 198.62 214.17 198.62 230.72 208 235.45" style="fill: #767776;stroke: #767776;stroke-linejoin: round;stroke-width: 2px"/>
            <polygon points="181.27 222.01 181.27 205.46 171.88 200.73 171.88 217.27 181.27 222.01" style="fill: #fff;stroke: #767776;stroke-linejoin: round;stroke-width: 2px"/>
            <polygon points="154.53 208.56 154.53 192.01 145.15 187.28 145.15 203.83 154.53 208.56" style="fill: #767776;stroke: #767776;stroke-linejoin: round;stroke-width: 2px"/>
            <polygon points="208 259.19 208 242.64 198.62 237.91 198.62 254.46 208 259.19" style="fill: #fff;stroke: #767776;stroke-linejoin: round;stroke-width: 2px"/>
            <polygon points="154.53 232.3 154.53 215.75 145.15 211.02 145.15 227.57 154.53 232.3" style="fill: #fff;stroke: #767776;stroke-linejoin: round;stroke-width: 2px"/>
          </g>
          <g>
            <polygon points="189.64 267.13 189.64 236.8 159.93 221.98 159.93 252.3 189.64 267.13" style="fill: #fff;stroke: #767776;stroke-linejoin: round;stroke-width: 2px"/>
            <line x1="174" y1="229" x2="174" y2="259.33" style="fill: none;stroke: #767776;stroke-linejoin: round;stroke-width: 2px"/>
          </g>
          <g>
            <polygon points="111.76 228.25 111.76 198.41 84.55 184.69 84.55 214.53 111.76 228.25" style="fill: #fff;stroke: #767776;stroke-linejoin: round;stroke-width: 2px"/>
            <line x1="97.72" y1="191.55" x2="97.72" y2="221.06" style="fill: none;stroke: #767776;stroke-linecap: round;stroke-linejoin: round;stroke-width: 2px"/>
          </g>
          <g>
            <polygon points="226.33 114.73 226.33 98.18 235.72 93.45 235.72 110 226.33 114.73" style="fill: #fff;stroke: #767776;stroke-linejoin: round;stroke-width: 2px"/>
            <polygon points="253.06 101.28 253.06 84.74 262.45 80.01 262.45 96.55 253.06 101.28" style="fill: #fff;stroke: #767776;stroke-linejoin: round;stroke-width: 2px"/>
            <polygon points="266.43 94.56 266.43 78.02 275.81 73.28 275.81 89.83 266.43 94.56" style="fill: #fff;stroke: #767776;stroke-linejoin: round;stroke-width: 2px"/>
            <polygon points="279.8 87.84 279.8 71.29 289.18 66.56 289.18 83.11 279.8 87.84" style="fill: #fff;stroke: #767776;stroke-linejoin: round;stroke-width: 2px"/>
            <polygon points="226.33 138.87 226.33 122.33 235.72 117.59 235.72 134.14 226.33 138.87" style="fill: #fff;stroke: #767776;stroke-linejoin: round;stroke-width: 2px"/>
            <polygon points="239.7 132.15 239.7 115.61 249.08 110.87 249.08 127.42 239.7 132.15" style="fill: #767776;stroke: #767776;stroke-linejoin: round;stroke-width: 2px"/>
            <polygon points="253.06 125.43 253.06 108.88 262.45 104.15 262.45 120.7 253.06 125.43" style="fill: #fff;stroke: #767776;stroke-linejoin: round;stroke-width: 2px"/>
            <polygon points="279.8 111.98 279.8 95.44 289.18 90.7 289.18 107.25 279.8 111.98" style="fill: #fff;stroke: #767776;stroke-linejoin: round;stroke-width: 2px"/>
            <polygon points="239.7 156.29 239.7 139.75 249.08 135.02 249.08 151.56 239.7 156.29" style="fill: #fff;stroke: #767776;stroke-linejoin: round;stroke-width: 2px"/>
            <polygon points="253.06 149.57 253.06 133.03 262.45 128.29 262.45 144.84 253.06 149.57" style="fill: #fff;stroke: #767776;stroke-linejoin: round;stroke-width: 2px"/>
            <polygon points="266.43 142.85 266.43 126.31 275.81 121.57 275.81 138.12 266.43 142.85" style="fill: #fff;stroke: #767776;stroke-linejoin: round;stroke-width: 2px"/>
            <polygon points="279.8 136.13 279.8 119.58 289.18 114.85 289.18 131.4 279.8 136.13" style="fill: #fff;stroke: #767776;stroke-linejoin: round;stroke-width: 2px"/>
            <polygon points="239.7 180.44 239.7 163.89 249.08 159.16 249.08 175.71 239.7 180.44" style="fill: #fff;stroke: #767776;stroke-linejoin: round;stroke-width: 2px"/>
            <polygon points="253.06 173.72 253.06 157.17 262.45 152.44 262.45 168.99 253.06 173.72" style="fill: #fff;stroke: #767776;stroke-linejoin: round;stroke-width: 2px"/>
            <polygon points="279.8 160.27 279.8 143.73 289.18 138.99 289.18 155.54 279.8 160.27" style="fill: #767776;stroke: #767776;stroke-linejoin: round;stroke-width: 2px"/>
            <polygon points="226.33 211.31 226.33 194.76 235.72 190.03 235.72 206.57 226.33 211.31" style="fill: #fff;stroke: #767776;stroke-linejoin: round;stroke-width: 2px"/>
            <polygon points="239.7 204.58 239.7 188.04 249.08 183.31 249.08 199.85 239.7 204.58" style="fill: #fff;stroke: #767776;stroke-linejoin: round;stroke-width: 2px"/>
            <polygon points="266.43 191.14 266.43 174.59 275.81 169.86 275.81 186.41 266.43 191.14" style="fill: #fff;stroke: #767776;stroke-linejoin: round;stroke-width: 2px"/>
            <polygon points="279.8 184.42 279.8 167.87 289.18 163.14 289.18 179.68 279.8 184.42" style="fill: #fff;stroke: #767776;stroke-linejoin: round;stroke-width: 2px"/>
            <polygon points="226.33 235.45 226.33 218.91 235.72 214.17 235.72 230.72 226.33 235.45" style="fill: #767776;stroke: #767776;stroke-linejoin: round;stroke-width: 2px"/>
            <polygon points="239.7 228.73 239.7 212.18 249.08 207.45 249.08 224 239.7 228.73" style="fill: #fff;stroke: #767776;stroke-linejoin: round;stroke-width: 2px"/>
            <polygon points="253.06 222.01 253.06 205.46 262.45 200.73 262.45 217.27 253.06 222.01" style="fill: #fff;stroke: #767776;stroke-linejoin: round;stroke-width: 2px"/>
            <polygon points="266.43 215.28 266.43 198.74 275.81 194 275.81 210.55 266.43 215.28" style="fill: #fff;stroke: #767776;stroke-linejoin: round;stroke-width: 2px"/>
            <polygon points="226.33 259.19 226.33 242.64 235.72 237.91 235.72 254.46 226.33 259.19" style="fill: #fff;stroke: #767776;stroke-linejoin: round;stroke-width: 2px"/>
            <polygon points="239.7 252.47 239.7 235.92 249.08 231.19 249.08 247.74 239.7 252.47" style="fill: #767776;stroke: #767776;stroke-linejoin: round;stroke-width: 2px"/>
            <polygon points="266.43 239.02 266.43 222.48 275.81 217.74 275.81 234.29 266.43 239.02" style="fill: #fff;stroke: #767776;stroke-linejoin: round;stroke-width: 2px"/>
            <polygon points="279.8 232.3 279.8 215.75 289.18 211.02 289.18 227.57 279.8 232.3" style="fill: #fff;stroke: #767776;stroke-linejoin: round;stroke-width: 2px"/>
          </g>
          <line x1="123.53" y1="151.33" x2="139.97" y2="143.04" style="fill: none;stroke: #fff;stroke-linecap: round;stroke-linejoin: round;stroke-width: 2px"/>
          <line x1="312.3" y1="116.95" x2="294.72" y2="108.08" style="fill: none;stroke: #fff;stroke-linecap: round;stroke-linejoin: round;stroke-width: 2px"/>
        </g>
      </g>
    </g>
  </g>
</svg>
