<svg xmlns="http://www.w3.org/2000/svg" viewBox="0 0 454.62 318.22">
  <title>capitol</title>
  <g id="Layer_2" data-name="Layer 2">
    <g id="Layer_1-2" data-name="Layer 1">
      <g>
        <path d="M174.07,299.71l35.54,17.77a7.05,7.05,0,0,0,6.3,0l35.57-17.78a1.34,1.34,0,0,0,0-2.39l-35.57-17.76a7.05,7.05,0,0,0-6.3,0l-35.54,17.77A1.33,1.33,0,0,0,174.07,299.71Z" style="fill: #95c93d"/>
        <path d="M376.47,128.25,412,146a7.05,7.05,0,0,0,6.3,0l35.57-17.78a1.32,1.32,0,0,0,0-2.38l-35.57-17.77a7,7,0,0,0-6.3,0l-35.54,17.77A1.33,1.33,0,0,0,376.47,128.25Z" style="fill: #95c93d"/>
        <path d="M82,280.74l26,13a5.13,5.13,0,0,0,4.61,0l26-13a1,1,0,0,0,0-1.74l-26-13a5.17,5.17,0,0,0-4.6,0L82,279A1,1,0,0,0,82,280.74Z" style="fill: #fff;stroke: #95c93d;stroke-miterlimit: 10;stroke-width: 2px"/>
        <path d="M166.48,165.69l134.45,67.22a26.62,26.62,0,0,0,23.85,0L436.49,176.8a5,5,0,0,0,0-9L301.93,100.58a26.63,26.63,0,0,0-23.84,0L166.48,156.67A5,5,0,0,0,166.48,165.69Z" style="fill: #fff;stroke: #95c93d;stroke-miterlimit: 10;stroke-width: 2px"/>
        <path d="M45,140l96.92,48.45a19.19,19.19,0,0,0,17.19,0l97-48.48a3.63,3.63,0,0,0,0-6.5l-97-48.44a19.2,19.2,0,0,0-17.18,0L45,133.51A3.64,3.64,0,0,0,45,140Z" style="fill: #95c93d"/>
        <path d="M143.75,221.45l107.53,53.76a21.33,21.33,0,0,0,19.07,0l87.07-43.58a4,4,0,0,0,0-7.21L249.81,170.67a21.36,21.36,0,0,0-19.07,0l-87,43.55A4,4,0,0,0,143.75,221.45Z" style="fill: #fff;stroke: #95c93d;stroke-miterlimit: 10;stroke-width: 2px"/>
        <path d="M4.25,200.28l156.6,78.3a31,31,0,0,0,27.78,0l110.71-56.12a5.88,5.88,0,0,0,0-10.51L142.61,133.68a31.06,31.06,0,0,0-27.76,0L4.25,189.78A5.87,5.87,0,0,0,4.25,200.28Z" style="fill: #fff;stroke: #95c93d;stroke-miterlimit: 10;stroke-width: 2px"/>
        <path d="M230.36,227.22l76,37.53a23.13,23.13,0,0,0,20.7,0l116.81-58.38a4.37,4.37,0,0,0,0-7.83L367.78,161a23.14,23.14,0,0,0-20.69,0L230.36,219.4A4.37,4.37,0,0,0,230.36,227.22Z" style="fill: #95c93d"/>
        <g>
          <polygon points="238.76 3.25 238.76 5.81 241.31 5.55 238.76 3.25" style="fill: none"/>
          <polygon points="148.02 133.38 140.57 129.6 140.57 151.96 148.02 155.58 148.02 133.38" style="fill: #fff"/>
          <polygon points="163.26 141.12 155.37 137.11 155.37 159.15 163.26 162.99 163.26 141.12" style="fill: #fff"/>
          <polygon points="179.29 149.26 170.61 144.85 170.61 166.56 179.29 170.78 179.29 149.26" style="fill: #fff"/>
          <path d="M275.23,157.72l-28.39-14.2v17a1,1,0,0,1-.54.89l-7.24,3.74v34.71l12,5.82,0,0,.07,0a1.18,1.18,0,0,1,.21.18l0,0a1.35,1.35,0,0,1,.15.26.14.14,0,0,1,0,.07.94.94,0,0,1,.05.3v14l23.65,11.83ZM259.77,195.3a1,1,0,0,1-.47.85,1,1,0,0,1-.53.15,1,1,0,0,1-.44-.1l-7.09-3.47a1,1,0,0,1-.56-.89V177.57a1,1,0,0,1,.47-.85,1,1,0,0,1,1-.05l7.1,3.55a1,1,0,0,1,.55.89Zm0-23.08a1,1,0,0,1-.47.85,1,1,0,0,1-.53.15,1,1,0,0,1-.44-.1l-7.09-3.47a1,1,0,0,1-.56-.89V154.49a1,1,0,0,1,.47-.85,1,1,0,0,1,1,0l7.1,3.55a1,1,0,0,1,.55.9Zm11.47,28.52a1,1,0,0,1-.47.85,1,1,0,0,1-.53.15,1,1,0,0,1-.44-.1l-7.09-3.46a1,1,0,0,1-.56-.9V183a1,1,0,0,1,.47-.85,1,1,0,0,1,1,0l7.09,3.55a1,1,0,0,1,.55.89Zm0-23.08a1,1,0,0,1-.47.85,1,1,0,0,1-.53.15,1,1,0,0,1-.44-.1l-7.09-3.46a1,1,0,0,1-.56-.9V159.93a1,1,0,0,1,.47-.85,1,1,0,0,1,1,0l7.09,3.55a1,1,0,0,1,.55.89Z" style="fill: #fff"/>
          <polygon points="213 166.38 202.97 161.28 202.97 182.3 213 187.18 213 166.38" style="fill: #fff"/>
          <path d="M231.72,168.94l-6.32,3.26h0a.94.94,0,0,1-.42.11,1,1,0,0,1-.41-.1h0l-4.15-2.11v20.65l11.38,5.53Z" style="fill: #fff"/>
          <polygon points="195.62 157.55 186.63 152.99 186.63 174.36 195.62 178.73 195.62 157.55" style="fill: #fff"/>
          <path d="M118.26,126.14l-3.38-1.65a1,1,0,0,1-.56-.89v-7.53a1,1,0,0,1-.13-.48v-18s0-.07,0-.1,0-.07,0-.1,0-.06,0-.09,0,0,0,0a.05.05,0,0,1,0,0l0-.05,0-.07V86.25a1,1,0,0,1,.47-.85,1,1,0,0,1,1-.05l7.09,3.55a1,1,0,0,1,.55.89V92.3L133.8,87,110.54,75.37v74.7l7.72,3.86Z" style="fill: #fff"/>
          <path d="M130.55,132l-4.2-2.05a1,1,0,0,1-.56-.9V122.1l-.19-.1v35.6l.89.45,4.06-2.05Z" style="fill: #fff"/>
          <path d="M200.29,36.79l7.23,3.36a33.28,33.28,0,0,1,2.95-4.57l-10.18-5.09Z" style="fill: #fff"/>
          <polygon points="335.69 104.67 357.9 115.15 363.75 112.22 335.69 98.19 335.69 104.67" style="fill: #fff"/>
          <polygon points="254.29 145.01 333.69 104.69 333.69 98.56 248.06 141.9 254.29 145.01" style="fill: #fff"/>
          <path d="M118.42,76.81l79.87-40V30.49L111.77,73.75,118.21,77A1.06,1.06,0,0,1,118.42,76.81Z" style="fill: #fff"/>
          <polygon points="116.32 95.91 121.41 93.31 121.41 90.41 116.32 87.87 116.32 95.91" style="fill: #fff"/>
          <polygon points="118.26 118.27 116.32 117.29 116.32 122.97 118.26 123.92 118.26 118.27" style="fill: #fff"/>
          <polygon points="130.55 124.52 127.79 123.11 127.79 128.41 130.55 129.76 130.55 124.52" style="fill: #fff"/>
          <path d="M365,113.84l-87.76,43.88v74.7L365,188.54Zm-74,105a1,1,0,0,1-.56.9l-7.09,3.46a1,1,0,0,1-.44.1,1,1,0,0,1-.53-.15,1,1,0,0,1-.47-.85V208.13a1,1,0,0,1,.55-.9l7.09-3.54a1,1,0,0,1,1.45.89Zm0-45.6a1,1,0,0,1-.56.9l-7.09,3.46a1,1,0,0,1-.44.1,1,1,0,0,1-.53-.15,1,1,0,0,1-.47-.85V162.53a1,1,0,0,1,.55-.89l7.09-3.55A1,1,0,0,1,291,159Zm11.47,40.16a1,1,0,0,1-.56.89l-7.09,3.47a1,1,0,0,1-.44.1,1,1,0,0,1-.53-.15,1,1,0,0,1-.47-.85V202.68a1,1,0,0,1,.55-.89l7.1-3.55a1,1,0,0,1,1,0,1,1,0,0,1,.47.85Zm0-45.6a1,1,0,0,1-.56.89l-7.09,3.47a1,1,0,0,1-.44.1,1,1,0,0,1-.53-.15,1,1,0,0,1-.47-.85V157.09a1,1,0,0,1,.55-.9l7.1-3.55a1,1,0,0,1,1,.05,1,1,0,0,1,.47.85Zm23.23,33.81a1,1,0,0,1-.56.9L318.06,206a1,1,0,0,1-.44.1,1,1,0,0,1-.53-.15,1,1,0,0,1-.47-.85V190.9a1,1,0,0,1,.56-.89l7.09-3.55a1,1,0,0,1,1,0,1,1,0,0,1,.47.85Zm0-45.6a1,1,0,0,1-.56.9l-7.09,3.46a1,1,0,0,1-.44.1,1,1,0,0,1-.53-.15,1,1,0,0,1-.47-.85V145.3a1,1,0,0,1,.56-.89l7.09-3.55a1,1,0,0,1,1,0,1,1,0,0,1,.47.85ZM337.07,196a1,1,0,0,1-.56.9l-7.1,3.47a1,1,0,0,1-.43.1.92.92,0,0,1-.53-.16,1,1,0,0,1-.47-.84V185.25a1,1,0,0,1,.55-.89l7.09-3.55a1,1,0,0,1,1.45.9Zm0-45.6a1,1,0,0,1-.56.9l-7.1,3.47a1,1,0,0,1-.43.1,1,1,0,0,1-.53-.15,1,1,0,0,1-.47-.85V139.65a1,1,0,0,1,.55-.89l7.09-3.55a1,1,0,0,1,1.45.9Zm11.75,39.26a1,1,0,0,1-.56.9L341.17,194a1.13,1.13,0,0,1-.44.1,1,1,0,0,1-.53-.15,1,1,0,0,1-.47-.85V178.91a1,1,0,0,1,.56-.89l7.09-3.55a1,1,0,0,1,1,.05,1,1,0,0,1,.47.85Zm0-45.6a1,1,0,0,1-.56.9l-7.09,3.47a1.13,1.13,0,0,1-.44.1,1,1,0,0,1-.53-.15,1,1,0,0,1-.47-.85V133.31a1,1,0,0,1,.56-.89l7.09-3.55a1,1,0,0,1,1,0,1,1,0,0,1,.47.85Zm11.48,40.16a1,1,0,0,1-.56.9l-7.1,3.46a.91.91,0,0,1-.43.1,1,1,0,0,1-.53-.15,1,1,0,0,1-.47-.85V173.47a1,1,0,0,1,.55-.9l7.09-3.54a1,1,0,0,1,1,0,1,1,0,0,1,.48.85Zm0-45.6a1,1,0,0,1-.56.9l-7.1,3.46a.91.91,0,0,1-.43.1,1,1,0,0,1-.53-.15,1,1,0,0,1-.47-.85V127.87a1,1,0,0,1,.55-.9l7.09-3.54a1,1,0,0,1,1,0,1,1,0,0,1,.48.85Z" style="fill: #fff"/>
          <path d="M367,112l0-.09c0-.05,0-.11-.07-.15a.71.71,0,0,0-.07-.09l-.1-.12a.31.31,0,0,0-.09-.07.27.27,0,0,0-.08-.07l0,0,0,0L335.61,95.92,282.84,50.18l-.06,0-.06,0-.1-.06h0l-.12,0-.12,0h0L271,48.11a33.31,33.31,0,0,0-19.41-22.94V21.6A13.56,13.56,0,0,0,238.76,8.28V7.82l5-.5a1,1,0,0,0,.85-.69,1,1,0,0,0-.28-1L238.43.26a1,1,0,0,0-1.07-.17,1,1,0,0,0-.6.91V8.28A13.57,13.57,0,0,0,223.94,21.6v3.57A34.2,34.2,0,0,0,211.78,34l-12-6h0a.93.93,0,0,0-.42-.09,1,1,0,0,0-.42.09s0,0,0,0L109.09,72.86l0,0,0,0-.08.07-.09.07-.1.12-.06.09a1,1,0,0,0-.07.15l0,.09a1.09,1.09,0,0,0,0,.26v76.94a1,1,0,0,0,.55.89l9.17,4.59v6l-10.4,5.26,0,0,0,0h0l-.07.06-.09.07-.06.07,0,0L89.23,191.13A1,1,0,0,0,89,192a1,1,0,0,0,.52.68l107.87,55.81,0,0h0a.85.85,0,0,0,.38.09h0a1.08,1.08,0,0,0,.43-.1h0l18.78-9.69h0l33.11-16.61,25.54,12.77h.05a.93.93,0,0,0,.8,0h.05l89.75-44.88a1,1,0,0,0,.56-.89V112.22A1.09,1.09,0,0,0,367,112ZM238.76,3.25l2.55,2.3-2.55.26Zm-1,9.39a1,1,0,0,0,1-1V10.28A11.57,11.57,0,0,1,249.58,21.6c0,2.56-4.85,5.41-11.82,5.41s-11.82-2.85-11.82-5.41a11.57,11.57,0,0,1,10.82-11.32v1.36A1,1,0,0,0,237.76,12.64ZM225.94,25.48a11.23,11.23,0,0,0,2.84,1.79v5.48c-1.81-1-2.84-2.25-2.84-3.46ZM243.52,34V28.36a18.44,18.44,0,0,0,2.86-.93V32.9A14.6,14.6,0,0,1,243.52,34Zm-12.74-.35V28a22.59,22.59,0,0,0,4,.83v5.67A19.71,19.71,0,0,1,230.78,33.63Zm6-4.64.95,0a26.61,26.61,0,0,0,3.76-.27V34.4a23.29,23.29,0,0,1-3.76.3l-.95,0Zm11.57-2.59a10.52,10.52,0,0,0,1.2-.92v3.81a3.27,3.27,0,0,1-1.2,2.26ZM237.76,36.7c7.75,0,13.82-3.26,13.82-7.41V27.35A30.85,30.85,0,0,1,269.79,55.2a9.28,9.28,0,0,1-2.71,6.24,1.29,1.29,0,0,0-.16.17c-3.11,3.31-8.54,6-15.29,7.58a.58.58,0,0,0-.14,0,61.58,61.58,0,0,1-13.73,1.5A56.46,56.46,0,0,1,218,67.41a1,1,0,0,0-.3-.11,29,29,0,0,1-7.16-3.9.88.88,0,0,0-.41-.33c-2.82-2.31-4.44-5-4.44-7.87a30.87,30.87,0,0,1,18.21-27.85v1.94C223.94,33.44,230,36.7,237.76,36.7ZM95.24,186.7l106.62,54-1.32,1.73-106.65-54Zm5.3-6.78.06.05L207.06,233.9l-1.33,1.74-106.55-54Zm8-10.29,106.55,53.66-1.43,1.89L107.3,171.27Zm89.7-139.14v6.32l-79.87,40a1.06,1.06,0,0,0-.21.16l-6.44-3.22ZM279,51.43l-7.2,3.66a32.68,32.68,0,0,0-.39-4.88ZM233.72,168.21l3.34-1.7v41.88c0,.33-.67.82-1.67.82s-1.67-.49-1.67-.82Zm-18.72-.7,3.34,1.7V215.8c0,.33-.67.82-1.67.82s-1.67-.49-1.67-.82Zm-17.38-8.78,3.35,1.7V207c0,.33-.67.82-1.68.82s-1.67-.49-1.67-.82Zm-16.33-8.37,3.34,1.7v46.59c0,.33-.66.83-1.67.83s-1.67-.5-1.67-.83Zm-16-8.2,3.35,1.7v46.59c0,.33-.67.82-1.68.82s-1.67-.49-1.67-.82ZM150,134.4l3.34,1.7v46.59c0,.33-.66.82-1.67.82S150,183,150,182.69Zm-14.8-7.46,3.35,1.82v46.58c0,.32-.67.82-1.68.82s-1.67-.5-1.67-.82ZM125.6,157.6V122l.19.1V129a1,1,0,0,0,.56.9l4.2,2.05v24l-4.06,2.05Zm-9.28-40.31,1.94,1v5.65l-1.94-1Zm5.09-24-5.09,2.59v-8l5.09,2.54ZM203.77,53.6c0,.53,0,1.07,0,1.6V75c0,4.18,2.71,8,7.29,11l-38.75,19.67L118.39,97.1Zm34,19.12,1.15,0V90.5l-1.15,0a64.07,64.07,0,0,1-8.82-.61V72.14A65.77,65.77,0,0,0,237.76,72.72Zm22.43-4.25V86.06a41.1,41.1,0,0,1-7.31,2.61V71A44.1,44.1,0,0,0,260.19,68.47Zm6.52-3.93V81.23a1,1,0,0,0,.06.34A20.32,20.32,0,0,1,262.19,85V67.5A26,26,0,0,0,266.71,64.54Zm3.08-3.31V75a8.32,8.32,0,0,1-1.08,4V62.61A15.19,15.19,0,0,0,269.79,61.23Zm63.9,43.46L254.29,145l-6.23-3.11,85.63-43.33ZM172,107.6l46.39,40.48-53.12-26.55L121.42,99.6l45.94,7.27Zm-55.8-8.38L223.94,153.1v16.59l-69.12-35.1h0l-5.35-2.71h0L116.19,115Zm11.6,23.89,2.76,1.41v5.24l-2.76-1.34Zm98.15,46.56V153.1l18.9-9.57V159.9ZM333.27,96.53,225.09,151.28l-50.88-44.4,38.85-19.73c6.16,3.32,14.88,5.37,24.7,5.37,19.09,0,34-7.7,34-17.52V57.33L282,52.13Zm-82.39-7.38a60.26,60.26,0,0,1-10,1.29V72.64a62.61,62.61,0,0,0,10-1.23Zm-23.94.45a48.73,48.73,0,0,1-8.4-2.2V69.74a51.05,51.05,0,0,0,8.4,2.1Zm-10.4-3a28,28,0,0,1-5.74-3.25V66a32.15,32.15,0,0,0,5.74,3Zm-7.74-5A9.5,9.5,0,0,1,205.73,75V61.23a16.8,16.8,0,0,0,3.07,3.29Zm-76.25,44.1.67.38v36.06c-.42-.18-.67-.44-.67-.64Zm8,3.88,7.45,3.78v22.2L140.57,152Zm14.79,7.51,7.9,4V163l-7.9-3.84Zm15.25,7.74,8.68,4.41v21.53l-8.68-4.23Zm16,8.14,9,4.56v21.18l-9-4.37ZM203,161.28l10,5.09v20.81l-10-4.88Zm17.37,8.82,4.15,2.11h0a1,1,0,0,0,.41.1.94.94,0,0,0,.42-.11h0l6.32-3.26v27.34l-11.38-5.53ZM357.9,115.15l-22.21-10.48V98.19l28.06,14ZM106.05,172.88,212.47,226.8l-1.4,1.84L104.62,174.7Zm-2.69,3.43,106.48,53.95-1.55,2-106.5-53.95Zm-5.44,7,106.58,54-1.41,1.84-106.6-54Zm153.66,36.87V206.57a.94.94,0,0,0-.05-.3.14.14,0,0,0,0-.07,1.35,1.35,0,0,0-.15-.26l0,0a1.18,1.18,0,0,0-.21-.18l-.07,0,0,0-12-5.82V165.14l7.24-3.74a1,1,0,0,0,.54-.89v-17l28.39,14.2v74.7l-23.65-11.83Zm-44.06-180-7.23-3.36v-6.3l10.18,5.09A33.28,33.28,0,0,0,207.52,40.15Zm-97,35.22L133.8,87l-10.39,5.3V89.79a1,1,0,0,0-.55-.89l-7.09-3.55a1,1,0,0,0-1,.05,1,1,0,0,0-.47.85V97.14l0,.07,0,.05a.05.05,0,0,0,0,0s0,0,0,0,0,.06,0,.09,0,.06,0,.1,0,.06,0,.1v18a1,1,0,0,0,.13.48v7.53a1,1,0,0,0,.56.89l3.38,1.65v27.79l-7.72-3.86Zm9.72,44,3.34,1.89V168c0,.33-.67.83-1.67.83s-1.67-.5-1.67-.83Zm1.67,51.4c2.06,0,3.67-1.24,3.67-2.83v-7.21l5-2.5v3.28a3,3,0,0,0,2.67,2.71v11.11c0,1.58,1.62,2.82,3.67,2.82s3.68-1.24,3.68-2.82V154.18L148,157.8v24.89c0,1.58,1.61,2.82,3.67,2.82s3.67-1.24,3.67-2.82V161.38l7.9,3.84v25.23c0,1.58,1.62,2.82,3.67,2.82s3.68-1.24,3.68-2.82V168.79l8.68,4.22v25.64c0,1.59,1.61,2.83,3.67,2.83s3.67-1.24,3.67-2.83V176.58l9,4.37V207c0,1.58,1.62,2.82,3.67,2.82S203,208.6,203,207v-22.5l10,4.88v26.4c0,1.58,1.61,2.82,3.67,2.82s3.67-1.24,3.67-2.82V193l11.38,5.53v9.89c0,1.58,1.61,2.82,3.67,2.82s3.67-1.24,3.67-2.82v-6.32l9.23,4.49-31.61,15.27L128.2,177.27l-17.67-8.91,7.73-3.91V168C118.26,169.54,119.87,170.78,121.93,170.78ZM92.64,190l106.67,54-1.7,2.23L91.55,191.42Zm124,46.74h0v.13a.93.93,0,0,0-.46.1l-14.83,7.65,15.94-20.9,32.26-15.58v12.09Zm60.56-4.34v-74.7L365,113.84v74.7Z" style="fill: #767776"/>
          <path d="M121.42,99.6l43.84,21.93,53.12,26.55L172,107.6l-4.63-.73ZM137.64,105a1,1,0,0,1,1.1-.68l32.84,5.19a.94.94,0,0,1,.5.24L202.2,136a1,1,0,0,1,.17,1.31,1,1,0,0,1-.83.44,1,1,0,0,1-.45-.1l-63-31.48A1,1,0,0,1,137.64,105Z" style="fill: #fff"/>
          <polygon points="170.98 111.42 144.82 107.29 194.98 132.37 170.98 111.42" style="fill: #fff"/>
          <path d="M138.14,106.18l63,31.48a1,1,0,0,0,.45.1,1,1,0,0,0,.83-.44,1,1,0,0,0-.17-1.31l-30.12-26.28a.94.94,0,0,0-.5-.24l-32.84-5.19a1,1,0,0,0-.6,1.88ZM171,111.42l24,21-50.16-25.08Z" style="fill: #767776"/>
          <path d="M282,52.13l-10.25,5.2V75c0,9.82-14.94,17.52-34,17.52-9.82,0-18.54-2-24.7-5.37l-38.85,19.73,50.88,44.4L333.27,96.53Z" style="fill: #fff"/>
          <path d="M118.39,97.1l53.88,8.52L211,86c-4.58-3-7.29-6.77-7.29-11V55.2c0-.53,0-1.07,0-1.6Z" style="fill: #fff"/>
          <path d="M271.79,55.09l7.2-3.66-7.59-1.22A32.68,32.68,0,0,1,271.79,55.09Z" style="fill: #fff"/>
          <path d="M260.19,86.06V68.47A44.1,44.1,0,0,1,252.88,71V88.67A41.1,41.1,0,0,0,260.19,86.06Z" style="fill: #fff"/>
          <path d="M266.77,81.57a1,1,0,0,1-.06-.34V64.54a26,26,0,0,1-4.52,3V85A20.32,20.32,0,0,0,266.77,81.57Z" style="fill: #fff"/>
          <path d="M268.71,79a8.32,8.32,0,0,0,1.08-4V61.23a15.19,15.19,0,0,1-1.08,1.38Z" style="fill: #fff"/>
          <path d="M205.73,61.23V75a9.5,9.5,0,0,0,3.07,6.62V64.52A16.8,16.8,0,0,1,205.73,61.23Z" style="fill: #fff"/>
          <path d="M218.54,87.4a48.73,48.73,0,0,0,8.4,2.2V71.84a51.05,51.05,0,0,1-8.4-2.1Z" style="fill: #fff"/>
          <path d="M210.8,83.36a28,28,0,0,0,5.74,3.25V69a32.15,32.15,0,0,1-5.74-3Z" style="fill: #fff"/>
          <path d="M228.94,89.91a64.07,64.07,0,0,0,8.82.61l1.15,0V72.7l-1.15,0a65.77,65.77,0,0,1-8.82-.58Z" style="fill: #fff"/>
          <path d="M240.91,72.64v17.8a60.26,60.26,0,0,0,10-1.29V71.41A62.61,62.61,0,0,1,240.91,72.64Z" style="fill: #fff"/>
          <path d="M205.73,55.2c0,2.87,1.62,5.56,4.44,7.87a.88.88,0,0,1,.41.33,29,29,0,0,0,7.16,3.9,1,1,0,0,1,.3.11,56.46,56.46,0,0,0,19.72,3.31,61.58,61.58,0,0,0,13.73-1.5.58.58,0,0,1,.14,0c6.75-1.58,12.18-4.27,15.29-7.58a1.29,1.29,0,0,1,.16-.17,9.28,9.28,0,0,0,2.71-6.24,30.85,30.85,0,0,0-18.21-27.85v1.94c0,4.15-6.07,7.41-13.82,7.41s-13.82-3.26-13.82-7.41V27.35A30.87,30.87,0,0,0,205.73,55.2Z" style="fill: #fff"/>
          <path d="M230.78,28v5.61a19.71,19.71,0,0,0,4,.89V28.85A22.59,22.59,0,0,1,230.78,28Z" style="fill: #fff"/>
          <path d="M249.58,29.29V25.48a10.52,10.52,0,0,1-1.2.92v5.15A3.27,3.27,0,0,0,249.58,29.29Z" style="fill: #fff"/>
          <path d="M228.78,32.75V27.27a11.23,11.23,0,0,1-2.84-1.79v3.81C225.94,30.5,227,31.75,228.78,32.75Z" style="fill: #fff"/>
          <path d="M241.52,34.4V28.74a26.61,26.61,0,0,1-3.76.27l-.95,0v5.69l.95,0A23.29,23.29,0,0,0,241.52,34.4Z" style="fill: #fff"/>
          <path d="M243.52,28.36V34a14.6,14.6,0,0,0,2.86-1.08V27.43A18.44,18.44,0,0,1,243.52,28.36Z" style="fill: #fff"/>
          <path d="M225.94,21.6c0,2.56,4.86,5.41,11.82,5.41s11.82-2.85,11.82-5.41a11.57,11.57,0,0,0-10.82-11.32v1.36a1,1,0,0,1-2,0V10.28A11.57,11.57,0,0,0,225.94,21.6Z" style="fill: #fff"/>
          <polygon points="149.47 131.88 149.47 131.88 154.82 134.59 154.82 134.59 223.94 169.69 223.94 153.1 116.19 99.22 116.19 114.98 149.47 131.88" style="fill: #fff"/>
          <polygon points="244.84 143.53 225.94 153.1 225.94 169.67 244.84 159.9 244.84 143.53" style="fill: #fff"/>
          <path d="M110.53,168.36l17.67,8.91,88.48,44.56,31.61-15.27-9.23-4.49v6.32c0,1.58-1.61,2.82-3.67,2.82s-3.67-1.24-3.67-2.82V198.5L220.34,193V215.8c0,1.58-1.61,2.82-3.67,2.82S213,217.38,213,215.8V189.4l-10-4.88V207c0,1.58-1.62,2.82-3.68,2.82s-3.67-1.24-3.67-2.82V181l-9-4.37v22.07c0,1.59-1.61,2.83-3.67,2.83s-3.67-1.24-3.67-2.83V173l-8.68-4.22v21.66c0,1.58-1.62,2.82-3.68,2.82s-3.67-1.24-3.67-2.82V165.22l-7.9-3.84v21.31c0,1.58-1.61,2.82-3.67,2.82s-3.67-1.24-3.67-2.82V157.8l-7.45-3.62v21.16c0,1.58-1.62,2.82-3.68,2.82s-3.67-1.24-3.67-2.82V164.23a3,3,0,0,1-2.67-2.71v-3.28l-5,2.5V168c0,1.59-1.61,2.83-3.67,2.83s-3.67-1.24-3.67-2.83v-3.5Z" style="fill: #fff"/>
          <path d="M249.58,220.25V208.16l-32.26,15.58-15.94,20.9L216.21,237a.93.93,0,0,1,.46-.1v-.13h0Z" style="fill: #fff"/>
          <path d="M133.22,162.16V126.1l-.67-.38v35.8C132.55,161.72,132.8,162,133.22,162.16Z" style="fill: #fff"/>
          <path d="M120.26,168c0,.33.67.83,1.67.83s1.67-.5,1.67-.83V121.27l-3.34-1.89Z" style="fill: #fff"/>
          <path d="M136.89,176.16c1,0,1.68-.5,1.68-.82V128.76l-3.35-1.82v48.4C135.22,175.66,135.89,176.16,136.89,176.16Z" style="fill: #fff"/>
          <path d="M151.69,183.51c1,0,1.67-.49,1.67-.82V136.1L150,134.4v48.29C150,183,150.69,183.51,151.69,183.51Z" style="fill: #fff"/>
          <path d="M166.93,191.27c1,0,1.68-.49,1.68-.82V143.86l-3.35-1.7v48.29C165.26,190.78,165.93,191.27,166.93,191.27Z" style="fill: #fff"/>
          <path d="M183,199.48c1,0,1.67-.5,1.67-.83V152.06l-3.34-1.7v48.29C181.29,199,182,199.48,183,199.48Z" style="fill: #fff"/>
          <path d="M199.29,207.84c1,0,1.68-.49,1.68-.82V160.43l-3.35-1.7V207C197.62,207.35,198.29,207.84,199.29,207.84Z" style="fill: #fff"/>
          <path d="M216.67,216.62c1,0,1.67-.49,1.67-.82V169.21l-3.34-1.7V215.8C215,216.13,215.66,216.62,216.67,216.62Z" style="fill: #fff"/>
          <path d="M235.39,209.21c1,0,1.67-.49,1.67-.82V166.51l-3.34,1.7v40.18C233.72,208.72,234.38,209.21,235.39,209.21Z" style="fill: #fff"/>
          <polygon points="252.68 168.13 257.77 170.62 257.77 158.65 252.68 156.11 252.68 168.13" style="fill: #fff"/>
          <path d="M259.22,157.14l-7.1-3.55a1,1,0,0,0-1,0,1,1,0,0,0-.47.85v14.27a1,1,0,0,0,.56.89l7.09,3.47a1,1,0,0,0,.44.1,1,1,0,0,0,.53-.15,1,1,0,0,0,.47-.85V158A1,1,0,0,0,259.22,157.14Zm-1.45,13.48-5.09-2.49v-12l5.09,2.54Z" style="fill: #767776"/>
          <polygon points="264.15 173.58 269.24 176.06 269.24 164.1 264.15 161.55 264.15 173.58" style="fill: #fff"/>
          <path d="M270.69,162.59,263.6,159a1,1,0,0,0-1,0,1,1,0,0,0-.47.85V174.2a1,1,0,0,0,.56.9l7.09,3.46a1,1,0,0,0,.44.1,1,1,0,0,0,.53-.15,1,1,0,0,0,.47-.85V163.48A1,1,0,0,0,270.69,162.59Zm-1.45,13.47-5.09-2.48v-12l5.09,2.55Z" style="fill: #767776"/>
          <polygon points="252.68 191.21 257.77 193.7 257.77 181.73 252.68 179.19 252.68 191.21" style="fill: #fff"/>
          <path d="M259.22,180.22l-7.1-3.55a1,1,0,0,0-1,.05,1,1,0,0,0-.47.85v14.27a1,1,0,0,0,.56.89l7.09,3.47a1,1,0,0,0,.44.1,1,1,0,0,0,.53-.15,1,1,0,0,0,.47-.85V181.11A1,1,0,0,0,259.22,180.22Zm-1.45,13.48-5.09-2.49v-12l5.09,2.54Z" style="fill: #767776"/>
          <polygon points="264.15 196.66 269.24 199.14 269.24 187.18 264.15 184.63 264.15 196.66" style="fill: #fff"/>
          <path d="M270.69,185.67l-7.09-3.55a1,1,0,0,0-1,0,1,1,0,0,0-.47.85v14.27a1,1,0,0,0,.56.9l7.09,3.46a1,1,0,0,0,.44.1,1,1,0,0,0,.53-.15,1,1,0,0,0,.47-.85V186.56A1,1,0,0,0,270.69,185.67Zm-1.45,13.47-5.09-2.48v-12l5.09,2.55Z" style="fill: #767776"/>
          <polygon points="295.39 169.67 300.48 167.18 300.48 155.16 295.39 157.7 295.39 169.67" style="fill: #fff"/>
          <path d="M302,152.69a1,1,0,0,0-1-.05l-7.1,3.55a1,1,0,0,0-.55.9v14.18a1,1,0,0,0,.47.85,1,1,0,0,0,.53.15,1,1,0,0,0,.44-.1l7.09-3.47a1,1,0,0,0,.56-.89V153.54A1,1,0,0,0,302,152.69Zm-1.53,14.49-5.09,2.49v-12l5.09-2.54Z" style="fill: #767776"/>
          <path d="M290.54,158.13a1,1,0,0,0-1,0l-7.09,3.55a1,1,0,0,0-.55.89v14.18a1,1,0,0,0,.47.85,1,1,0,0,0,.53.15,1,1,0,0,0,.44-.1l7.09-3.46a1,1,0,0,0,.56-.9V159A1,1,0,0,0,290.54,158.13Z" style="fill: #767776"/>
          <polygon points="295.39 215.27 300.48 212.78 300.48 200.76 295.39 203.3 295.39 215.27" style="fill: #fff"/>
          <path d="M302,198.29a1,1,0,0,0-1,0l-7.1,3.55a1,1,0,0,0-.55.89v14.19a1,1,0,0,0,.47.85,1,1,0,0,0,.53.15,1,1,0,0,0,.44-.1l7.09-3.47a1,1,0,0,0,.56-.89V199.14A1,1,0,0,0,302,198.29Zm-1.53,14.49-5.09,2.49v-12l5.09-2.54Z" style="fill: #767776"/>
          <polygon points="283.92 220.71 289.01 218.22 289.01 206.2 283.92 208.75 283.92 220.71" style="fill: #fff"/>
          <path d="M290.54,203.73a1,1,0,0,0-1,0l-7.09,3.54a1,1,0,0,0-.55.9v14.18a1,1,0,0,0,.47.85,1,1,0,0,0,.53.15,1,1,0,0,0,.44-.1l7.09-3.46a1,1,0,0,0,.56-.9V204.58A1,1,0,0,0,290.54,203.73ZM289,218.23l-5.09,2.48v-12L289,206.2Z" style="fill: #767776"/>
          <polygon points="318.62 157.88 323.71 155.4 323.71 143.37 318.62 145.92 318.62 157.88" style="fill: #fff"/>
          <path d="M325.24,140.9a1,1,0,0,0-1,0l-7.09,3.55a1,1,0,0,0-.56.89v14.18a1,1,0,0,0,.47.85,1,1,0,0,0,.53.15,1,1,0,0,0,.44-.1l7.09-3.46a1,1,0,0,0,.56-.9V141.75A1,1,0,0,0,325.24,140.9Zm-1.53,14.5-5.09,2.48v-12l5.09-2.55Z" style="fill: #767776"/>
          <polygon points="318.62 203.48 323.71 201 323.71 188.97 318.62 191.52 318.62 203.48" style="fill: #fff"/>
          <path d="M325.24,186.5a1,1,0,0,0-1,0L317.18,190a1,1,0,0,0-.56.89v14.18a1,1,0,0,0,.47.85,1,1,0,0,0,.53.15,1,1,0,0,0,.44-.1l7.09-3.46a1,1,0,0,0,.56-.9V187.35A1,1,0,0,0,325.24,186.5ZM323.71,201l-5.09,2.48v-12l5.09-2.55Z" style="fill: #767776"/>
          <polygon points="329.98 152.24 335.07 149.75 335.07 137.73 329.98 140.27 329.98 152.24" style="fill: #fff"/>
          <path d="M336.59,135.26a1,1,0,0,0-1,0l-7.09,3.55a1,1,0,0,0-.55.89v14.19a1,1,0,0,0,.47.85,1,1,0,0,0,.53.15,1,1,0,0,0,.43-.1l7.1-3.47a1,1,0,0,0,.56-.9V136.11A1,1,0,0,0,336.59,135.26Zm-1.52,14.49L330,152.24v-12l5.09-2.54Z" style="fill: #767776"/>
          <path d="M336.59,180.86a1,1,0,0,0-1-.05l-7.09,3.55a1,1,0,0,0-.55.89v14.19a1,1,0,0,0,.47.84.92.92,0,0,0,.53.16,1,1,0,0,0,.43-.1l7.1-3.47a1,1,0,0,0,.56-.9V181.71A1,1,0,0,0,336.59,180.86Z" style="fill: #767776"/>
          <polygon points="353.21 140.45 358.3 137.97 358.3 125.94 353.21 128.49 353.21 140.45" style="fill: #fff"/>
          <path d="M359.82,123.47a1,1,0,0,0-1,0L351.76,127a1,1,0,0,0-.55.9v14.18a1,1,0,0,0,.47.85,1,1,0,0,0,.53.15.91.91,0,0,0,.43-.1l7.1-3.46a1,1,0,0,0,.56-.9V124.32A1,1,0,0,0,359.82,123.47ZM358.3,138l-5.09,2.48v-12l5.09-2.55Z" style="fill: #767776"/>
          <path d="M348.35,128.92a1,1,0,0,0-1,0l-7.09,3.55a1,1,0,0,0-.56.89V147.5a1,1,0,0,0,.47.85,1,1,0,0,0,.53.15,1.13,1.13,0,0,0,.44-.1l7.09-3.47a1,1,0,0,0,.56-.9V129.77A1,1,0,0,0,348.35,128.92Z" style="fill: #767776"/>
          <polygon points="353.21 186.05 358.3 183.56 358.3 171.54 353.21 174.09 353.21 186.05" style="fill: #fff"/>
          <path d="M359.82,169.07a1,1,0,0,0-1,0l-7.09,3.54a1,1,0,0,0-.55.9v14.18a1,1,0,0,0,.47.85,1,1,0,0,0,.53.15.91.91,0,0,0,.43-.1l7.1-3.46a1,1,0,0,0,.56-.9V169.92A1,1,0,0,0,359.82,169.07Zm-1.52,14.49-5.09,2.49v-12l5.09-2.55Z" style="fill: #767776"/>
          <polygon points="341.73 191.5 346.82 189.01 346.82 176.99 341.73 179.53 341.73 191.5" style="fill: #fff"/>
          <path d="M348.35,174.52a1,1,0,0,0-1-.05L340.29,178a1,1,0,0,0-.56.89V193.1a1,1,0,0,0,.47.85,1,1,0,0,0,.53.15,1.13,1.13,0,0,0,.44-.1l7.09-3.47a1,1,0,0,0,.56-.9V175.37A1,1,0,0,0,348.35,174.52ZM346.82,189l-5.09,2.49v-12l5.09-2.54Z" style="fill: #767776"/>
          <polygon points="203.09 239.1 204.5 237.26 97.92 183.26 96.49 185.09 203.09 239.1" style="fill: #fff"/>
          <polygon points="208.29 232.28 209.84 230.25 103.36 176.31 101.79 178.33 208.29 232.28" style="fill: #fff"/>
          <path d="M205.73,235.64l1.33-1.74L100.6,180l-.06-.05-1.36,1.74Z" style="fill: #fff"/>
          <polygon points="200.54 242.45 201.86 240.72 95.24 186.7 93.89 188.42 200.54 242.45" style="fill: #fff"/>
          <polygon points="107.3 171.27 213.71 225.18 215.14 223.29 108.59 169.63 107.3 171.27" style="fill: #fff"/>
          <polygon points="211.07 228.64 212.47 226.79 106.05 172.88 104.62 174.71 211.07 228.64" style="fill: #fff"/>
          <polygon points="199.31 244.06 92.64 190.02 91.55 191.42 197.61 246.29 199.31 244.06" style="fill: #fff"/>
        </g>
      </g>
    </g>
  </g>
</svg>
