<svg xmlns="http://www.w3.org/2000/svg" viewBox="0 0 143.03 143.03"><title>chat</title><g id="Layer_2" data-name="Layer 2"><g id="Layer_1-2" data-name="Layer 1"><path d="M42.18,67.32h8.91A54.24,54.24,0,0,1,92.26,42.4C90.24,18.84,70.45,0,46.37,0A46.63,46.63,0,0,0,0,46.37,45.73,45.73,0,0,0,8.27,72.72,31.26,31.26,0,0,1,4,86.12L.14,92.46H12.57a21.71,21.71,0,0,0,13.5-4.7,46,46,0,0,0,16.34,4.48A53.65,53.65,0,0,1,46.59,75.7H42.18ZM38,33.8H29.61A16.76,16.76,0,1,1,50.56,50v8.91H42.18V42.18h4.19A8.38,8.38,0,1,0,38,33.8Z" style="fill:#95c93d"/><path d="M134.47,123.28A46.79,46.79,0,0,0,143,96.65c0-25.41-21-46.09-46.38-46.09A46.15,46.15,0,0,0,50.56,96.65c0,25.42,20.68,46.38,46.09,46.38A46.1,46.1,0,0,0,117,138.32,20.93,20.93,0,0,0,130.18,143h12.71l-3.81-6.35A31.49,31.49,0,0,1,134.47,123.28ZM84.08,100.85H75.7V92.46h8.38Zm16.77,0H92.46V92.46h8.39Zm16.76,0h-8.38V92.46h8.38Z" style="fill:#95c93d"/></g></g></svg>