<svg xmlns="http://www.w3.org/2000/svg" width="78.755" height="74.939" viewBox="0 0 78.755 74.939"><defs><style>.a{fill:none;}.a,.b{stroke:#d0d0d0;stroke-miterlimit:10;stroke-width:2px;}.b{fill:#fff;}</style></defs><g transform="translate(-7231.581 -2268.671)"><g transform="translate(7232.581 2269.671)"><rect class="a" width="55.229" height="72.939" rx="7.679"/><circle class="a" cx="2.485" cy="2.485" r="2.485" transform="translate(8.153 4.96)"/><path class="a" d="M4.978,0h0A4.978,4.978,0,0,1,9.956,4.978v0a0,0,0,0,1,0,0H0a0,0,0,0,1,0,0v0A4.978,4.978,0,0,1,4.978,0Z" transform="translate(5.66 12.422)"/><rect class="a" width="30.324" height="12.439" rx="3.829" transform="translate(19.637 4.96)"/><rect class="a" width="44.301" height="5.659" rx="2.83" transform="translate(5.66 23.079)"/><rect class="a" width="44.301" height="5.659" rx="2.83" transform="translate(5.66 32.743)"/><rect class="a" width="44.301" height="5.659" rx="2.83" transform="translate(5.66 42.407)"/><rect class="a" width="44.301" height="5.659" rx="2.83" transform="translate(5.66 52.071)"/><rect class="a" width="44.301" height="5.659" rx="2.83" transform="translate(5.66 61.735)"/></g><path class="b" d="M7330,2320.949l-18.622-18.622a2.851,2.851,0,0,0-4.033,0l-18.621,18.622a2.851,2.851,0,0,0,2.016,4.868h10.477v17.91a2.911,2.911,0,0,0,2.911,2.911h10.47a2.91,2.91,0,0,0,2.911-2.911v-17.91h10.476A2.851,2.851,0,0,0,7330,2320.949Z" transform="translate(-21.552 -12.401)"/></g></svg>