<svg xmlns="http://www.w3.org/2000/svg" viewBox="0 0 211.06 59.83"><defs><style>.cls-1{fill:#fff;}</style></defs><title>logo_white</title><g id="Layer_2" data-name="Layer 2"><g id="Layer_1-2" data-name="Layer 1"><path class="cls-1" d="M15.08,22.88V34.64a5.21,5.21,0,0,0,.85,3.25A3.68,3.68,0,0,0,19,39a10.22,10.22,0,0,0,1.6-.13A5.54,5.54,0,0,0,22,38.48l.13,7.39a16.26,16.26,0,0,1-2.7.65,19,19,0,0,1-3.27.28A15.75,15.75,0,0,1,10.87,46,8.19,8.19,0,0,1,7.45,43.8a8.71,8.71,0,0,1-1.86-3.46A16.8,16.8,0,0,1,5,35.86v-13H0V15.35H5V7.28H15.08v8.07h7.35v7.53Z"/><path class="cls-1" d="M57.31,31.08v1.23a10.9,10.9,0,0,1-.06,1.17H34.57a5.2,5.2,0,0,0,.78,2.34,6.68,6.68,0,0,0,1.7,1.82,7.86,7.86,0,0,0,2.32,1.2,8.3,8.3,0,0,0,2.67.44,8.75,8.75,0,0,0,4.15-.9A8.14,8.14,0,0,0,49,36.07l7.16,4.44a14.4,14.4,0,0,1-5.81,4.84,19.58,19.58,0,0,1-8.39,1.7A20.31,20.31,0,0,1,35.26,46a16.17,16.17,0,0,1-5.5-3.15,14.53,14.53,0,0,1-3.71-5.08,16.81,16.81,0,0,1-1.35-6.91A17,17,0,0,1,26,24a15.24,15.24,0,0,1,3.58-5.18,16,16,0,0,1,5.34-3.3,18.61,18.61,0,0,1,6.66-1.17A17.16,17.16,0,0,1,48,15.51a13.87,13.87,0,0,1,5,3.3,15.1,15.1,0,0,1,3.23,5.24A19.71,19.71,0,0,1,57.31,31.08Zm-9.49-3.89a6,6,0,0,0-1.53-4.13,5.89,5.89,0,0,0-4.62-1.73,7.93,7.93,0,0,0-2.77.47,7.1,7.1,0,0,0-2.2,1.26,6.36,6.36,0,0,0-1.51,1.88,5.5,5.5,0,0,0-.62,2.25Z"/><path class="cls-1" d="M84.38,25.28A6.3,6.3,0,0,0,82,23.49a7.48,7.48,0,0,0-3.08-.68,6.62,6.62,0,0,0-3,.65,7.18,7.18,0,0,0-2.27,1.73,8.09,8.09,0,0,0-1.47,2.5,8.38,8.38,0,0,0-.54,3,8.87,8.87,0,0,0,.51,3,7.31,7.31,0,0,0,1.47,2.5A7.16,7.16,0,0,0,76,37.92a7.29,7.29,0,0,0,3.05.62A8.75,8.75,0,0,0,82.15,38a6,6,0,0,0,2.48-1.69l5.72,6.84a13.6,13.6,0,0,1-5,2.9,20.08,20.08,0,0,1-6.53,1,21.07,21.07,0,0,1-6.93-1.11,16.12,16.12,0,0,1-5.58-3.24,15.2,15.2,0,0,1-3.73-5.15,16.41,16.41,0,0,1-1.36-6.84,16.34,16.34,0,0,1,1.36-6.79,15.2,15.2,0,0,1,3.73-5.15,16.65,16.65,0,0,1,5.58-3.26,20.36,20.36,0,0,1,6.86-1.14,18,18,0,0,1,3.36.31,22.2,22.2,0,0,1,3.21.83,15.25,15.25,0,0,1,2.83,1.29,12.34,12.34,0,0,1,2.23,1.7Z"/><path class="cls-1" d="M115.58,46.06V41.8h-.12a8.81,8.81,0,0,1-1.48,2,9.42,9.42,0,0,1-2.14,1.6,13.39,13.39,0,0,1-2.7,1.11,10.92,10.92,0,0,1-3.11.43,11.52,11.52,0,0,1-5.31-1.11A10.2,10.2,0,0,1,97.2,43a11.35,11.35,0,0,1-2-4,17.75,17.75,0,0,1-.59-4.6v-19H105V32a16.28,16.28,0,0,0,.19,2.47,6,6,0,0,0,.73,2.09A3.85,3.85,0,0,0,107.35,38a4.5,4.5,0,0,0,2.32.53,4.73,4.73,0,0,0,4.12-2,7.72,7.72,0,0,0,1.41-4.62V15.35h10.31V46.06Z"/><path class="cls-1" d="M144.27,5.55a5.22,5.22,0,0,1-.47,2.19,5.72,5.72,0,0,1-1.26,1.76,5.87,5.87,0,0,1-1.88,1.17,6.22,6.22,0,0,1-2.3.43,5.87,5.87,0,0,1-4.21-1.63,5.25,5.25,0,0,1-1.69-3.92,5.21,5.21,0,0,1,.44-2.13,5.1,5.1,0,0,1,1.25-1.76A7.07,7.07,0,0,1,136,.46,5.72,5.72,0,0,1,138.36,0a6.22,6.22,0,0,1,2.3.43,5.87,5.87,0,0,1,1.88,1.17,5.72,5.72,0,0,1,1.26,1.76A5.22,5.22,0,0,1,144.27,5.55ZM133.21,46.06V15.35h10.31V46.06Z"/><path class="cls-1" d="M162.26,22.88V34.64a5.21,5.21,0,0,0,.85,3.25,3.67,3.67,0,0,0,3,1.08,10.22,10.22,0,0,0,1.6-.13,5.65,5.65,0,0,0,1.41-.36l.13,7.39a16.26,16.26,0,0,1-2.7.65,19,19,0,0,1-3.27.28,15.75,15.75,0,0,1-5.28-.77,8.12,8.12,0,0,1-3.42-2.23,8.71,8.71,0,0,1-1.86-3.46,16.4,16.4,0,0,1-.56-4.48v-13h-5V15.35h5V7.28h10.12v8.07h7.35v7.53Z"/><polygon class="cls-1" points="181.15 59.83 191.86 59.83 209.39 15.35 198.46 15.35 192.24 35.08 192.05 35.08 185.07 15.35 173.63 15.35 186.71 45.57 181.15 59.83"/><path class="cls-1" d="M204.28,43h-1.06v-.76h3V43h-1.06v2.74h-.88Zm2.62-.76h1.23l.85,2.28.85-2.28h1.23v3.5h-.88V43.47h0l-.87,2.28h-.61l-.88-2.28h0v2.28h-.89Z"/></g></g></svg>