<svg xmlns="http://www.w3.org/2000/svg" viewBox="0 0 238.81 108.59"><title>panels-1</title><g id="Layer_2" data-name="Layer 2"><g id="Layer_1-2" data-name="Layer 1"><path d="M.74,20.9,36.28,38.67a7.05,7.05,0,0,0,6.3,0L78.15,20.89a1.33,1.33,0,0,0,0-2.38L42.58.74a7.05,7.05,0,0,0-6.3,0L.74,18.52A1.32,1.32,0,0,0,.74,20.9Z" style="fill:#95c93d"/><path d="M33.63,56.76,134.27,6.45a19.93,19.93,0,0,1,17.84,0l83.61,42a3.77,3.77,0,0,1,0,6.75L135,105.49a19.93,19.93,0,0,1-17.84,0l-83.54-42A3.77,3.77,0,0,1,33.63,56.76Z" style="fill:#fff;stroke:#95c93d;stroke-miterlimit:10;stroke-width:2px"/></g></g></svg>