<svg xmlns="http://www.w3.org/2000/svg" viewBox="0 0 311.07 167.39"><title>panels-2</title><g id="Layer_2" data-name="Layer 2"><g id="Layer_1-2" data-name="Layer 1"><path d="M11.73,70.87l156.6,78.31a31.07,31.07,0,0,0,27.78,0L306.82,93.06a5.88,5.88,0,0,0,0-10.51L150.09,4.27a31.06,31.06,0,0,0-27.76,0L11.73,60.37A5.87,5.87,0,0,0,11.73,70.87Z" style="fill:#fff;stroke:#95c93d;stroke-miterlimit:10;stroke-width:2px"/><path d="M2.42,127.42l76,37.53a23.19,23.19,0,0,0,20.7,0L215.9,106.56a4.37,4.37,0,0,0,0-7.83L139.84,61.22a23.17,23.17,0,0,0-20.69,0L2.42,119.59A4.37,4.37,0,0,0,2.42,127.42Z" style="fill:#95c93d"/></g></g></svg>