<svg xmlns="http://www.w3.org/2000/svg" viewBox="0 0 274.44 227.22"><title>pub-sub-animation</title><g id="Layer_2" data-name="Layer 2"><g id="Layer_1-2" data-name="Layer 1"><rect x="1" y="24.16" width="272.44" height="41.29" rx="7.04" style="fill:#fff;stroke:#f5771f;stroke-miterlimit:10;stroke-width:2px"/><path d="M1,202.33V126.68a7,7,0,0,1,7-7H109.92a7,7,0,0,1,7,7v75.65" style="fill:none;stroke:#f5771f;stroke-miterlimit:10;stroke-width:2px"/><path d="M157.48,202.33V126.68a7,7,0,0,1,7-7H266.41a7,7,0,0,1,7,7v75.65" style="fill:none;stroke:#f5771f;stroke-miterlimit:10;stroke-width:2px"/><text transform="translate(1 17.01)" style="font-size:20.267658233642578px;fill:#3d4543;font-family:Hind-Regular, Hind">Full Name</text><text transform="translate(19.39 221.51)" style="font-size:13px;fill:#3d4543;font-family:Hind-Regular, Hind">Dept. of Labor</text><text transform="translate(167.6 221.51)" style="font-size:13px;fill:#3d4543;font-family:Hind-Regular, Hind">Dept. of Revenue</text><text id="Input-Text" transform="translate(13.31 51.06)" style="font-size:20.092309951782227px;fill:#3d4543;font-family:Hind-Regular, Hind">Tony Stark</text><text id="labor-text" transform="translate(27.2 183.91)" style="font-size:14px;fill:#3d4543;font-family:Hind-Regular, Hind">Tony Stark</text><line id="Caret" x1="108.75" y1="31.74" x2="108.75" y2="57.51" style="fill:none;stroke:#3d4543;stroke-miterlimit:10"/><rect x="13.23" y="135.16" width="31.92" height="31.92" rx="1.5" style="fill:#f5771f;opacity:0.6"/><rect x="52.47" y="135.16" width="52.07" height="12.8" rx="1.5" style="fill:#f5771f;opacity:0.6"/><rect x="52.47" y="154.28" width="52.07" height="12.8" rx="1.5" style="fill:#f5771f;opacity:0.6"/><text id="revenue-text" transform="translate(184.07 144.72)" style="font-size:14px;fill:#3d4543;font-family:Hind-Regular, Hind">Tony Stark</text><rect x="170.1" y="153.34" width="31.92" height="31.92" rx="1.5" style="fill:#f5771f;opacity:0.6"/><rect x="209.34" y="153.34" width="52.07" height="12.8" rx="1.5" style="fill:#f5771f;opacity:0.6"/><rect x="209.34" y="172.46" width="52.07" height="12.8" rx="1.5" style="fill:#f5771f;opacity:0.6"/><path d="M60.2,119.64h0A18.62,18.62,0,0,1,78.82,101H108.6A18.62,18.62,0,0,0,127.22,82.4V65.46" style="fill:none;stroke:#f5771f;stroke-miterlimit:10;stroke-width:2px"/><path d="M215.46,119.64h0A18.62,18.62,0,0,0,196.84,101H167.07A18.63,18.63,0,0,1,148.44,82.4V65.46" style="fill:none;stroke:#f5771f;stroke-miterlimit:10;stroke-width:2px"/></g></g></svg>
