<svg xmlns="http://www.w3.org/2000/svg" width="951.13" height="433.83" viewBox="0 0 951.13 433.83"><defs><style>.a,.c,.m,.n,.o{fill:none;}.a,.c{stroke:#c0dd7a;stroke-width:2.71px;}.a,.c,.j,.k,.l,.m,.n,.o{stroke-linecap:round;}.a,.c,.f,.j,.k,.l,.m,.n,.o{stroke-linejoin:round;}.a{stroke-dasharray:9;}.b{opacity:0.8;}.d{opacity:0.75;}.e,.h,.k,.l{fill:#95c93d;}.e,.f{stroke:#bfe576;}.e,.g{stroke-miterlimit:10;stroke-width:4px;}.f,.g,.i{fill:#bfe576;}.f{stroke-width:3px;}.g,.j,.k,.n,.o{stroke:#95c93d;}.j{fill:#fff;}.j,.k,.n,.o{stroke-width:3.17px;}.l,.m{stroke:#fff;}.l{stroke-width:3.1px;}.m{stroke-width:2px;stroke-dasharray:4.17 4.17;}.o{stroke-dasharray:6.07 6.07;}</style></defs><g transform="translate(-21.725 -18.085)"><path class="a" d="M479.63,198.135a182.362,182.362,0,0,1,36.609-.109c65.994,6.162,121.8,42.593,180.711,69.722,16.278,7.751,31.78,15.5,48.833,20.455,9.782,3.5,19.641,6.72,29.555,9.588,59.475,17.223,120.918,21.812,180.068-2.263a137.889,137.889,0,0,0,21.843-12.278c13.665-9.5,25.1-21.7,32.074-37.206,10.077-24.029-1.55-53.483-24.8-65.335" transform="translate(-102.67 -36.267)"/><path class="a" d="M74.51,359.792c12.007-17.611,29.834-30.013,47.22-42.143q6.86-4.209,13.952-7.883A156.572,156.572,0,0,1,165.261,298" transform="translate(-11.566 -62.643)"/><g class="b" transform="translate(23.08 19.44)"><circle class="c" cx="5.434" cy="5.434" r="5.434" transform="translate(156.078 6.775)"/><circle class="c" cx="5.434" cy="5.434" r="5.434" transform="translate(937.553 255.332)"/><circle class="c" cx="11.379" cy="11.379" r="11.379" transform="translate(391.737)"/><circle class="c" cx="7.108" cy="7.108" r="7.108" transform="translate(280.795 78.062)"/><circle class="c" cx="6.775" cy="6.775" r="6.775" transform="translate(329.495 231.419)"/><circle class="c" cx="6.775" cy="6.775" r="6.775" transform="translate(871.303 2.759)"/><circle class="c" cx="10.534" cy="10.534" r="10.534" transform="translate(485.195 276.97)"/><circle class="c" cx="10.534" cy="10.534" r="10.534" transform="translate(145.598 276.19)"/><circle class="c" cx="7.162" cy="7.162" r="7.162" transform="translate(607.259 33.322)"/><circle class="c" cx="7.162" cy="7.162" r="7.162" transform="translate(5.767 297.638)"/><circle class="c" cx="7.162" cy="7.162" r="7.162" transform="translate(97.298 374.833)"/><circle class="c" cx="6.821" cy="6.821" r="6.821" transform="translate(815.828 327.116)"/><circle class="c" cx="7.519" cy="7.519" r="7.519" transform="translate(450.809 60.986)"/><circle class="c" cx="7.519" cy="7.519" r="7.519" transform="translate(895.23 416.082)"/><circle class="c" cx="6.48" cy="6.48" r="6.48" transform="translate(0 22.765)"/><circle class="c" cx="15.363" cy="15.363" r="15.363" transform="translate(53.196 108.648)"/><circle class="c" cx="15.363" cy="15.363" r="15.363" transform="translate(613.638 171.232)"/></g><g class="d" transform="translate(697.041 98.843)"><circle class="e" cx="68.358" cy="68.358" r="68.358" transform="translate(49.341 0)"/><path class="f" d="M1074.453,225.482c-19.138-1.046-41.973-3.5-66.366-7.364a665.329,665.329,0,0,1-66.156-13.673c-30.687-8.185-50.305-16.9-49.321-23.106s22.757-8.526,55.033-6.713c-.264.62-.527,1.24-.775,1.868-26.3-1.55-43.616-.24-44.329,4.232s14.789,10.852,39.531,17.347c18.262,4.8,41.562,9.627,67.087,13.665,25.191,3.992,48.554,6.565,67.28,7.65,25.935,1.511,42.973.155,43.678-4.271s-15.665-11.208-41.577-17.89c-.039-.674-.1-1.341-.163-2.008,31.633,8.3,51.933,17.223,50.964,23.54S1106.6,227.241,1074.453,225.482Z" transform="translate(-892.574 -133.607)"/><path class="f" d="M1103.509,243.4c-2.217,3.6-13.9.907-30.935-6.34-16.65-7.085-38.415-18.525-61.482-32.71-21.556-13.262-40.477-26.587-54.158-37.795-15.921-13.053-24.75-23.254-22.393-27.052s15.665-.481,34.78,8.007c-.372.388-.721.775-1.077,1.186-14.549-6.5-24.308-9.177-25.943-6.519s4.922,9.9,16.882,19.688c12.983,10.635,32.377,24.2,54.708,37.927,23.959,14.727,46.236,26.54,61.823,33.129,12.3,5.209,20.417,7.162,21.9,4.759s-4.155-9.022-14.727-17.913c.2-.5.4-.984.6-1.48C1097.889,230.437,1105.741,239.792,1103.509,243.4Z" transform="translate(-901.927 -125.493)"/><circle class="g" cx="10.828" cy="10.828" r="10.828" transform="translate(141.867 23.641)"/><circle class="g" cx="5.418" cy="5.418" r="5.418" transform="translate(105.986 47.329)"/><circle class="g" cx="5.418" cy="5.418" r="5.418" transform="translate(86.36 108.912)"/><circle class="g" cx="4.062" cy="4.062" r="4.062" transform="translate(86.368 19.58)"/><circle class="g" cx="7.441" cy="7.441" r="7.441" transform="translate(135.774 108.245)"/><circle class="e" cx="10.828" cy="10.828" r="10.828" transform="translate(58.619 63.575)"/><circle class="e" cx="6.092" cy="6.092" r="6.092" transform="translate(201.427 62.219)"/><circle class="e" cx="7.441" cy="7.441" r="7.441" transform="translate(28.839 8.077)"/></g><g class="d" transform="translate(135.271 154.417)"><path class="h" d="M241.5,262.586c-.434-.2-.86-.411-1.279-.636a6.854,6.854,0,0,1,1.4,1.015Z" transform="translate(-184.101 -208.953)"/><path class="i" d="M204.739,256.493a53.752,53.752,0,0,0-5.922,6.6,31.7,31.7,0,0,1-5.984,6.077c-1.992,1.418-5.837,3.294-8.364,2.814,5.348,1.023,10.456-.411,15.123-3.449,3.411-2.217,7.751-6.612,12.208-5.55a3.961,3.961,0,0,1,3.193,3.155c.279,2.279-1.946,4.651-4.55,5.79a20.285,20.285,0,0,1-6.434,1.4,85.209,85.209,0,0,0-22.633,4.914c-5.488,2.108-11.751,5.48-13.557,10.627,3.023-7.867,17.053-8.728,20.758-4.108s-.775,10.72-9.511,9.5c1.55.209,2.86.868,4.449,1.015a17.894,17.894,0,0,0,4.449-.171,24.973,24.973,0,0,0,8.162-3.1,57.578,57.578,0,0,0,7.061-4.914c2.248-1.783,4.488-4.155,7.054-5.55a6.038,6.038,0,0,1,4.713-.659,3.48,3.48,0,0,1,2.108,3.876c-.388,3.038-3.434,5.759-6.829,7.193-3.821,1.62-7.929,1.3-11.673,2.736a16.278,16.278,0,0,0-4.48,2.194c-1.085.86-1.225,1.674-1.884,2.666,2.767-4.147,8.271-3.17,12.534-2.814,5.62.473,11.425.868,15.7-3.829.837-.915,1.752-2.07,3.046-2.124a1.884,1.884,0,0,1,1.938,1.55c.543,3.193-3.139,6.806-6.581,8.115a36.43,36.43,0,0,0,17.053-8.015L232.132,281.1a4.582,4.582,0,0,1-1.511.217,5.534,5.534,0,0,1-3.628-1.915,13.682,13.682,0,0,0-4.4-3.015,18.6,18.6,0,0,0-5.782-1.488c6.2-1.333,9.735-5.255,10.3-8.945l-4.852-14.642a32.406,32.406,0,0,0-7.852.713A19.975,19.975,0,0,0,204.739,256.493Z" transform="translate(-167.82 -206.558)"/><path class="h" d="M213.677,260.519l-.178.054c18.905-1.155,18.866,12.774,5.372,14.464-15.743,1.969-19.076,3.542-22.06,5.612,7.534-1.728,13.549,2.465,6.5,9.131,3.139-.419,9.2-5.984,13.882-10.48s11.759,2.736,10.2,8.069c-1.6,5.48-5.511,7.24-12.216,8.526,3.147.194,8.371,1.4,13.472-6.48,2.945-4.534,9.619-.093,8.162,4.255A20.067,20.067,0,0,0,241.248,290l-2.581-7.805a4.579,4.579,0,0,1-1.511.217,5.534,5.534,0,0,1-3.628-1.915,13.682,13.682,0,0,0-4.4-3.015,18.6,18.6,0,0,0-5.782-1.488c6.2-1.333,9.735-5.255,10.3-8.945L230.117,256.4C223.924,255.628,217.351,257.17,213.677,260.519Z" transform="translate(-174.339 -207.661)"/><path class="j" d="M250.028,296.093,232.89,245.92l11.689,2.6,13.107,38.368Z" transform="translate(-182.453 -205.348)"/><path class="j" d="M256.278,292.722,240.21,245.68l10.41,2.473L263.006,284.4Z" transform="translate(-184.099 -205.294)"/><path class="j" d="M262.494,289.371,247.48,245.43l9.208,2.349,11.65,34.1Z" transform="translate(-185.734 -205.238)"/><path class="k" d="M423.286,198.687S345.4,174.225,253.38,232.343l14.929,43.724C376.655,265.7,423.286,198.687,423.286,198.687Z" transform="translate(-187.061 -193.577)"/><circle class="l" cx="12.557" cy="12.557" r="12.557" transform="translate(162.806 13.35)"/><circle class="m" cx="9.255" cy="9.255" r="9.255" transform="translate(163.881 32.198) rotate(-73.75)"/><path class="j" d="M462.35,198.729s-13.247-4.155-35.26-4.969l10.41,30.478C454.413,210.123,462.35,198.729,462.35,198.729Z" transform="translate(-226.125 -193.618)"/><line class="n" x2="0.884" y2="2.581" transform="translate(205.337 0.351)"/><line class="o" x2="5.325" y2="15.572" transform="translate(207.74 7.381)"/><line class="n" x2="0.876" y2="2.581" transform="translate(213.824 25.178)"/><path class="k" d="M317.767,282.22,272.12,324.906l.4-29.369Z" transform="translate(-191.275 -213.511)"/><path class="k" d="M291.321,218.646,228.97,214.36l18.859,22.517Z" transform="translate(-181.571 -198.251)"/></g></g></svg>