<svg xmlns="http://www.w3.org/2000/svg" width="502.178" height="183.751" viewBox="0 0 502.178 183.751"><defs><style>.a,.c,.n,.p,.q{fill:none;}.a,.c{stroke:#c0dd7a;}.a,.c,.k,.l,.m,.n,.o,.p,.q{stroke-linecap:round;}.a,.c,.f,.k,.l,.m,.n,.o,.p,.q{stroke-linejoin:round;}.a,.h,.l,.o{stroke-width:2px;}.a{stroke-dasharray:8;}.b{opacity:0.8;}.c{stroke-width:2.71px;}.d{opacity:0.75;}.e,.h,.i,.l,.m{fill:#95c93d;}.e,.f,.h{stroke:#bfe576;}.e,.g,.h{stroke-miterlimit:10;}.e{stroke-width:4px;}.f,.g,.j{fill:#bfe576;}.f{stroke-width:3px;}.g,.k,.l,.o,.p,.q{stroke:#95c93d;}.k,.o{fill:#fff;}.k{stroke-width:1.17px;}.m,.n{stroke:#fff;}.m,.p,.q{stroke-width:1.5px;}.n{stroke-dasharray:1.17 2.17;}.q{stroke-dasharray:6.07 6.07;}</style></defs><g transform="translate(-21.725 -18.085)"><path class="a" d="M479.63,189.886a96.038,96.038,0,0,1,19.279-.057c34.754,3.245,64.145,22.431,95.168,36.718,8.572,4.082,16.736,8.164,25.717,10.772,5.151,1.841,10.344,3.539,15.565,5.049,31.321,9.07,63.68,11.487,94.829-1.192a72.619,72.619,0,0,0,11.5-6.466c7.2-5,13.218-11.43,16.891-19.594,5.307-12.654-.816-28.166-13.062-34.407" transform="translate(-270.185 -95.439)"/><path class="a" d="M74.51,330.542c6.323-9.274,15.712-15.806,24.868-22.194q3.613-2.217,7.348-4.151A82.455,82.455,0,0,1,122.3,298" transform="translate(-30.436 -164.851)"/><g class="b" transform="translate(23.08 19.44)"><circle class="c" cx="2.861" cy="2.861" r="2.861" transform="translate(82.196 3.568)"/><circle class="c" cx="2.861" cy="2.861" r="2.861" transform="translate(493.745 134.466)"/><circle class="c" cx="5.992" cy="5.992" r="5.992" transform="translate(206.301)"/><circle class="c" cx="3.743" cy="3.743" r="3.743" transform="translate(147.875 41.11)"/><circle class="c" cx="3.568" cy="3.568" r="3.568" transform="translate(173.523 121.873)"/><circle class="c" cx="3.568" cy="3.568" r="3.568" transform="translate(458.856 1.453)"/><circle class="c" cx="5.547" cy="5.547" r="5.547" transform="translate(255.519 145.861)"/><circle class="c" cx="5.547" cy="5.547" r="5.547" transform="translate(76.677 145.451)"/><circle class="c" cx="3.772" cy="3.772" r="3.772" transform="translate(319.802 17.549)"/><circle class="c" cx="3.772" cy="3.772" r="3.772" transform="translate(3.037 156.746)"/><circle class="c" cx="3.772" cy="3.772" r="3.772" transform="translate(150.24 164.399)"/><circle class="c" cx="3.592" cy="3.592" r="3.592" transform="translate(429.641 172.27)"/><circle class="c" cx="3.96" cy="3.96" r="3.96" transform="translate(237.411 32.117)"/><circle class="c" cx="3.96" cy="3.96" r="3.96" transform="translate(327.457 173.122)"/><circle class="c" cx="3.413" cy="3.413" r="3.413" transform="translate(0 11.989)"/><circle class="c" cx="8.091" cy="8.091" r="8.091" transform="translate(28.015 57.218)"/><circle class="c" cx="8.091" cy="8.091" r="8.091" transform="translate(323.162 90.176)"/></g><g class="d" transform="translate(378.01 61.256)"><circle class="e" cx="35.999" cy="35.999" r="35.999" transform="translate(25.984 0)"/><path class="f" d="M988.357,201.124c-10.079-.551-22.1-1.845-34.95-3.878a350.376,350.376,0,0,1-34.84-7.2c-16.161-4.311-26.492-8.9-25.974-12.169s11.985-4.49,28.982-3.535c-.139.327-.278.653-.408.984-13.85-.816-22.97-.127-23.345,2.229s7.789,5.715,20.818,9.136c9.617,2.527,21.888,5.07,35.33,7.2,13.267,2.1,25.57,3.458,35.432,4.029,13.658.8,22.631.082,23-2.249s-8.25-5.9-21.9-9.421c-.02-.355-.053-.706-.086-1.057,16.659,4.372,27.35,9.07,26.839,12.4S1005.29,202.051,988.357,201.124Z" transform="translate(-892.574 -152.74)"/><path class="f" d="M1023.346,193.485c-1.167,1.9-7.319.478-16.291-3.339a259.538,259.538,0,0,1-32.379-17.226,269.52,269.52,0,0,1-28.521-19.9c-8.384-6.874-13.034-12.246-11.793-14.246s8.25-.253,18.316,4.217c-.2.2-.38.408-.567.625-7.662-3.421-12.8-4.833-13.663-3.433s2.592,5.213,8.891,10.368a276.512,276.512,0,0,0,28.811,19.973c12.618,7.756,24.349,13.977,32.558,17.447,6.478,2.743,10.752,3.772,11.532,2.506s-2.188-4.751-7.756-9.434c.106-.261.212-.518.314-.78C1020.387,186.655,1024.522,191.582,1023.346,193.485Z" transform="translate(-917.187 -131.389)"/><circle class="g" cx="5.703" cy="5.703" r="5.703" transform="translate(74.712 12.45)"/><circle class="g" cx="2.853" cy="2.853" r="2.853" transform="translate(55.816 24.925)"/><circle class="g" cx="2.853" cy="2.853" r="2.853" transform="translate(45.48 57.357)"/><circle class="g" cx="2.139" cy="2.139" r="2.139" transform="translate(45.484 10.311)"/><circle class="g" cx="3.919" cy="3.919" r="3.919" transform="translate(71.503 57.005)"/><circle class="h" cx="5.703" cy="5.703" r="5.703" transform="translate(30.871 33.481)"/><circle class="h" cx="3.208" cy="3.208" r="3.208" transform="translate(106.078 32.766)"/><circle class="h" cx="3.919" cy="3.919" r="3.919" transform="translate(15.187 4.253)"/></g><g class="d" transform="translate(82.163 90.523)"><path class="i" d="M240.894,262.285c-.229-.106-.453-.216-.674-.335a3.61,3.61,0,0,1,.739.535Z" transform="translate(-210.666 -234.04)"/><path class="j" d="M187.263,254.035a28.311,28.311,0,0,0-3.119,3.474,16.693,16.693,0,0,1-3.151,3.2c-1.049.747-3.074,1.735-4.4,1.482a10.677,10.677,0,0,0,7.964-1.816c1.8-1.167,4.082-3.482,6.429-2.923a2.086,2.086,0,0,1,1.682,1.661c.147,1.2-1.025,2.449-2.4,3.049a10.682,10.682,0,0,1-3.388.739,44.874,44.874,0,0,0-11.919,2.588c-2.89,1.11-6.188,2.886-7.139,5.6,1.592-4.143,8.98-4.6,10.932-2.164s-.408,5.645-5.009,5c.816.11,1.506.457,2.343.535a9.424,9.424,0,0,0,2.343-.09,13.154,13.154,0,0,0,4.3-1.633,30.329,30.329,0,0,0,3.719-2.588,28.268,28.268,0,0,1,3.715-2.923,3.18,3.18,0,0,1,2.482-.347,1.833,1.833,0,0,1,1.11,2.041c-.2,1.6-1.808,3.033-3.6,3.788-2.012.853-4.176.686-6.148,1.441a8.573,8.573,0,0,0-2.359,1.155,4.448,4.448,0,0,0-.992,1.4c1.457-2.184,4.356-1.67,6.6-1.482,2.959.249,6.017.457,8.266-2.017.441-.482.923-1.09,1.6-1.118a.992.992,0,0,1,1.021.816c.286,1.682-1.653,3.584-3.466,4.274a19.185,19.185,0,0,0,8.98-4.221L201.689,267a2.412,2.412,0,0,1-.8.114,2.915,2.915,0,0,1-1.91-1.008,7.205,7.205,0,0,0-2.319-1.588,9.8,9.8,0,0,0-3.045-.784c3.266-.7,5.127-2.768,5.425-4.711l-2.555-7.711a17.067,17.067,0,0,0-4.135.376A10.52,10.52,0,0,0,187.263,254.035Z" transform="translate(-167.82 -227.737)"/><path class="i" d="M205.692,258.477l-.094.029c9.956-.608,9.936,6.727,2.829,7.617-8.291,1.037-10.046,1.866-11.617,2.955,3.968-.91,7.135,1.3,3.425,4.809,1.653-.22,4.845-3.151,7.311-5.519s6.192,1.441,5.372,4.249c-.845,2.886-2.9,3.813-6.433,4.49,1.657.1,4.409.739,7.095-3.413,1.551-2.388,5.066-.049,4.3,2.241A10.565,10.565,0,0,0,220.212,274l-1.359-4.111a2.414,2.414,0,0,1-.8.114,2.915,2.915,0,0,1-1.91-1.008,7.206,7.206,0,0,0-2.319-1.588,9.8,9.8,0,0,0-3.045-.784c3.266-.7,5.127-2.768,5.425-4.711l-1.857-5.6C211.089,255.9,207.627,256.714,205.692,258.477Z" transform="translate(-184.976 -230.641)"/><path class="k" d="M241.915,272.343,232.89,245.92l6.156,1.367,6.9,20.206Z" transform="translate(-206.328 -224.553)"/><path class="k" d="M248.672,270.454,240.21,245.68l5.482,1.3,6.523,19.088Z" transform="translate(-210.66 -224.411)"/><path class="k" d="M255.387,268.571,247.48,245.43l4.849,1.237,6.135,17.957Z" transform="translate(-214.963 -224.263)"/><path class="l" d="M342.858,196.268s-41.016-12.883-89.478,17.724l7.862,23.027C318.3,231.557,342.858,196.268,342.858,196.268Z" transform="translate(-218.454 -193.577)"/><circle class="m" cx="6.613" cy="6.613" r="6.613" transform="translate(85.739 7.03)"/><circle class="n" cx="4.874" cy="4.874" r="4.874" transform="translate(86.305 16.956) rotate(-73.75)"/><path class="o" d="M445.659,196.377s-6.976-2.188-18.569-2.617l5.482,16.051C441.479,202.377,445.659,196.377,445.659,196.377Z" transform="translate(-321.255 -193.685)"/><g transform="translate(-1)"><line class="p" x2="0.402" y2="1.174" transform="translate(110.137 1.185)"/><line class="q" x2="2.422" y2="7.084" transform="translate(111.23 4.383)"/><line class="p" x2="0.398" y2="1.174" transform="translate(113.998 12.479)"/></g><path class="l" d="M296.159,282.22,272.12,304.7l.212-15.467Z" transform="translate(-229.545 -246.036)"/><path class="l" d="M261.806,216.617,228.97,214.36l9.932,11.858Z" transform="translate(-204.008 -205.876)"/></g></g></svg>