<svg xmlns="http://www.w3.org/2000/svg" width="393.556" height="317.085" viewBox="0 0 393.556 317.085"><defs><style>.a,.d{fill:#95c93d;}.b{fill:#bfe576;}.c{fill:#fff;}.d,.e{stroke:#95c93d;stroke-linecap:round;stroke-linejoin:round;}.d{stroke-width:3.169px;}.e{fill:none;stroke-width:2.707px;}</style></defs><g transform="translate(-8481.002 -2110.751)"><g transform="translate(8481.002 2163.704)"><g transform="translate(0 119.314)"><path class="a" d="M8594.347,2339.955c-.808-.241-1.611-.49-2.394-.781a12.2,12.2,0,0,1,2.714,1.415Z" transform="translate(-8501.619 -2325.213)"/><path class="b" d="M8537.015,2335.622c-3.454,4.094-5.979,8.621-8.618,13.053-2.509,4.212-5.116,8.545-8.867,12.158-3.108,2.993-9.333,7.277-13.869,7.088,9.6.4,18.143-3.434,25.512-9.952,5.373-4.753,11.782-13.558,19.859-12.865,3.084.265,5.677,2.084,6.391,4.672,1.08,3.914-2.188,8.613-6.429,11.29a35.76,35.76,0,0,1-10.864,4.13c-12.969,3.128-26.392,7.781-38.232,14.471-9.038,5.106-19.087,12.617-20.895,22.072,3.22-14.518,27.491-19.666,35.154-12.573s1.4,18.916-14.118,19.064c2.71-.026,5.207.774,8.027.612a31,31,0,0,0,7.723-1.459,43.923,43.923,0,0,0,13.442-7.493,100.51,100.51,0,0,0,11.041-10.416c3.473-3.7,6.759-8.415,10.871-11.519,2.335-1.763,5.446-2.929,8.065-2.381a6.148,6.148,0,0,1,4.673,6.187c.113,5.4-4.488,10.947-10.038,14.331-6.258,3.817-13.51,4.335-19.671,7.813-2.6,1.468-5.228,2.829-7.248,4.992-1.672,1.788-1.7,3.238-2.6,5.14,3.755-7.961,13.61-7.682,21.147-8.169,9.927-.642,20.173-1.454,26.407-10.763,1.22-1.821,2.519-4.076,4.765-4.51a3.318,3.318,0,0,1,3.776,2.219c1.779,5.44-3.7,12.7-9.365,15.882,10.662-3.776,20.633-10.036,27.71-18.429l-9.51-18.815a7.721,7.721,0,0,1-2.577.774c-2.7.291-4.954-1.011-6.834-2.4a24.244,24.244,0,0,0-8.466-4.117,33.15,33.15,0,0,0-10.483-1.088c10.466-3.945,15.631-11.708,15.658-18.3l-12.277-24.292a57.283,57.283,0,0,0-13.525,3.287C8546.439,2327.672,8541.218,2330.639,8537.015,2335.622Z" transform="translate(-8481.002 -2322.027)"/><path class="a" d="M8550.4,2341.631l-.289.146c32.7-6.945,36.247,17.389,13.139,23.844-26.971,7.534-32.389,11.142-37.049,15.531,12.7-4.966,24.294.787,13.723,14.258,5.371-1.553,14.507-12.848,21.516-21.906s21.231,1.71,19.9,11.428c-1.369,9.979-7.733,14.07-19.106,18.075,5.549-.482,14.979.268,21.843-14.813,3.948-8.679,16.759-2.663,15.354,5.305a35.847,35.847,0,0,0,6.782-7.573l-6.549-12.958a7.722,7.722,0,0,1-2.577.774c-2.7.291-4.954-1.011-6.833-2.4a24.257,24.257,0,0,0-8.467-4.117,33.153,33.153,0,0,0-10.483-1.088c10.466-3.945,15.63-11.709,15.658-18.3l-8.922-17.652C8567.021,2330.427,8555.944,2334.828,8550.4,2341.631Z" transform="translate(-8489.401 -2323.543)"/></g><g transform="translate(75.887 0)"><g transform="translate(0 108.174)"><g transform="translate(0 3.608)"><path class="c" d="M8618.773,2397.486l-42.979-83.126,21.084,1.493,32.866,63.565Z" transform="translate(-8574.503 -2313.07)"/><path class="a" d="M8618.479,2398.482h-.044a1.29,1.29,0,0,1-1.1-.7l-42.981-83.126a1.292,1.292,0,0,1,.068-1.3,1.275,1.275,0,0,1,1.17-.577l21.084,1.494a1.288,1.288,0,0,1,1.054.694l32.867,63.565a1.292,1.292,0,0,1-.042,1.262l-10.972,18.067A1.286,1.286,0,0,1,8618.479,2398.482Zm-40.779-82.967,40.87,79.043,9.4-15.484-32.2-62.278Z" transform="translate(-8574.209 -2312.775)"/></g><g transform="translate(9.854 1.799)"><path class="c" d="M8628.2,2390.08l-40.3-77.943,18.823,1.611,31.044,60.041Z" transform="translate(-8586.605 -2310.847)"/><path class="a" d="M8627.9,2391.075h-.035a1.287,1.287,0,0,1-1.109-.7l-40.3-77.942a1.29,1.29,0,0,1,1.256-1.877l18.821,1.611a1.287,1.287,0,0,1,1.036.692l31.045,60.042a1.294,1.294,0,0,1-.033,1.247l-9.566,16.29A1.292,1.292,0,0,1,8627.9,2391.075Zm-38.079-77.747,38.151,73.788,8.022-13.66-30.391-58.777Z" transform="translate(-8586.312 -2310.553)"/></g><g transform="translate(19.642)"><path class="c" d="M8637.557,2382.722l-37.639-72.793,16.688,1.7,29.208,56.488Z" transform="translate(-8598.627 -2308.638)"/><path class="a" d="M8637.263,2383.717h-.024a1.289,1.289,0,0,1-1.121-.7l-37.64-72.793a1.291,1.291,0,0,1,1.278-1.876l16.688,1.7a1.286,1.286,0,0,1,1.014.691l29.208,56.487a1.294,1.294,0,0,1-.022,1.228l-8.258,14.6A1.289,1.289,0,0,1,8637.263,2383.717Zm-35.4-72.558,35.448,68.558,6.74-11.919-28.566-55.248Z" transform="translate(-8598.334 -2308.344)"/></g></g><g transform="translate(27.265 0.009)"><path class="a" d="M8897.1,2178.6s-142.322-22.437-287.823,102.958l37.422,72.377C8833.135,2307.7,8897.1,2178.6,8897.1,2178.6Z" transform="translate(-8607.99 -2175.781)"/><path class="a" d="M8646.408,2354.938a1.289,1.289,0,0,1-1.146-.7l-37.423-72.378a1.289,1.289,0,0,1,.3-1.569c33.279-28.681,69.165-51.957,106.658-69.183a396.567,396.567,0,0,1,92.421-29.609c53.367-9.991,89.43-4.519,89.789-4.462a1.291,1.291,0,0,1,.955,1.847c-.163.325-16.543,32.912-55.549,70.684a396.543,396.543,0,0,1-77.588,58.295c-35.731,20.636-75.469,36.46-118.111,47.035A1.258,1.258,0,0,1,8646.408,2354.938Zm-35.81-73.354,36.487,70.565c42-10.508,81.153-26.141,116.379-46.477a393.89,393.89,0,0,0,77.069-57.869c33.813-32.722,50.479-61.472,54.271-68.452-7.888-.943-40.98-3.964-87.229,4.709a394.071,394.071,0,0,0-91.774,29.431C8678.845,2230.478,8643.457,2253.384,8610.6,2281.583Z" transform="translate(-8607.695 -2175.493)"/></g><g transform="translate(192.115 31.549)"><circle class="a" cx="22.155" cy="22.155" r="22.155" transform="translate(1.275 1.261)"/><path class="c" d="M8833.628,2261.077a23.5,23.5,0,0,1-7.131-1.115,23.279,23.279,0,1,1,7.131,1.115Zm-.06-44.319a20.891,20.891,0,1,0,9.63,39.447h0a20.89,20.89,0,0,0-9.63-39.447Z" transform="translate(-8810.173 -2214.23)"/></g><g transform="translate(196.792 36.003)"><path class="c" d="M8834.669,2257.625a18.91,18.91,0,0,1-2.905-.226,1.29,1.29,0,1,1,.4-2.549,16.354,16.354,0,0,0,2.508.2h.014a16.322,16.322,0,0,0,2.6-.209,1.29,1.29,0,0,1,.412,2.548,19.019,19.019,0,0,1-3.012.241Zm-7.968-1.9a1.292,1.292,0,0,1-.58-.138,18.87,18.87,0,0,1-4.812-3.467,1.29,1.29,0,1,1,1.817-1.83,16.253,16.253,0,0,0,4.156,2.993,1.291,1.291,0,0,1-.582,2.443Zm16.07-.074a1.292,1.292,0,0,1-1.153-.684,1.266,1.266,0,0,1,.52-1.727l.069-.036a16.337,16.337,0,0,0,4.113-3.025,1.29,1.29,0,0,1,1.836,1.813,18.947,18.947,0,0,1-4.779,3.51A1.309,1.309,0,0,1,8842.771,2255.651Zm-23.813-7.617a1.289,1.289,0,0,1-1.148-.7,18.877,18.877,0,0,1-1.857-5.63,1.289,1.289,0,1,1,2.545-.414,16.429,16.429,0,0,0,1.605,4.864,1.289,1.289,0,0,1-1.145,1.881Zm31.5-.146a1.292,1.292,0,0,1-1.152-1.869,16.5,16.5,0,0,0,1.556-4.883,1.29,1.29,0,1,1,2.55.391,19.083,19.083,0,0,1-1.8,5.648A1.289,1.289,0,0,1,8850.457,2247.887Zm-33.25-10.626a1.377,1.377,0,0,1-.2-.015,1.292,1.292,0,0,1-1.078-1.473,18.976,18.976,0,0,1,1.81-5.645,1.289,1.289,0,1,1,2.3,1.159,16.516,16.516,0,0,0-1.562,4.881A1.29,1.29,0,0,1,8817.207,2237.261Zm34.9-.166a1.291,1.291,0,0,1-1.272-1.081,16.355,16.355,0,0,0-1.612-4.863,1.289,1.289,0,1,1,2.291-1.183,18.912,18.912,0,0,1,1.867,5.628,1.29,1.29,0,0,1-1.063,1.483A1.322,1.322,0,0,1,8852.108,2237.095Zm-29.991-9.583a1.29,1.29,0,0,1-.916-2.2,18.949,18.949,0,0,1,4.762-3.49l.614,1.134.577,1.154-.023.012a16.326,16.326,0,0,0-4.1,3.007A1.29,1.29,0,0,1,8822.117,2227.511Zm24.984-.119a1.287,1.287,0,0,1-.907-.373,16.267,16.267,0,0,0-4.159-2.986,1.29,1.29,0,0,1,1.158-2.306,18.9,18.9,0,0,1,4.817,3.459,1.29,1.29,0,0,1-.909,2.206Zm-15.279-4.881a1.29,1.29,0,0,1-.207-2.563,18.8,18.8,0,0,1,3.037-.247h.018a18.869,18.869,0,0,1,2.878.221,1.29,1.29,0,0,1-.4,2.549,18.571,18.571,0,0,0-2.5-.191,16.22,16.22,0,0,0-2.623.213A1.33,1.33,0,0,1,8831.822,2222.512Z" transform="translate(-8815.916 -2219.702)"/></g><g transform="translate(252.248)"><path class="c" d="M8948.454,2178.6s-24.207-3.806-62.84.5l26.1,50.488C8937.565,2200.553,8948.454,2178.6,8948.454,2178.6Z" transform="translate(-8884.323 -2175.772)"/><path class="a" d="M8911.424,2230.587a1.384,1.384,0,0,1-.161-.01,1.289,1.289,0,0,1-.984-.688l-26.1-50.487a1.29,1.29,0,0,1,1-1.874c38.361-4.277,62.939-.529,63.184-.492a1.289,1.289,0,0,1,.954,1.848c-.109.221-11.262,22.44-36.927,51.27A1.293,1.293,0,0,1,8911.424,2230.587Zm-24.095-50.7,24.377,47.145c20.664-23.47,31.487-42.228,34.448-47.685C8939.989,2178.61,8918.428,2176.595,8887.329,2179.888Z" transform="translate(-8884.029 -2175.481)"/></g><g transform="translate(259.938 1.268)"><path class="a" d="M8896.079,2182.158a1.29,1.29,0,0,1-1.147-.7l-1.312-2.539a1.29,1.29,0,1,1,2.292-1.185l1.313,2.539a1.292,1.292,0,0,1-1.146,1.883Z" transform="translate(-8893.475 -2177.039)"/><g transform="translate(3.63 7.02)"><path class="a" d="M8915.438,2219.6a1.287,1.287,0,0,1-1.146-.7l-2.317-4.48a1.29,1.29,0,0,1,2.292-1.185l2.316,4.479a1.289,1.289,0,0,1-1.146,1.882Zm-4.632-8.96a1.288,1.288,0,0,1-1.146-.7l-2.316-4.48a1.289,1.289,0,1,1,2.29-1.185l2.316,4.48a1.29,1.29,0,0,1-1.144,1.882Zm-4.635-8.959a1.292,1.292,0,0,1-1.146-.7l-2.314-4.48a1.29,1.29,0,1,1,2.291-1.185l2.315,4.48a1.291,1.291,0,0,1-1.146,1.883Zm-4.632-8.96a1.287,1.287,0,0,1-1.146-.7l-2.317-4.48a1.29,1.29,0,0,1,2.292-1.185l2.315,4.48a1.291,1.291,0,0,1-1.145,1.883Z" transform="translate(-8897.933 -2185.661)"/></g><g transform="translate(22.162 42.86)"><path class="a" d="M8923.3,2234.8a1.286,1.286,0,0,1-1.146-.7l-1.312-2.54a1.289,1.289,0,1,1,2.29-1.185l1.314,2.539a1.29,1.29,0,0,1-1.146,1.883Z" transform="translate(-8920.694 -2229.681)"/></g></g></g><path class="d" d="M8730.617,2350.369l-68.582,86.393-6.923-51.368Z" transform="translate(-8513.356 -2207.979)"/><path class="d" d="M8671.415,2252.137l-109.957,8.75,38.778,34.393Z" transform="translate(-8495.952 -2189.726)"/></g><circle class="e" cx="3.253" cy="3.253" r="3.253" transform="translate(8557.611 2118.02)"/><circle class="e" cx="6.815" cy="6.815" r="6.815" transform="translate(8682.997 2112.105)"/><circle class="e" cx="4.257" cy="4.257" r="4.257" transform="translate(8632.32 2160.724)"/><circle class="e" cx="4.488" cy="4.488" r="4.488" transform="translate(8745.787 2344.802)"/><circle class="e" cx="11.064" cy="11.064" r="11.064" transform="translate(8830.784 2273.168)"/><circle class="e" cx="4.288" cy="4.288" r="4.288" transform="translate(8812.104 2132.068)"/><circle class="e" cx="7.167" cy="7.167" r="7.167" transform="translate(8553.698 2412.148)"/><circle class="e" cx="4.977" cy="4.977" r="4.977" transform="translate(8682.41 2386.441)"/><circle class="e" cx="4.288" cy="4.288" r="4.288" transform="translate(8820.682 2415.027)"/><circle class="e" cx="9.204" cy="9.204" r="9.204" transform="translate(8495.978 2179.042)"/></g></svg>