<svg xmlns="http://www.w3.org/2000/svg" viewBox="0 0 104.65 104.65">
  <title>rules_wordmark</title>
  <g id="Layer_2" data-name="Layer 2">
    <g id="Layer_1-2" data-name="Layer 1">
      <g>
        <path d="M83.92,55c.22-2.34.45-4.67.67-7a344.33,344.33,0,0,0-64.53,0l.66,7A335.27,335.27,0,0,1,83.92,55Z" style="fill: #95c93d"/>
        <path d="M36.55,30.88a22.32,22.32,0,0,1,38,13.66c2.25.14,4.49.31,6.74.5A29,29,0,0,0,55.84,17.87v-8c-1.16-.1-2.33-.15-3.52-.15s-2.35,0-3.51.15v8A29,29,0,0,0,23.37,45q3.36-.28,6.74-.5A22.14,22.14,0,0,1,36.55,30.88Z" style="fill: #95c93d"/>
        <path d="M13.84,58.29q.38,3.49.77,7c1.45-.16,2.9-.31,4.36-.45v14a42.32,42.32,0,0,0,7,7V64.22c2.63-.2,5.26-.38,7.89-.52v27a42.34,42.34,0,0,0,7,2.64v-30q3.94-.13,7.89-.17V94.78c1.16.09,2.33.14,3.51.14s2.36,0,3.52-.14V63.23q3.94,0,7.89.17v30a42.34,42.34,0,0,0,7-2.64v-27c2.63.14,5.26.32,7.89.52v21.6a42.71,42.71,0,0,0,7-7v-14c1.45.14,2.91.29,4.36.45.26-2.33.51-4.66.77-7A351.2,351.2,0,0,0,13.84,58.29Z" style="fill: #95c93d"/>
        <path d="M89.32,15.33a52.3,52.3,0,0,0-74,0,52.32,52.32,0,1,0,74,74,52.3,52.3,0,0,0,0-74Zm-37,83.24A46.25,46.25,0,1,1,98.57,52.32,46.3,46.3,0,0,1,52.32,98.57Z" style="fill: #95c93d"/>
      </g>
    </g>
  </g>
</svg>
