<svg xmlns="http://www.w3.org/2000/svg" viewBox="0 0 378.44 104.65">
  <title>rules_logo</title>
  <g id="Layer_2" data-name="Layer 2">
    <g id="Layer_1-2" data-name="Layer 1">
      <g>
        <path d="M137.67,27.3l-1.43-3.41h-7.86L127,27.3h-3.2l7.06-16.1H134l7,16.1Zm-8.19-6.05h5.66l-2.81-6.76Z" style="fill: #3d4543"/>
        <path d="M158.09,12.22a7.58,7.58,0,0,1,3,2.87,8,8,0,0,1,1.08,4.16,7.91,7.91,0,0,1-1.09,4.15,7.7,7.7,0,0,1-3,2.86,9.19,9.19,0,0,1-4.4,1h-6.57V11.2h6.69a9,9,0,0,1,4.32,1m-1.6,11.69A4.87,4.87,0,0,0,158.34,22a5.55,5.55,0,0,0,.67-2.75,5.55,5.55,0,0,0-.69-2.77,4.85,4.85,0,0,0-1.9-1.91,5.41,5.41,0,0,0-2.7-.68h-3.56V24.58h3.68a5.25,5.25,0,0,0,2.65-.67" style="fill: #3d4543"/>
        <polygon points="168.99 11.2 172.51 11.2 177.85 21.57 183.13 11.2 186.65 11.2 186.65 27.3 183.82 27.3 183.82 15.75 178.81 25.64 176.83 25.64 171.8 15.75 171.8 27.3 168.99 27.3 168.99 11.2" style="fill: #3d4543"/>
        <rect x="194.75" y="11.2" width="3.08" height="16.1" style="fill: #3d4543"/>
        <polygon points="217.15 11.2 220.14 11.2 220.14 27.3 217.22 27.3 208.94 16.21 208.94 27.3 205.92 27.3 205.92 11.2 208.84 11.2 217.15 22.31 217.15 11.2" style="fill: #3d4543"/>
        <rect x="228.23" y="11.2" width="3.08" height="16.1" style="fill: #3d4543"/>
        <path d="M247,14.17a7.54,7.54,0,0,0-2.28-.42,3.17,3.17,0,0,0-1.75.42,1.28,1.28,0,0,0-.65,1.15,1.51,1.51,0,0,0,.45,1.11,3.52,3.52,0,0,0,1.13.74,18.31,18.31,0,0,0,1.85.63,20.37,20.37,0,0,1,2.68,1,4.82,4.82,0,0,1,1.78,1.43,3.93,3.93,0,0,1,.74,2.48,4.25,4.25,0,0,1-.8,2.57A4.93,4.93,0,0,1,248,26.91a8.35,8.35,0,0,1-3.18.57,9.94,9.94,0,0,1-3.68-.7A10.5,10.5,0,0,1,238,24.91l1.29-2.63A9.22,9.22,0,0,0,242,24.05a7.3,7.3,0,0,0,2.83.65,3.57,3.57,0,0,0,2-.5,1.5,1.5,0,0,0,.74-1.34,1.54,1.54,0,0,0-.45-1.14A3.32,3.32,0,0,0,246,21a17.49,17.49,0,0,0-1.89-.62,23,23,0,0,1-2.67-.95A4.57,4.57,0,0,1,239.66,18a3.85,3.85,0,0,1-.74-2.45,4.11,4.11,0,0,1,.75-2.45,4.75,4.75,0,0,1,2.12-1.62A8.14,8.14,0,0,1,245,11a10.57,10.57,0,0,1,3.09.46,10.34,10.34,0,0,1,2.73,1.24l-1.24,2.69A11.21,11.21,0,0,0,247,14.17" style="fill: #3d4543"/>
        <polygon points="256.19 11.2 269.33 11.2 269.33 13.94 264.31 13.94 264.31 27.3 261.21 27.3 261.21 13.94 256.19 13.94 256.19 11.2" style="fill: #3d4543"/>
        <path d="M285.72,27.3l-2.78-4.76-.58,0h-3.63V27.3h-3.08V11.2h6.71a7.2,7.2,0,0,1,4.83,1.45,5.06,5.06,0,0,1,1.71,4.09,6.09,6.09,0,0,1-.82,3.22,5,5,0,0,1-2.38,2l3.54,5.34Zm-7-7.45h3.63a4.12,4.12,0,0,0,2.67-.76,2.78,2.78,0,0,0,.92-2.26,2.65,2.65,0,0,0-.92-2.2,4.12,4.12,0,0,0-2.67-.74h-3.63Z" style="fill: #3d4543"/>
        <path d="M308.33,27.3l-1.43-3.41H299l-1.43,3.41h-3.2l7.06-16.1h3.2l7,16.1Zm-8.19-6.05h5.66L303,14.49Z" style="fill: #3d4543"/>
        <polygon points="314.31 11.2 327.44 11.2 327.44 13.94 322.42 13.94 322.42 27.3 319.32 27.3 319.32 13.94 314.31 13.94 314.31 11.2" style="fill: #3d4543"/>
        <rect x="333.76" y="11.2" width="3.08" height="16.1" style="fill: #3d4543"/>
        <polygon points="343.01 11.2 346.32 11.2 351.05 23.87 355.84 11.2 359.01 11.2 352.57 27.3 349.38 27.3 343.01 11.2" style="fill: #3d4543"/>
        <polygon points="365.2 11.2 376.99 11.2 376.99 13.89 368.28 13.89 368.28 17.87 376.1 17.87 376.1 20.56 368.28 20.56 368.28 24.61 377.27 24.61 377.27 27.3 365.2 27.3 365.2 11.2" style="fill: #3d4543"/>
        <path d="M157.16,92.28,149,77.55H136.27V91.27a2.1,2.1,0,0,1-2.09,2.09h-8.31a2.1,2.1,0,0,1-2.09-2.09V40.14a2.09,2.09,0,0,1,2.09-2.09H147.8q10.83,0,16.75,5t5.93,14.19a21.34,21.34,0,0,1-2.65,10.94,17,17,0,0,1-7.7,6.91l9.69,15a2.09,2.09,0,0,1-1.75,3.23H159a2.11,2.11,0,0,1-1.83-1.08M136.27,67.12H147.8q5.22,0,8-2.41t2.8-7.07c0-3-.93-5.36-2.8-6.91s-4.54-2.33-8-2.33H136.27Z" style="fill: #3d4543"/>
        <path d="M195.88,79.88a12,12,0,0,0,9,3.44,11.43,11.43,0,0,0,8.69-3.4q3.24-3.39,3.24-9.4V40.14a2.09,2.09,0,0,1,2.09-2.09h8.3a2.08,2.08,0,0,1,2.09,2.09V70.52a25.46,25.46,0,0,1-3,12.6,20.1,20.1,0,0,1-8.49,8.22,27.9,27.9,0,0,1-13,2.89,28.38,28.38,0,0,1-13.12-2.89A20.23,20.23,0,0,1,183,83.12a25.26,25.26,0,0,1-3-12.6V40.14a2.08,2.08,0,0,1,2.09-2.09h8.3a2.08,2.08,0,0,1,2.09,2.09V70.52q0,5.92,3.36,9.36" style="fill: #3d4543"/>
        <path d="M242.57,38.05h8.31A2.09,2.09,0,0,1,253,40.14V82.45h21.61a2.09,2.09,0,0,1,2.09,2.09v6.73a2.09,2.09,0,0,1-2.09,2.09h-32a2.1,2.1,0,0,1-2.09-2.09V40.14a2.09,2.09,0,0,1,2.09-2.09" style="fill: #3d4543"/>
        <path d="M286.19,38.05h37.93a2.08,2.08,0,0,1,2.09,2.09v6.17a2.09,2.09,0,0,1-2.09,2.09H296.58v12h24.54a2.09,2.09,0,0,1,2.09,2.09v6.17a2.1,2.1,0,0,1-2.09,2.09H296.58V83H325a2.09,2.09,0,0,1,2.09,2.1v6.17A2.09,2.09,0,0,1,325,93.36h-38.8a2.09,2.09,0,0,1-2.09-2.09V40.14a2.08,2.08,0,0,1,2.09-2.09" style="fill: #3d4543"/>
        <path d="M364.26,49.31a27.38,27.38,0,0,0-8.18-1.54A9.66,9.66,0,0,0,350.94,49a3.85,3.85,0,0,0-1.89,3.48,4.87,4.87,0,0,0,2.72,4.46,42.34,42.34,0,0,0,8.42,3.2,72.81,72.81,0,0,1,9.36,3.32,16.5,16.5,0,0,1,6.28,5,13.77,13.77,0,0,1,2.61,8.77,14.94,14.94,0,0,1-2.81,9.12,17.12,17.12,0,0,1-7.7,5.81,29.5,29.5,0,0,1-11.14,2,38.16,38.16,0,0,1-13.2-2.37,36.39,36.39,0,0,1-9.88-5.39,2.09,2.09,0,0,1-.61-2.58l3.09-6.31a2.08,2.08,0,0,1,3.15-.73A34.33,34.33,0,0,0,347,81.11a26,26,0,0,0,10,2.29A11,11,0,0,0,363,82a5,5,0,0,0,.71-7.63A11.18,11.18,0,0,0,360,72.1q-2.25-.87-6.2-2A72.05,72.05,0,0,1,344.5,67a16.45,16.45,0,0,1-6.2-4.82,13.33,13.33,0,0,1-2.61-8.62,14.63,14.63,0,0,1,2.69-8.73A17.08,17.08,0,0,1,345.89,39a29,29,0,0,1,11.22-2,38.75,38.75,0,0,1,11.22,1.66,39.82,39.82,0,0,1,8.15,3.42,2.1,2.1,0,0,1,.85,2.7l-3.06,6.59a2.1,2.1,0,0,1-2.9,1,41.3,41.3,0,0,0-7.11-3" style="fill: #3d4543"/>
        <path d="M83.92,55c.22-2.34.45-4.67.67-7a344.33,344.33,0,0,0-64.53,0l.66,7a335.27,335.27,0,0,1,63.2,0" style="fill: #2c58c4"/>
        <path d="M36.55,30.88a22.32,22.32,0,0,1,38,13.66c2.25.14,4.49.31,6.74.5A29,29,0,0,0,55.84,17.87v-8c-1.16-.1-2.33-.15-3.52-.15s-2.35,0-3.51.15v8A29,29,0,0,0,23.37,45q3.36-.28,6.74-.5a22.14,22.14,0,0,1,6.44-13.66" style="fill: #2c58c4"/>
        <path d="M13.84,58.29q.38,3.49.77,7c1.45-.16,2.9-.31,4.36-.45v14a42.32,42.32,0,0,0,7,7V64.22c2.63-.2,5.25-.38,7.89-.52v27a42.34,42.34,0,0,0,7,2.64v-30q3.94-.13,7.89-.17V94.78c1.16.09,2.33.14,3.51.14s2.36,0,3.52-.14V63.23q3.94,0,7.89.17v30a42.34,42.34,0,0,0,7-2.64v-27c2.63.14,5.26.32,7.89.52v21.6a42.71,42.71,0,0,0,7-7v-14c1.45.14,2.91.29,4.36.45.26-2.33.51-4.66.77-7a351.2,351.2,0,0,0-77,0" style="fill: #2c58c4"/>
        <path d="M89.32,15.33a52.3,52.3,0,0,0-74,0,52.32,52.32,0,1,0,74,74,52.3,52.3,0,0,0,0-74m-37,83.24A46.25,46.25,0,1,1,98.57,52.32,46.3,46.3,0,0,1,52.32,98.57" style="fill: #2c58c4"/>
      </g>
    </g>
  </g>
</svg>
