<svg xmlns="http://www.w3.org/2000/svg" viewBox="0 0 370.31 343.4"><title>rules_agencies</title><g id="Layer_2" data-name="Layer 2"><g id="Layer_1-2" data-name="Layer 1"><line x1="82.94" y1="67.38" x2="285.02" y2="277.46" style="fill:none;stroke:#2c58c4;stroke-linecap:round;stroke-linejoin:round;stroke-width:2px"/><line x1="51.71" y1="126.5" x2="316.26" y2="218.34" style="fill:none;stroke:#2c58c4;stroke-linecap:round;stroke-linejoin:round;stroke-width:2px"/><line x1="316.26" y1="126.5" x2="51.71" y2="218.34" style="fill:none;stroke:#2c58c4;stroke-linecap:round;stroke-linejoin:round;stroke-width:2px"/><rect x="37.29" y="44.74" width="90.44" height="45.74" rx="11.52" style="fill:#fff;stroke:#2c58c4;stroke-miterlimit:10;stroke-width:2px"/><path d="M52.5,62.72h0l0,.15a5.6,5.6,0,0,1-3.22.93c-3,0-5-1.82-5-4.85a4.73,4.73,0,0,1,5-4.87,6,6,0,0,1,2.76.6v1.8a5.28,5.28,0,0,0-2.73-.77A3,3,0,0,0,46.17,59a3,3,0,0,0,3.18,3.22,4.21,4.21,0,0,0,1.41-.25V59.69H49V58.18H52.5Z" style="fill:#2c58c4"/><path d="M54.47,57a4.83,4.83,0,0,1,2.3-.49c2,0,2.88.89,2.88,2.69v4.53H58v-.85a1.94,1.94,0,0,1-1.85.91,2,2,0,0,1-2.2-2.07c0-1.33,1-2.16,2.94-2.16h1v-.43c0-.75-.33-1.21-1.36-1.21a4,4,0,0,0-2.09.63Zm2.58,3.68c-.93,0-1.36.44-1.36,1s.34.89,1,.89a1.11,1.11,0,0,0,1.19-1.19v-.67Z" style="fill:#2c58c4"/><path d="M63.07,57.7a2.15,2.15,0,0,1,2-1.2,1.94,1.94,0,0,1,2,1.34,2.23,2.23,0,0,1,2.12-1.34c1.44,0,2.25.91,2.25,2.51v4.67H69.77V59.33c0-.9-.37-1.43-1.1-1.43-.58,0-1.4.46-1.4,2v3.8H65.58V59.33c0-.9-.37-1.43-1.1-1.43s-1.41.46-1.41,2v3.8H61.39v-7.1h1.68Z" style="fill:#2c58c4"/><path d="M78.62,63.29a4.69,4.69,0,0,1-2.15.47,3.41,3.41,0,0,1-3.65-3.62c0-2.34,1.45-3.63,3.23-3.63s3,1.08,3,3.29a8.42,8.42,0,0,1-.09,1H74.51a2.08,2.08,0,0,0,2.22,1.59,3.28,3.28,0,0,0,1.89-.56Zm-1.15-3.95c0-.87-.46-1.51-1.37-1.51-.76,0-1.45.56-1.62,1.72h3Z" style="fill:#2c58c4"/><path d="M91.18,63.68c-.14-.12-.39-.36-.7-.65a4.79,4.79,0,0,1-2.72.77c-2.39,0-3.81-1.19-3.81-2.65,0-1.12.62-1.91,2.1-2.4A3.29,3.29,0,0,1,85,56.54C85,54.93,86.18,54,87.82,54c1.8,0,2.94,1,2.94,2.55,0,1.07-.56,1.91-2.09,2.64l1.75,1.71a2.82,2.82,0,0,0,.33-1.28h1.54A4.39,4.39,0,0,1,91.54,62c.79.77,1.49,1.44,1.77,1.69Zm-4.13-4c-1,.35-1.37.79-1.37,1.37,0,.77.88,1.28,2.08,1.28A3.47,3.47,0,0,0,89.39,62l-2.22-2.13Zm-.38-3.19a2.89,2.89,0,0,0,1.06,1.75c1-.52,1.32-1.07,1.32-1.61a1.14,1.14,0,0,0-1.25-1.22A1,1,0,0,0,86.67,56.53Z" style="fill:#2c58c4"/><path d="M99.58,55.69v2.78h3.28v1.45H99.58v3.76H97.8V54.24h5.54v1.45Z" style="fill:#2c58c4"/><path d="M105.63,53.45a1,1,0,0,1,1,1,1,1,0,1,1-2,0A1,1,0,0,1,105.63,53.45Zm-.84,3.13h1.68v7.1h-1.68Z" style="fill:#2c58c4"/><path d="M112.61,58.29a3.62,3.62,0,0,0-1.75-.42c-.59,0-.93.28-.93.67,0,.55.72.77,1.46,1.12s1.61.92,1.61,2c0,1.36-1.07,2.12-2.62,2.12a4.88,4.88,0,0,1-2.13-.44V61.78a3.79,3.79,0,0,0,2,.63c.63,0,1-.25,1-.66,0-.56-.7-.8-1.5-1.13a2.19,2.19,0,0,1-1.55-2c0-1.36,1.17-2.1,2.6-2.1a4.94,4.94,0,0,1,1.8.31Z" style="fill:#2c58c4"/><path d="M116,57.79a2.18,2.18,0,0,1,2.17-1.29A2.24,2.24,0,0,1,120.51,59v4.65h-1.69V59.33c0-.93-.51-1.43-1.23-1.43s-1.57.41-1.57,2v3.8h-1.68v-9.9H116Z" style="fill:#2c58c4"/><path d="M49.09,71.05a4.72,4.72,0,1,1,0,9.44H46V71.05Zm0,8c2,0,3-1.39,3-3.38a2.9,2.9,0,0,0-3-3.1H47.81V79Z" style="fill:#2c58c4"/><path d="M60.81,80.1a4.67,4.67,0,0,1-2.14.46A3.41,3.41,0,0,1,55,77c0-2.34,1.46-3.63,3.23-3.63s3,1.08,3,3.29a8.63,8.63,0,0,1-.1,1H56.7a2.08,2.08,0,0,0,2.22,1.58,3.19,3.19,0,0,0,1.89-.56Zm-1.15-3.95c0-.87-.46-1.51-1.37-1.51-.76,0-1.45.56-1.61,1.72h3Z" style="fill:#2c58c4"/><path d="M64.48,74.48a2.46,2.46,0,0,1,2.17-1.19c1.86,0,3,1.47,3,3.62s-1.12,3.68-3,3.68a2.42,2.42,0,0,1-2.16-1.16v3.74H62.8V73.39h1.68ZM68,76.93c0-1.44-.74-2.21-1.68-2.21s-1.79.62-1.79,2.17.87,2.26,1.76,2.26S68,78.36,68,76.93Z" style="fill:#2c58c4"/><path d="M71.3,73.75a4.9,4.9,0,0,1,2.29-.49c2,0,2.89.9,2.89,2.69v4.54H74.81v-.85a1.92,1.92,0,0,1-1.85.91,2,2,0,0,1-2.19-2.08c0-1.33,1-2.15,2.94-2.15h1v-.44c0-.74-.32-1.2-1.36-1.2a4,4,0,0,0-2.08.63Zm2.57,3.69c-.92,0-1.35.43-1.35,1s.33.9,1,.9a1.11,1.11,0,0,0,1.19-1.19v-.67Z" style="fill:#2c58c4"/><path d="M79.9,74.65a1.85,1.85,0,0,1,1.79-1.32,1.7,1.7,0,0,1,.48,0V75a1.74,1.74,0,0,0-.72-.14c-.94,0-1.55.86-1.55,2v3.67H78.2l0-7.1H79.9Z" style="fill:#2c58c4"/><path d="M85.2,78.26a.83.83,0,0,0,.9.92,1.94,1.94,0,0,0,1-.3v1.44a3.31,3.31,0,0,1-1.26.24,2,2,0,0,1-2.3-2.32V74.65H82.46V73.39h1.06V71.68H85.2v1.71H87v1.26H85.2Z" style="fill:#2c58c4"/><path d="M90.15,74.51a2.13,2.13,0,0,1,2-1.2,2,2,0,0,1,2,1.34,2.23,2.23,0,0,1,2.11-1.34c1.45,0,2.26.91,2.26,2.5v4.68h-1.7V76.14c0-.9-.36-1.43-1.09-1.43s-1.4.46-1.4,2v3.81H92.66V76.14c0-.9-.37-1.43-1.1-1.43s-1.41.46-1.41,2v3.81H88.47v-7.1h1.68Z" style="fill:#2c58c4"/><path d="M105.69,80.1a4.61,4.61,0,0,1-2.14.46A3.41,3.41,0,0,1,99.9,77c0-2.34,1.45-3.63,3.23-3.63s3,1.08,3,3.29a6.91,6.91,0,0,1-.1,1h-4.45a2.07,2.07,0,0,0,2.21,1.58,3.19,3.19,0,0,0,1.89-.56Zm-1.14-3.95c0-.87-.47-1.51-1.38-1.51-.75,0-1.44.56-1.61,1.72h3Z" style="fill:#2c58c4"/><path d="M109.36,74.61a2.25,2.25,0,0,1,2.19-1.3,2.19,2.19,0,0,1,2.3,2.46v4.72h-1.69V76.12c0-1-.5-1.41-1.24-1.41s-1.56.64-1.56,2v3.81h-1.68v-7.1h1.68Z" style="fill:#2c58c4"/><path d="M117.64,78.26a.83.83,0,0,0,.9.92,1.94,1.94,0,0,0,1-.3v1.44a3.31,3.31,0,0,1-1.26.24,2,2,0,0,1-2.3-2.32V74.65h-1.07V73.39H116V71.68h1.68v1.71h1.76v1.26h-1.76Z" style="fill:#2c58c4"/><rect x="1" y="115.17" width="90.44" height="45.74" rx="11.52" style="fill:#fff;stroke:#2c58c4;stroke-miterlimit:10;stroke-width:2px"/><path d="M34,130.67H33v3.45H31.28v-9.44h2.91c2.17,0,3.45,1.2,3.45,3a2.8,2.8,0,0,1-1.79,2.73l2.42,3.73H36.15Zm-1-1.45h1.18a1.44,1.44,0,0,0,1.63-1.57c0-1-.59-1.51-1.66-1.51H33Z" style="fill:#2c58c4"/><path d="M45.55,127v7.1H43.86V133a2.21,2.21,0,0,1-2.19,1.23,2.12,2.12,0,0,1-2.28-2.37V127h1.68v4.41c0,.91.48,1.37,1.23,1.37.93,0,1.56-.6,1.56-2V127Z" style="fill:#2c58c4"/><path d="M49.05,128.28A1.86,1.86,0,0,1,50.84,127a2,2,0,0,1,.48,0v1.63a1.69,1.69,0,0,0-.71-.14c-.94,0-1.56.85-1.56,2v3.67H47.36V127h1.68Z" style="fill:#2c58c4"/><path d="M52.5,127.38a4.9,4.9,0,0,1,2.29-.49c2,0,2.89.9,2.89,2.69v4.54H56v-.86a1.92,1.92,0,0,1-1.85.92A2,2,0,0,1,52,132.1c0-1.33,1-2.15,2.95-2.15h1v-.44c0-.74-.32-1.2-1.36-1.2a4,4,0,0,0-2.08.63Zm2.57,3.69c-.92,0-1.35.43-1.35,1s.33.9,1,.9a1.11,1.11,0,0,0,1.19-1.19v-.67Z" style="fill:#2c58c4"/><path d="M59.48,124.22h1.69v9.9H59.48Z" style="fill:#2c58c4"/><path d="M8.33,141.48a4.73,4.73,0,1,1,0,9.45H5.24v-9.45Zm0,8c2,0,3-1.39,3-3.38A2.91,2.91,0,0,0,8.27,143H7.05v6.49Z" style="fill:#2c58c4"/><path d="M20.05,150.53a4.56,4.56,0,0,1-2.15.47,3.41,3.41,0,0,1-3.65-3.62c0-2.34,1.46-3.63,3.23-3.63s3,1.08,3,3.3a8.47,8.47,0,0,1-.1,1H15.94a2.08,2.08,0,0,0,2.22,1.59,3.26,3.26,0,0,0,1.89-.56Zm-1.15-3.95c0-.86-.46-1.51-1.37-1.51s-1.45.56-1.61,1.72h3Z" style="fill:#2c58c4"/><path d="M21.31,143.82h1.76l.94,3a25.41,25.41,0,0,1,.77,2.77,23.12,23.12,0,0,1,.8-2.77l1-3H28.3l-2.61,7.11H23.87Z" style="fill:#2c58c4"/><path d="M34.79,150.53a4.5,4.5,0,0,1-2.14.47A3.41,3.41,0,0,1,29,147.38c0-2.34,1.45-3.63,3.23-3.63s3,1.08,3,3.3a8.44,8.44,0,0,1-.09,1H30.69a2.07,2.07,0,0,0,2.21,1.59,3.26,3.26,0,0,0,1.89-.56Zm-1.14-3.95c0-.86-.47-1.51-1.38-1.51-.75,0-1.44.56-1.61,1.72h3Z" style="fill:#2c58c4"/><path d="M36.85,141h1.68v9.91H36.85Z" style="fill:#2c58c4"/><path d="M40.05,147.45a3.43,3.43,0,0,1,3.41-3.74,3.33,3.33,0,0,1,3.44,3.64c0,2.08-1.21,3.69-3.44,3.69A3.29,3.29,0,0,1,40.05,147.45Zm1.76,0c0,1.23.56,2.29,1.67,2.29s1.66-1,1.66-2.28-.44-2.32-1.68-2.32S41.81,146.15,41.81,147.4Z" style="fill:#2c58c4"/><path d="M50,144.92a2.44,2.44,0,0,1,2.17-1.19c1.86,0,3,1.47,3,3.61s-1.12,3.68-3,3.68A2.4,2.4,0,0,1,50,149.86v3.74H48.34v-9.78H50Zm3.47,2.45c0-1.44-.74-2.22-1.68-2.22s-1.79.62-1.79,2.18.87,2.25,1.76,2.25S53.49,148.8,53.49,147.37Z" style="fill:#2c58c4"/><path d="M58.34,144.94a2.14,2.14,0,0,1,2-1.2,2,2,0,0,1,2,1.35,2.21,2.21,0,0,1,2.11-1.35c1.44,0,2.26.91,2.26,2.51v4.68H65v-4.36c0-.9-.36-1.43-1.09-1.43s-1.4.46-1.4,2v3.81h-1.7v-4.36c0-.9-.36-1.43-1.09-1.43s-1.41.46-1.41,2v3.81H56.65v-7.11h1.69Z" style="fill:#2c58c4"/><path d="M73.88,150.53a4.52,4.52,0,0,1-2.14.47,3.42,3.42,0,0,1-3.66-3.62c0-2.34,1.46-3.63,3.24-3.63s3,1.08,3,3.3a8.47,8.47,0,0,1-.1,1H69.78A2.07,2.07,0,0,0,72,149.64a3.26,3.26,0,0,0,1.89-.56Zm-1.15-3.95c0-.86-.46-1.51-1.37-1.51-.75,0-1.44.56-1.61,1.72h3Z" style="fill:#2c58c4"/><path d="M77.55,145a2.27,2.27,0,0,1,2.19-1.3A2.19,2.19,0,0,1,82,146.21v4.72H80.35v-4.37c0-1-.5-1.42-1.24-1.42s-1.56.65-1.56,2v3.81H75.87v-7.11h1.68Z" style="fill:#2c58c4"/><path d="M85.83,148.7a.82.82,0,0,0,.9.91,1.85,1.85,0,0,0,1-.3v1.45a3.36,3.36,0,0,1-1.27.24,2,2,0,0,1-2.29-2.33v-3.58H83.08v-1.27h1.07v-1.7h1.68v1.7h1.76v1.27H85.83Z" style="fill:#2c58c4"/><rect x="1" y="185.68" width="90.44" height="45.74" rx="11.52" style="fill:#fff;stroke:#2c58c4;stroke-miterlimit:10;stroke-width:2px"/><path d="M20.69,195.19c2.09,0,3.2,1.1,3.2,2.56a2.11,2.11,0,0,1-1.5,2.09,2.15,2.15,0,0,1,1.73,2.24c0,1.46-1.06,2.55-2.95,2.55H17.34v-9.44Zm-1.58,4h1.06c1.33,0,1.91-.62,1.91-1.35s-.49-1.19-1.61-1.19H19.11Zm1.51,4c1.14,0,1.7-.45,1.7-1.29s-.51-1.32-1.77-1.32H19.11v2.61Z" style="fill:#2c58c4"/><path d="M31.66,197.53v7.1H30v-1.16a2.21,2.21,0,0,1-2.18,1.23,2.13,2.13,0,0,1-2.29-2.37v-4.8h1.69v4.41c0,.91.47,1.37,1.23,1.37.92,0,1.55-.6,1.55-2v-3.81Z" style="fill:#2c58c4"/><path d="M35.16,198.79A1.85,1.85,0,0,1,37,197.47a2,2,0,0,1,.48,0v1.63a1.71,1.71,0,0,0-.72-.14c-.94,0-1.55.85-1.55,2v3.67h-1.7l0-7.1h1.68Z" style="fill:#2c58c4"/><path d="M43.84,204.24a4.64,4.64,0,0,1-2.14.46A3.42,3.42,0,0,1,38,201.09c0-2.34,1.46-3.63,3.24-3.63s3,1.08,3,3.29a8.85,8.85,0,0,1-.1,1H39.74A2.07,2.07,0,0,0,42,203.34a3.19,3.19,0,0,0,1.89-.56Zm-1.15-4c0-.87-.46-1.52-1.37-1.52s-1.44.56-1.61,1.73h3Z" style="fill:#2c58c4"/><path d="M46,197.89a5,5,0,0,1,2.3-.49c2,0,2.88.9,2.88,2.69v4.54H49.53v-.86a1.94,1.94,0,0,1-1.85.91,2,2,0,0,1-2.2-2.07c0-1.33,1-2.15,2.94-2.15h1V200c0-.74-.33-1.2-1.36-1.2a4,4,0,0,0-2.09.63Zm2.58,3.69c-.93,0-1.36.43-1.36,1s.34.9,1,.9a1.11,1.11,0,0,0,1.19-1.19v-.67Z" style="fill:#2c58c4"/><path d="M59,197.53v7.1H57.33v-1.16a2.22,2.22,0,0,1-2.19,1.23,2.12,2.12,0,0,1-2.28-2.37v-4.8h1.68v4.41c0,.91.48,1.37,1.23,1.37.93,0,1.56-.6,1.56-2v-3.81Z" style="fill:#2c58c4"/><path d="M63.94,201.16a3.42,3.42,0,0,1,3.42-3.74,3.32,3.32,0,0,1,3.43,3.64c0,2.07-1.21,3.68-3.43,3.68A3.29,3.29,0,0,1,63.94,201.16Zm1.76-.06c0,1.23.56,2.3,1.67,2.3s1.67-1,1.67-2.29-.45-2.32-1.68-2.32S65.7,199.85,65.7,201.1Z" style="fill:#2c58c4"/><path d="M76.18,196.11a1.86,1.86,0,0,0-.7-.14c-.6,0-1,.27-1,1.15v.41h1.41v1.26H74.46v5.84H72.77v-5.84h-1v-1.26h1v-.42a2.31,2.31,0,0,1,2.48-2.54,3,3,0,0,1,.93.13Z" style="fill:#2c58c4"/><path d="M6.31,212H8.07v9.45H6.31Z" style="fill:#2c58c4"/><path d="M11.76,215.55a2.24,2.24,0,0,1,2.18-1.3,2.19,2.19,0,0,1,2.3,2.47v4.72H14.56v-4.37c0-1-.51-1.42-1.25-1.42s-1.55.65-1.55,2v3.81H10.07v-7.11h1.69Z" style="fill:#2c58c4"/><path d="M24.49,211.53v9.91H22.81v-1.11a2.44,2.44,0,0,1-2.16,1.2c-1.95,0-3-1.73-3-3.64,0-2.28,1.32-3.65,3.07-3.65a2.42,2.42,0,0,1,2.13,1.19v-3.9Zm-1.68,6.29c0-1.55-1-2.16-1.75-2.16s-1.73.77-1.73,2.26c0,1.32.76,2.17,1.71,2.17S22.81,219.36,22.81,217.82Z" style="fill:#2c58c4"/><path d="M27.22,211.2a1,1,0,0,1,1,1,1,1,0,1,1-2,0A1,1,0,0,1,27.22,211.2Zm-.84,3.13h1.68v7.11H26.38Z" style="fill:#2c58c4"/><path d="M30.13,214.7a4.83,4.83,0,0,1,2.3-.49c2,0,2.88.89,2.88,2.69v4.54H33.65v-.86a1.94,1.94,0,0,1-1.85.91,2,2,0,0,1-2.2-2.07c0-1.33,1-2.16,2.94-2.16h1v-.43c0-.74-.33-1.21-1.36-1.21a4,4,0,0,0-2.09.63Zm2.58,3.68c-.93,0-1.36.44-1.36,1s.34.9,1,.9a1.12,1.12,0,0,0,1.19-1.2v-.67Z" style="fill:#2c58c4"/><path d="M38.73,215.55a2.26,2.26,0,0,1,2.18-1.3,2.19,2.19,0,0,1,2.3,2.47v4.72H41.53v-4.37c0-1-.5-1.42-1.25-1.42s-1.55.65-1.55,2v3.81H37.05v-7.11h1.68Z" style="fill:#2c58c4"/><path d="M54,219.29H50.44l-.67,2.15H47.92L51.11,212h2.28l3.2,9.45H54.68Zm-.45-1.44-.12-.42c-1.07-3.42-1.21-4.12-1.21-4.12s-.13.7-1.2,4.13l-.13.41Z" style="fill:#2c58c4"/><path d="M65.66,212.92a1.82,1.82,0,0,0-.7-.14c-.6,0-1,.27-1,1.15v.4h1.43v1.27H63.94v5.84H62.27V215.6H60.1v5.84H58.42V215.6h-1v-1.27h1v-.42a2.31,2.31,0,0,1,2.52-2.53,5.71,5.71,0,0,1,2.19.49,2.53,2.53,0,0,1,1.61-.49,3.33,3.33,0,0,1,.92.12Zm-3.39,1a3.5,3.5,0,0,1,.11-.89,3.72,3.72,0,0,0-1.21-.24c-.66,0-1.07.27-1.07,1.15v.4h2.17Z" style="fill:#2c58c4"/><path d="M66.65,214.7a4.86,4.86,0,0,1,2.3-.49c2,0,2.89.89,2.89,2.69v4.54H70.17v-.86a1.93,1.93,0,0,1-1.85.91,2,2,0,0,1-2.2-2.07c0-1.33,1-2.16,2.94-2.16h1v-.43c0-.74-.32-1.21-1.36-1.21a4,4,0,0,0-2.09.63Zm2.58,3.68c-.92,0-1.36.44-1.36,1s.34.9,1,.9a1.11,1.11,0,0,0,1.19-1.2v-.67Z" style="fill:#2c58c4"/><path d="M74.48,211.2a1,1,0,0,1,1,1,1,1,0,1,1-2,0A1,1,0,0,1,74.48,211.2Zm-.84,3.13h1.68v7.11H73.64Z" style="fill:#2c58c4"/><path d="M78.9,215.6a1.84,1.84,0,0,1,1.79-1.32,2,2,0,0,1,.47,0v1.62a1.67,1.67,0,0,0-.71-.14c-.94,0-1.55.86-1.55,2v3.67H77.2v-7.11H78.9Z" style="fill:#2c58c4"/><path d="M86.4,216a3.62,3.62,0,0,0-1.75-.42c-.59,0-.92.28-.92.68s.71.77,1.45,1.12,1.61.91,1.61,2c0,1.36-1.06,2.12-2.61,2.12a4.81,4.81,0,0,1-2.13-.44v-1.54a3.79,3.79,0,0,0,2,.63c.63,0,1-.25,1-.66,0-.56-.7-.8-1.5-1.13a2.19,2.19,0,0,1-1.56-2c0-1.36,1.18-2.1,2.61-2.1a4.88,4.88,0,0,1,1.79.31Z" style="fill:#2c58c4"/><line x1="285.02" y1="67.38" x2="82.94" y2="277.46" style="fill:none;stroke:#2c58c4;stroke-linecap:round;stroke-linejoin:round;stroke-width:2px"/><rect x="37.29" y="253.36" width="90.44" height="45.74" rx="11.52" style="fill:#fff;stroke:#2c58c4;stroke-miterlimit:10;stroke-width:2px"/><path d="M61.13,262.7c2.76,0,4.47,1.93,4.47,4.86s-1.74,4.84-4.46,4.84-4.46-1.93-4.46-4.84S58.41,262.7,61.13,262.7Zm0,8.08c1.6,0,2.57-1.23,2.57-3.22s-1-3.24-2.58-3.24-2.56,1.25-2.56,3.24S59.57,270.78,61.14,270.78Z" style="fill:#2c58c4"/><path d="M77,272.31H75.35v-5.84H73.17v5.84H71.51v-5.84H69.34v5.84H67.66v-5.84h-1v-1.26h1v-.43a2.31,2.31,0,0,1,2.52-2.53,5.66,5.66,0,0,1,2.18.49,2.62,2.62,0,0,1,1.64-.49,5.64,5.64,0,0,1,2.38.55v1.41a5.12,5.12,0,0,0-2.15-.56c-.65,0-1.06.27-1.06,1.15v.41H77Zm-5.52-7.53a3.5,3.5,0,0,1,.11-.89,3.78,3.78,0,0,0-1.22-.24c-.66,0-1.06.27-1.06,1.15v.41h2.17Z" style="fill:#2c58c4"/><path d="M83.24,271a3.12,3.12,0,0,0,1.62-.48V272a3.92,3.92,0,0,1-1.85.43,3.51,3.51,0,0,1-3.67-3.65,3.56,3.56,0,0,1,3.75-3.69,3.68,3.68,0,0,1,1.77.4V267a3.2,3.2,0,0,0-1.6-.45,2.25,2.25,0,0,0,0,4.5Z" style="fill:#2c58c4"/><path d="M91.72,271.91a4.56,4.56,0,0,1-2.15.47,3.41,3.41,0,0,1-3.65-3.62c0-2.34,1.45-3.62,3.23-3.62s3,1.07,3,3.29a8.8,8.8,0,0,1-.09,1H87.61A2.08,2.08,0,0,0,89.83,271a3.28,3.28,0,0,0,1.89-.56Zm-1.15-4c0-.86-.46-1.51-1.38-1.51-.75,0-1.44.56-1.61,1.73h3Z" style="fill:#2c58c4"/><path d="M96.8,268.83a3.44,3.44,0,0,1,3.42-3.74,3.32,3.32,0,0,1,3.43,3.64c0,2.08-1.21,3.69-3.43,3.69A3.29,3.29,0,0,1,96.8,268.83Zm1.76-.05c0,1.23.56,2.29,1.67,2.29s1.67-1,1.67-2.28-.45-2.32-1.68-2.32S98.56,267.53,98.56,268.78Z" style="fill:#2c58c4"/><path d="M109,263.79a1.86,1.86,0,0,0-.7-.14c-.6,0-1,.27-1,1.15v.41h1.41v1.26h-1.41v5.84h-1.68v-5.84h-1v-1.26h1v-.43a2.3,2.3,0,0,1,2.48-2.53,3,3,0,0,1,.92.13Z" style="fill:#2c58c4"/><path d="M65.54,279.67v9.44H63.76v-4H59.88v4H58.12v-9.44h1.76v3.95h3.88v-3.95Z" style="fill:#2c58c4"/><path d="M67.05,285.64a3.43,3.43,0,0,1,3.42-3.74,3.31,3.31,0,0,1,3.43,3.64c0,2.07-1.2,3.69-3.43,3.69A3.3,3.3,0,0,1,67.05,285.64Zm1.77-.06c0,1.24.56,2.3,1.66,2.3s1.67-1,1.67-2.28-.45-2.33-1.68-2.33S68.82,284.34,68.82,285.58Z" style="fill:#2c58c4"/><path d="M81.44,282v7.1h-1.7V288a2.19,2.19,0,0,1-2.18,1.23,2.12,2.12,0,0,1-2.29-2.36V282H77v4.41c0,.91.48,1.38,1.24,1.38.92,0,1.55-.61,1.55-2V282Z" style="fill:#2c58c4"/><path d="M87.5,283.72a3.62,3.62,0,0,0-1.75-.42c-.59,0-.92.28-.92.67,0,.55.71.77,1.45,1.12s1.61.91,1.61,2c0,1.36-1.06,2.11-2.62,2.11a4.81,4.81,0,0,1-2.12-.43v-1.54a3.79,3.79,0,0,0,2,.63c.63,0,1-.25,1-.66,0-.56-.7-.8-1.5-1.13a2.2,2.2,0,0,1-1.56-2c0-1.36,1.18-2.1,2.61-2.1a4.68,4.68,0,0,1,1.79.31Z" style="fill:#2c58c4"/><path d="M90.15,278.87a1,1,0,0,1,0,2,1,1,0,0,1,0-2ZM89.31,282H91v7.1H89.31Z" style="fill:#2c58c4"/><path d="M94.56,283.23a2.25,2.25,0,0,1,2.18-1.3,2.19,2.19,0,0,1,2.3,2.46v4.72H97.36v-4.37c0-.95-.5-1.41-1.25-1.41s-1.55.64-1.55,2v3.81H92.88V282h1.68Z" style="fill:#2c58c4"/><path d="M107.05,282v6.46a3.15,3.15,0,0,1-3.44,3.38,5.69,5.69,0,0,1-2.46-.51v-1.71a4,4,0,0,0,2.29.67c1.27,0,1.93-.56,1.93-1.84v-.62a2.19,2.19,0,0,1-2,1.05c-1.45,0-2.88-1.07-2.88-3.42,0-2,1.15-3.54,2.93-3.54a2.13,2.13,0,0,1,2,1.1v-1Zm-1.68,3.56c0-1.61-.74-2.2-1.58-2.2s-1.57.83-1.57,2.1.69,2,1.54,2A1.73,1.73,0,0,0,105.37,285.57Z" style="fill:#2c58c4"/><line x1="183.98" y1="23.87" x2="183.98" y2="320.97" style="fill:none;stroke:#2c58c4;stroke-linecap:round;stroke-linejoin:round;stroke-width:2px"/><rect x="138.63" y="1" width="90.44" height="45.74" rx="11.52" style="fill:#fff;stroke:#2c58c4;stroke-miterlimit:10;stroke-width:2px"/><path d="M150.43,10.51a4.53,4.53,0,0,1,4.8,4.59,4.53,4.53,0,0,1-4.8,4.85h-3.08V10.51Zm0,8c2,0,3-1.39,3-3.38A2.91,2.91,0,0,0,150.37,12h-1.22v6.49Z" style="fill:#2c58c4"/><path d="M162.15,19.55A4.55,4.55,0,0,1,160,20a3.42,3.42,0,0,1-3.66-3.62c0-2.34,1.46-3.63,3.24-3.63s3,1.08,3,3.3a8.85,8.85,0,0,1-.1,1h-4.45a2.07,2.07,0,0,0,2.21,1.58,3.26,3.26,0,0,0,1.89-.56Zm-1.15-4c0-.86-.46-1.51-1.37-1.51-.76,0-1.44.56-1.61,1.72h3Z" style="fill:#2c58c4"/><path d="M165.82,13.94A2.45,2.45,0,0,1,168,12.75c1.87,0,3,1.47,3,3.61S169.9,20,168,20a2.41,2.41,0,0,1-2.16-1.16v3.74h-1.68V12.85h1.68Zm3.47,2.45c0-1.44-.74-2.21-1.68-2.21s-1.79.61-1.79,2.17.87,2.25,1.77,2.25S169.29,17.82,169.29,16.39Z" style="fill:#2c58c4"/><path d="M172.64,13.21a4.83,4.83,0,0,1,2.3-.49c2,0,2.88.9,2.88,2.69V20h-1.66v-.86a1.94,1.94,0,0,1-1.85.91,2,2,0,0,1-2.2-2.07c0-1.33,1-2.16,2.94-2.16h1v-.43c0-.74-.33-1.21-1.36-1.21a4,4,0,0,0-2.09.63Zm2.58,3.68c-.93,0-1.36.44-1.36,1s.33.9,1,.9a1.11,1.11,0,0,0,1.19-1.19v-.68Z" style="fill:#2c58c4"/><path d="M181.24,14.11A1.85,1.85,0,0,1,183,12.79a2,2,0,0,1,.48,0v1.63a1.57,1.57,0,0,0-.72-.14c-.93,0-1.55.85-1.55,2V20h-1.7l0-7.1h1.68Z" style="fill:#2c58c4"/><path d="M186.55,17.72a.82.82,0,0,0,.89.91,1.9,1.9,0,0,0,1-.29v1.44a3.31,3.31,0,0,1-1.26.24,2,2,0,0,1-2.29-2.33V14.11H183.8V12.85h1.07V11.14h1.68v1.71h1.76v1.26h-1.76Z" style="fill:#2c58c4"/><path d="M191.49,14a2.14,2.14,0,0,1,2-1.21,1.94,1.94,0,0,1,2,1.35,2.22,2.22,0,0,1,2.12-1.35c1.44,0,2.25.91,2.25,2.51V20h-1.69V15.59c0-.9-.37-1.43-1.1-1.43s-1.4.46-1.4,2V20H194V15.59c0-.9-.37-1.43-1.09-1.43s-1.42.46-1.42,2V20h-1.68v-7.1h1.68Z" style="fill:#2c58c4"/><path d="M207,19.55a4.56,4.56,0,0,1-2.15.47,3.41,3.41,0,0,1-3.65-3.62c0-2.34,1.45-3.63,3.23-3.63s3,1.08,3,3.3a8.8,8.8,0,0,1-.09,1h-4.46a2.09,2.09,0,0,0,2.22,1.58A3.28,3.28,0,0,0,207,18.1Zm-1.15-4c0-.86-.46-1.51-1.37-1.51s-1.45.56-1.62,1.72h3Z" style="fill:#2c58c4"/><path d="M210.71,14.06a2.25,2.25,0,0,1,2.18-1.3,2.19,2.19,0,0,1,2.3,2.47V20h-1.68V15.58c0-1-.51-1.42-1.25-1.42s-1.55.65-1.55,2V20H209v-7.1h1.69Z" style="fill:#2c58c4"/><path d="M219,17.72a.82.82,0,0,0,.9.91,1.93,1.93,0,0,0,1-.29v1.44a3.31,3.31,0,0,1-1.26.24,2.05,2.05,0,0,1-2.3-2.33V14.11h-1.06V12.85h1.06V11.14H219v1.71h1.77v1.26H219Z" style="fill:#2c58c4"/><path d="M145.27,33.28a3.42,3.42,0,0,1,3.42-3.74,3.31,3.31,0,0,1,3.43,3.64c0,2.07-1.21,3.69-3.43,3.69A3.3,3.3,0,0,1,145.27,33.28Zm1.76-.06c0,1.24.56,2.3,1.67,2.3s1.67-1,1.67-2.28-.45-2.33-1.68-2.33S147,32,147,33.22Z" style="fill:#2c58c4"/><path d="M157.51,28.24a1.86,1.86,0,0,0-.7-.14c-.6,0-1,.26-1,1.15v.4h1.41v1.26h-1.41v5.84h-1.68V30.91h-1V29.65h1v-.42a2.3,2.3,0,0,1,2.48-2.53,3,3,0,0,1,.92.12Z" style="fill:#2c58c4"/><path d="M167.49,35.31v1.44h-5.63V27.31h5.58v1.45h-3.8v2.56H167v1.43h-3.38v2.56Z" style="fill:#2c58c4"/><path d="M175.69,26.85v9.9H174v-1.1a2.44,2.44,0,0,1-2.16,1.2c-1.95,0-3-1.74-3-3.64,0-2.28,1.32-3.66,3.07-3.66A2.44,2.44,0,0,1,174,30.74V26.85ZM174,33.14c0-1.56-1-2.16-1.75-2.16s-1.73.77-1.73,2.26c0,1.31.76,2.17,1.71,2.17S174,34.68,174,33.14Z" style="fill:#2c58c4"/><path d="M183.6,29.65v7.1h-1.69V35.59a2.21,2.21,0,0,1-2.19,1.23,2.12,2.12,0,0,1-2.28-2.36V29.65h1.68v4.41c0,.91.48,1.38,1.23,1.38.93,0,1.56-.61,1.56-2V29.65Z" style="fill:#2c58c4"/><path d="M189,35.46a3.15,3.15,0,0,0,1.61-.47v1.45a3.89,3.89,0,0,1-1.85.44A3.51,3.51,0,0,1,185,33.22a3.56,3.56,0,0,1,3.76-3.68,3.74,3.74,0,0,1,1.76.39v1.49A3.08,3.08,0,0,0,189,31a2.25,2.25,0,0,0,0,4.49Z" style="fill:#2c58c4"/><path d="M192.19,30a4.78,4.78,0,0,1,2.29-.49c2,0,2.89.89,2.89,2.69v4.53H195.7V35.9a1.93,1.93,0,0,1-1.85.91,2,2,0,0,1-2.2-2.07c0-1.33,1-2.16,2.94-2.16h1v-.44c0-.74-.32-1.2-1.36-1.2a4,4,0,0,0-2.08.63Zm2.57,3.68c-.92,0-1.36.43-1.36,1s.34.89,1,.89a1.11,1.11,0,0,0,1.19-1.19V33.7Z" style="fill:#2c58c4"/><path d="M201.15,34.53a.82.82,0,0,0,.89.91,1.91,1.91,0,0,0,1-.3v1.45a3.5,3.5,0,0,1-1.26.23,2,2,0,0,1-2.29-2.32V30.91H198.4V29.65h1.07V27.94h1.68v1.71h1.76v1.26h-1.76Z" style="fill:#2c58c4"/><path d="M205.32,26.51a1,1,0,1,1-1,1A1,1,0,0,1,205.32,26.51Zm-.84,3.14h1.68v7.1h-1.68Z" style="fill:#2c58c4"/><path d="M207.67,33.28a3.43,3.43,0,0,1,3.42-3.74,3.31,3.31,0,0,1,3.43,3.64c0,2.07-1.2,3.69-3.43,3.69A3.3,3.3,0,0,1,207.67,33.28Zm1.77-.06c0,1.24.56,2.3,1.67,2.3s1.66-1,1.66-2.28-.45-2.33-1.68-2.33S209.44,32,209.44,33.22Z" style="fill:#2c58c4"/><path d="M217.65,30.87a2.23,2.23,0,0,1,2.18-1.3,2.19,2.19,0,0,1,2.3,2.46v4.72h-1.68V32.38c0-1-.51-1.41-1.25-1.41s-1.55.64-1.55,2v3.81H216v-7.1h1.69Z" style="fill:#2c58c4"/><rect x="237.34" y="45.86" width="90.44" height="45.74" rx="11.52" style="fill:#fff;stroke:#2c58c4;stroke-miterlimit:10;stroke-width:2px"/><path d="M260.54,55.37c2.08,0,3.19,1.1,3.19,2.56a2.1,2.1,0,0,1-1.5,2.09A2.15,2.15,0,0,1,264,62.26c0,1.45-1.07,2.55-3,2.55h-3.82V55.37Zm-1.59,4H260c1.33,0,1.9-.61,1.9-1.34s-.49-1.19-1.61-1.19H259Zm1.52,4c1.13,0,1.69-.44,1.69-1.28s-.5-1.32-1.76-1.32H259v2.6Z" style="fill:#2c58c4"/><path d="M265,61.33a3.44,3.44,0,0,1,3.42-3.74,3.32,3.32,0,0,1,3.43,3.64c0,2.08-1.2,3.69-3.43,3.69A3.29,3.29,0,0,1,265,61.33Zm1.77,0c0,1.23.56,2.29,1.66,2.29s1.67-1,1.67-2.28S269.68,59,268.45,59,266.8,60,266.8,61.28Z" style="fill:#2c58c4"/><path d="M273.51,58.07a4.78,4.78,0,0,1,2.29-.49c2,0,2.89.9,2.89,2.69v4.54H277V64a1.92,1.92,0,0,1-1.85.91,2,2,0,0,1-2.2-2.07c0-1.33,1-2.16,2.94-2.16h1V60.2c0-.74-.32-1.21-1.36-1.21a4,4,0,0,0-2.08.63Zm2.57,3.68c-.92,0-1.36.44-1.36,1s.34.9,1,.9A1.11,1.11,0,0,0,277,62.43v-.68Z" style="fill:#2c58c4"/><path d="M282.1,59a1.86,1.86,0,0,1,1.8-1.32,2,2,0,0,1,.47,0v1.63a1.53,1.53,0,0,0-.71-.14c-.94,0-1.56.85-1.56,2v3.67h-1.69v-7.1h1.68Z" style="fill:#2c58c4"/><path d="M291.87,54.9v9.91h-1.68V63.7A2.44,2.44,0,0,1,288,64.9c-1.95,0-3-1.73-3-3.64,0-2.28,1.32-3.65,3.07-3.65a2.42,2.42,0,0,1,2.13,1.19V54.9Zm-1.68,6.29c0-1.55-1-2.15-1.75-2.15s-1.73.77-1.73,2.25c0,1.32.76,2.17,1.71,2.17S290.19,62.73,290.19,61.19Z" style="fill:#2c58c4"/><path d="M296.78,61.33a3.44,3.44,0,0,1,3.42-3.74,3.32,3.32,0,0,1,3.43,3.64c0,2.08-1.2,3.69-3.43,3.69A3.29,3.29,0,0,1,296.78,61.33Zm1.77,0c0,1.23.56,2.29,1.66,2.29s1.67-1,1.67-2.28S301.43,59,300.2,59,298.55,60,298.55,61.28Z" style="fill:#2c58c4"/><path d="M309,56.29a1.82,1.82,0,0,0-.7-.14c-.6,0-1,.27-1,1.15v.41h1.41V59H307.3v5.84h-1.68V59h-1V57.71h1v-.43a2.3,2.3,0,0,1,2.48-2.53,3,3,0,0,1,.92.13Z" style="fill:#2c58c4"/><path d="M255.52,72.17h2l1.29,3.43c.74,2,1.18,3.45,1.18,3.45s.43-1.46,1.2-3.45l1.32-3.43h2l.92,9.44H263.7l-.34-3.68c-.17-1.86-.25-3.31-.25-3.31s-.51,1.45-1.21,3.31l-1.31,3.54h-1.21l-1.29-3.54c-.74-2.07-1.1-3.26-1.1-3.26,0,.56-.09,1.87-.19,3.26l-.28,3.68h-1.76Z" style="fill:#2c58c4"/><path d="M272.6,81.22a4.64,4.64,0,0,1-2.14.46,3.41,3.41,0,0,1-3.66-3.61c0-2.34,1.46-3.63,3.24-3.63s3,1.08,3,3.29a8.43,8.43,0,0,1-.1,1H268.5a2.07,2.07,0,0,0,2.21,1.58,3.19,3.19,0,0,0,1.89-.56Zm-1.15-4c0-.87-.46-1.51-1.37-1.51-.76,0-1.44.56-1.61,1.72h3Z" style="fill:#2c58c4"/><path d="M281.09,71.71v9.9h-1.68v-1.1a2.43,2.43,0,0,1-2.16,1.2c-1.94,0-3-1.74-3-3.64,0-2.28,1.32-3.66,3.07-3.66a2.44,2.44,0,0,1,2.13,1.19V71.71ZM279.41,78c0-1.56-1-2.16-1.75-2.16s-1.72.77-1.72,2.26c0,1.31.75,2.17,1.7,2.17S279.41,79.54,279.41,78Z" style="fill:#2c58c4"/><path d="M283.82,71.37a1,1,0,1,1-1,1A1,1,0,0,1,283.82,71.37ZM283,74.51h1.68v7.1H283Z" style="fill:#2c58c4"/><path d="M290.08,80.32a3.15,3.15,0,0,0,1.61-.47V81.3a3.75,3.75,0,0,1-1.85.44,3.51,3.51,0,0,1-3.67-3.66,3.57,3.57,0,0,1,3.76-3.68,3.74,3.74,0,0,1,1.76.39v1.49a3.08,3.08,0,0,0-1.6-.45,2.25,2.25,0,0,0,0,4.49Z" style="fill:#2c58c4"/><path d="M294,71.37a1,1,0,1,1-1,1A1,1,0,0,1,294,71.37Zm-.84,3.14h1.68v7.1H293.2Z" style="fill:#2c58c4"/><path d="M298.46,75.73a2.23,2.23,0,0,1,2.18-1.3,2.19,2.19,0,0,1,2.3,2.46v4.72h-1.68V77.24c0-.95-.51-1.41-1.25-1.41s-1.55.64-1.55,2v3.81h-1.69v-7.1h1.69Z" style="fill:#2c58c4"/><path d="M310.11,81.22a4.68,4.68,0,0,1-2.15.46,3.41,3.41,0,0,1-3.65-3.61c0-2.34,1.46-3.63,3.23-3.63s3,1.08,3,3.29a8.43,8.43,0,0,1-.1,1H306a2.08,2.08,0,0,0,2.22,1.58,3.19,3.19,0,0,0,1.89-.56Zm-1.15-4c0-.87-.46-1.51-1.37-1.51-.76,0-1.45.56-1.61,1.72h3Z" style="fill:#2c58c4"/><rect x="278.81" y="115.09" width="90.44" height="45.74" rx="11.52" style="fill:#fff;stroke:#2c58c4;stroke-miterlimit:10;stroke-width:2px"/><path d="M290.61,124.59a4.72,4.72,0,1,1,0,9.44h-3.09v-9.44Zm0,8c2,0,3-1.38,3-3.37a2.91,2.91,0,0,0-3.06-3.11h-1.22v6.48Z" style="fill:#2c58c4"/><path d="M302.33,133.64a4.67,4.67,0,0,1-2.14.46,3.41,3.41,0,0,1-3.66-3.61c0-2.34,1.46-3.63,3.24-3.63s3,1.08,3,3.29a8.63,8.63,0,0,1-.1,1h-4.45a2.06,2.06,0,0,0,2.21,1.58,3.19,3.19,0,0,0,1.89-.56Zm-1.15-3.95c0-.87-.46-1.51-1.37-1.51-.76,0-1.45.56-1.61,1.72h3Z" style="fill:#2c58c4"/><path d="M306,128a2.46,2.46,0,0,1,2.17-1.19c1.86,0,3,1.47,3,3.62s-1.11,3.68-3,3.68A2.43,2.43,0,0,1,306,133v3.74h-1.68v-9.78H306Zm3.47,2.45c0-1.44-.74-2.21-1.68-2.21s-1.79.62-1.79,2.17.87,2.26,1.76,2.26S309.47,131.9,309.47,130.47Z" style="fill:#2c58c4"/><path d="M312.82,127.3a4.77,4.77,0,0,1,2.29-.5c2,0,2.89.9,2.89,2.69V134h-1.67v-.85a1.91,1.91,0,0,1-1.84.91,2,2,0,0,1-2.2-2.08c0-1.33,1-2.15,2.94-2.15h1v-.44c0-.74-.32-1.2-1.35-1.2a4,4,0,0,0-2.09.63ZM315.4,131c-.93,0-1.36.43-1.36,1s.33.89,1,.89a1.11,1.11,0,0,0,1.19-1.19V131Z" style="fill:#2c58c4"/><path d="M321.42,128.19a1.85,1.85,0,0,1,1.79-1.32,1.67,1.67,0,0,1,.48,0v1.62a1.71,1.71,0,0,0-.72-.14c-.94,0-1.55.86-1.55,2V134h-1.7l0-7.1h1.68Z" style="fill:#2c58c4"/><path d="M326.73,131.8a.82.82,0,0,0,.89.92,1.94,1.94,0,0,0,1-.3v1.44a3.31,3.31,0,0,1-1.26.24,2,2,0,0,1-2.3-2.32v-3.59H324v-1.26H325v-1.71h1.69v1.71h1.76v1.26h-1.76Z" style="fill:#2c58c4"/><path d="M331.67,128.05a2.15,2.15,0,0,1,2-1.2,2,2,0,0,1,2,1.34,2.23,2.23,0,0,1,2.11-1.34c1.45,0,2.26.91,2.26,2.5V134h-1.7v-4.35c0-.9-.36-1.43-1.09-1.43-.58,0-1.4.46-1.4,2V134h-1.69v-4.35c0-.9-.37-1.43-1.1-1.43s-1.41.46-1.41,2V134H330v-7.1h1.68Z" style="fill:#2c58c4"/><path d="M347.21,133.64a4.61,4.61,0,0,1-2.14.46,3.41,3.41,0,0,1-3.65-3.61c0-2.34,1.45-3.63,3.23-3.63s3,1.08,3,3.29a8.61,8.61,0,0,1-.09,1h-4.46a2.07,2.07,0,0,0,2.21,1.58,3.17,3.17,0,0,0,1.89-.56Zm-1.14-3.95c-.05-.87-.46-1.51-1.38-1.51-.75,0-1.44.56-1.61,1.72h3Z" style="fill:#2c58c4"/><path d="M350.88,128.15a2.25,2.25,0,0,1,2.19-1.3,2.19,2.19,0,0,1,2.3,2.46V134h-1.68v-4.37c0-.95-.51-1.41-1.25-1.41s-1.56.64-1.56,2V134H349.2v-7.1h1.68Z" style="fill:#2c58c4"/><path d="M359.16,131.8a.83.83,0,0,0,.9.92,1.94,1.94,0,0,0,1-.3v1.44a3.31,3.31,0,0,1-1.26.24,2,2,0,0,1-2.3-2.32v-3.59h-1.06v-1.26h1.06v-1.71h1.68v1.71h1.77v1.26h-1.77Z" style="fill:#2c58c4"/><path d="M289.67,147.37a3.43,3.43,0,0,1,3.42-3.74,3.31,3.31,0,0,1,3.43,3.64c0,2.07-1.21,3.68-3.43,3.68A3.29,3.29,0,0,1,289.67,147.37Zm1.76-.06c0,1.23.56,2.3,1.67,2.3s1.67-1,1.67-2.29-.45-2.32-1.68-2.32S291.43,146.06,291.43,147.31Z" style="fill:#2c58c4"/><path d="M301.91,142.32a1.82,1.82,0,0,0-.7-.14c-.6,0-1,.27-1,1.15v.41h1.41V145h-1.41v5.84h-1.68V145h-1v-1.26h1v-.42a2.3,2.3,0,0,1,2.48-2.54,3,3,0,0,1,.92.13Z" style="fill:#2c58c4"/><path d="M309,147.39h-1v3.45h-1.76V141.4h2.91c2.17,0,3.44,1.2,3.44,3a2.77,2.77,0,0,1-1.79,2.73l2.43,3.73h-2.12Zm-1-1.45h1.18a1.55,1.55,0,1,0,0-3.09H308Z" style="fill:#2c58c4"/><path d="M319.86,150.45a4.61,4.61,0,0,1-2.14.46,3.41,3.41,0,0,1-3.65-3.61c0-2.34,1.45-3.63,3.23-3.63s3,1.08,3,3.29a7,7,0,0,1-.1,1h-4.45a2.07,2.07,0,0,0,2.21,1.58,3.19,3.19,0,0,0,1.89-.56Zm-1.14-3.95c-.05-.87-.47-1.52-1.38-1.52-.75,0-1.44.56-1.61,1.73h3Z" style="fill:#2c58c4"/><path d="M321.12,143.74h1.77l.94,3a26.23,26.23,0,0,1,.77,2.77,23.81,23.81,0,0,1,.8-2.77l1-3h1.73l-2.6,7.1h-1.82Z" style="fill:#2c58c4"/><path d="M334.61,150.45a4.64,4.64,0,0,1-2.14.46,3.42,3.42,0,0,1-3.66-3.61c0-2.34,1.46-3.63,3.24-3.63s3,1.08,3,3.29a8.85,8.85,0,0,1-.1,1h-4.45a2.07,2.07,0,0,0,2.21,1.58,3.19,3.19,0,0,0,1.89-.56Zm-1.15-3.95c0-.87-.46-1.52-1.37-1.52-.76,0-1.44.56-1.61,1.73h3Z" style="fill:#2c58c4"/><path d="M338.28,145a2.25,2.25,0,0,1,2.18-1.31,2.19,2.19,0,0,1,2.3,2.47v4.72h-1.68v-4.37c0-.95-.5-1.42-1.24-1.42s-1.56.65-1.56,2v3.81H336.6v-7.1h1.68Z" style="fill:#2c58c4"/><path d="M350.61,143.74v7.1h-1.7v-1.16a2.21,2.21,0,0,1-2.18,1.23,2.13,2.13,0,0,1-2.29-2.37v-4.8h1.68v4.41c0,.91.48,1.37,1.24,1.37.92,0,1.55-.6,1.55-2v-3.81Z" style="fill:#2c58c4"/><path d="M357.85,150.45a4.68,4.68,0,0,1-2.15.46,3.41,3.41,0,0,1-3.65-3.61c0-2.34,1.45-3.63,3.23-3.63s3,1.08,3,3.29a7,7,0,0,1-.1,1h-4.45a2.07,2.07,0,0,0,2.21,1.58,3.24,3.24,0,0,0,1.9-.56Zm-1.15-3.95c-.05-.87-.47-1.52-1.38-1.52-.75,0-1.44.56-1.61,1.73h3Z" style="fill:#2c58c4"/><rect x="278.86" y="186.43" width="90.44" height="45.74" rx="11.52" style="fill:#fff;stroke:#2c58c4;stroke-miterlimit:10;stroke-width:2px"/><path d="M302.71,195.77c2.76,0,4.46,1.93,4.46,4.86s-1.73,4.85-4.45,4.85-4.47-1.93-4.47-4.85S300,195.77,302.71,195.77Zm0,8.08c1.6,0,2.56-1.23,2.56-3.22s-1-3.23-2.57-3.23-2.57,1.24-2.57,3.23S301.15,203.85,302.72,203.85Z" style="fill:#2c58c4"/><path d="M318.6,205.38h-1.68v-5.84h-2.17v5.84h-1.67v-5.84h-2.17v5.84h-1.68v-5.84h-1v-1.26h1v-.42a2.32,2.32,0,0,1,2.52-2.54,5.71,5.71,0,0,1,2.19.49,2.58,2.58,0,0,1,1.64-.49,5.64,5.64,0,0,1,2.38.55v1.41a5.32,5.32,0,0,0-2.16-.56c-.64,0-1.05.27-1.05,1.15v.41h3.85Zm-5.52-7.52a3.63,3.63,0,0,1,.12-.9,3.83,3.83,0,0,0-1.22-.24c-.66,0-1.07.27-1.07,1.15v.41h2.17Z" style="fill:#2c58c4"/><path d="M324.82,204.09a3.15,3.15,0,0,0,1.61-.47v1.45a3.89,3.89,0,0,1-1.85.44,3.51,3.51,0,0,1-3.67-3.66,3.56,3.56,0,0,1,3.76-3.68,3.74,3.74,0,0,1,1.76.39V200a3.16,3.16,0,0,0-1.6-.44,2.25,2.25,0,0,0,0,4.49Z" style="fill:#2c58c4"/><path d="M333.29,205a4.64,4.64,0,0,1-2.14.46,3.42,3.42,0,0,1-3.66-3.61c0-2.34,1.46-3.63,3.24-3.63s3,1.08,3,3.29a6.91,6.91,0,0,1-.1,1h-4.45a2.07,2.07,0,0,0,2.21,1.58,3.19,3.19,0,0,0,1.89-.56Zm-1.15-4c0-.87-.46-1.52-1.37-1.52-.75,0-1.44.57-1.61,1.73h3Z" style="fill:#2c58c4"/><path d="M338.38,201.91a3.42,3.42,0,0,1,3.41-3.74,3.67,3.67,0,0,1,0,7.32A3.29,3.29,0,0,1,338.38,201.91Zm1.76-.06c0,1.23.56,2.3,1.67,2.3s1.66-1,1.66-2.29-.44-2.32-1.68-2.32S340.14,200.6,340.14,201.85Z" style="fill:#2c58c4"/><path d="M350.62,196.86a2.12,2.12,0,0,0-.7-.14c-.61,0-1,.27-1,1.15v.41h1.42v1.26h-1.42v5.84h-1.68v-5.84h-1v-1.26h1v-.42a2.31,2.31,0,0,1,2.48-2.54,3,3,0,0,1,.93.13Z" style="fill:#2c58c4"/><path d="M295.52,214.86a4.2,4.2,0,0,0-2.36-.62,3.22,3.22,0,0,0,.1,6.43,3.94,3.94,0,0,0,2.27-.7v1.77a4.7,4.7,0,0,1-2.44.56,4.84,4.84,0,0,1,0-9.68,4.77,4.77,0,0,1,2.43.52Z" style="fill:#2c58c4"/><path d="M296.72,218.71a3.43,3.43,0,0,1,3.42-3.74,3.32,3.32,0,0,1,3.43,3.64c0,2.08-1.21,3.69-3.43,3.69A3.29,3.29,0,0,1,296.72,218.71Zm1.76-.05c0,1.23.56,2.29,1.67,2.29s1.67-1,1.67-2.28-.45-2.32-1.68-2.32S298.48,217.41,298.48,218.66Z" style="fill:#2c58c4"/><path d="M306.69,216.21a2.14,2.14,0,0,1,2-1.21,1.94,1.94,0,0,1,2,1.35,2.22,2.22,0,0,1,2.11-1.35c1.45,0,2.26.91,2.26,2.51v4.68h-1.69v-4.36c0-.9-.37-1.43-1.1-1.43s-1.4.46-1.4,2v3.81H309.2v-4.36c0-.9-.37-1.43-1.1-1.43s-1.41.46-1.41,2v3.81H305v-7.1h1.68Z" style="fill:#2c58c4"/><path d="M318.5,216.18a2.44,2.44,0,0,1,2.17-1.19c1.86,0,3,1.47,3,3.61s-1.12,3.68-3,3.68a2.39,2.39,0,0,1-2.15-1.16v3.74h-1.69v-9.77h1.69Zm3.47,2.45c0-1.44-.74-2.21-1.68-2.21s-1.79.61-1.79,2.17.86,2.25,1.76,2.25S322,220.06,322,218.63Z" style="fill:#2c58c4"/><path d="M325.2,212.28h1.68v9.91H325.2Z" style="fill:#2c58c4"/><path d="M329.69,212a1,1,0,0,1,0,2,1,1,0,0,1,0-2Zm-.84,3.14h1.68v7.1h-1.68Z" style="fill:#2c58c4"/><path d="M332.6,215.45a4.83,4.83,0,0,1,2.3-.49c2,0,2.88.9,2.88,2.69v4.54h-1.67v-.86a1.91,1.91,0,0,1-1.84.91,2,2,0,0,1-2.2-2.07c0-1.33,1-2.16,2.94-2.16h1v-.43c0-.74-.32-1.21-1.35-1.21a4,4,0,0,0-2.09.63Zm2.58,3.68c-.93,0-1.36.44-1.36,1s.33.9,1,.9a1.11,1.11,0,0,0,1.19-1.19v-.68Z" style="fill:#2c58c4"/><path d="M341.2,216.3a2.26,2.26,0,0,1,2.18-1.3,2.19,2.19,0,0,1,2.3,2.47v4.72H344v-4.37c0-1-.5-1.42-1.25-1.42s-1.55.65-1.55,2v3.81h-1.68v-7.1h1.68Z" style="fill:#2c58c4"/><path d="M351,220.9a3.06,3.06,0,0,0,1.61-.48v1.46a3.89,3.89,0,0,1-1.85.43,3.51,3.51,0,0,1-3.67-3.65,3.57,3.57,0,0,1,3.76-3.69,3.64,3.64,0,0,1,1.76.4v1.48a3.17,3.17,0,0,0-1.6-.45,2.25,2.25,0,0,0,0,4.5Z" style="fill:#2c58c4"/><path d="M359.43,221.79a4.52,4.52,0,0,1-2.14.47,3.42,3.42,0,0,1-3.66-3.62c0-2.34,1.46-3.63,3.24-3.63s3,1.08,3,3.3a8.85,8.85,0,0,1-.1,1h-4.45a2.07,2.07,0,0,0,2.21,1.58,3.26,3.26,0,0,0,1.89-.56Zm-1.15-3.95c0-.86-.46-1.51-1.37-1.51s-1.44.56-1.61,1.72h3Z" style="fill:#2c58c4"/><rect x="237.34" y="253.36" width="90.44" height="45.74" rx="11.52" style="fill:#fff;stroke:#2c58c4;stroke-miterlimit:10;stroke-width:2px"/><path d="M249.14,262.86a4.73,4.73,0,1,1,0,9.45h-3.08v-9.45Zm0,8c2,0,3-1.39,3-3.38a2.91,2.91,0,0,0-3-3.11h-1.22v6.49Z" style="fill:#2c58c4"/><path d="M260.86,271.91a4.5,4.5,0,0,1-2.14.47,3.41,3.41,0,0,1-3.65-3.62c0-2.34,1.45-3.63,3.23-3.63s3,1.08,3,3.3a8.44,8.44,0,0,1-.09,1h-4.46A2.07,2.07,0,0,0,259,271a3.26,3.26,0,0,0,1.89-.56Zm-1.14-4c-.05-.86-.47-1.51-1.38-1.51-.75,0-1.44.56-1.61,1.72h3Z" style="fill:#2c58c4"/><path d="M264.53,266.3a2.46,2.46,0,0,1,2.18-1.19c1.86,0,3,1.47,3,3.61s-1.12,3.68-3,3.68a2.41,2.41,0,0,1-2.16-1.16V275h-1.68V265.2h1.68Zm3.48,2.45c0-1.45-.74-2.22-1.68-2.22s-1.8.62-1.8,2.18.87,2.25,1.77,2.25S268,270.18,268,268.75Z" style="fill:#2c58c4"/><path d="M271.35,265.57a4.86,4.86,0,0,1,2.3-.49c2,0,2.89.89,2.89,2.69v4.54h-1.67v-.86a1.93,1.93,0,0,1-1.85.91,2,2,0,0,1-2.2-2.07c0-1.33,1-2.16,2.94-2.16h1v-.43c0-.74-.32-1.21-1.36-1.21a4,4,0,0,0-2.09.63Zm2.58,3.68c-.92,0-1.36.44-1.36,1s.34.9,1,.9a1.11,1.11,0,0,0,1.19-1.19v-.68Z" style="fill:#2c58c4"/><path d="M280,266.47a1.86,1.86,0,0,1,1.8-1.32,2,2,0,0,1,.47,0v1.62a1.65,1.65,0,0,0-.71-.13c-.94,0-1.56.85-1.56,2v3.67h-1.69V265.2H280Z" style="fill:#2c58c4"/><path d="M285.26,270.08a.82.82,0,0,0,.9.91,1.85,1.85,0,0,0,1-.3v1.45a3.31,3.31,0,0,1-1.26.24,2.05,2.05,0,0,1-2.3-2.33v-3.58h-1.06V265.2h1.06v-1.7h1.68v1.7H287v1.27h-1.77Z" style="fill:#2c58c4"/><path d="M290.21,266.32a2.14,2.14,0,0,1,2-1.2,2,2,0,0,1,2,1.35,2.21,2.21,0,0,1,2.11-1.35c1.44,0,2.26.91,2.26,2.51v4.68h-1.7V268c0-.9-.36-1.43-1.09-1.43s-1.4.46-1.4,2v3.81h-1.7V268c0-.9-.36-1.43-1.09-1.43s-1.41.46-1.41,2v3.81h-1.69V265.2h1.69Z" style="fill:#2c58c4"/><path d="M305.75,271.91a4.55,4.55,0,0,1-2.14.47,3.42,3.42,0,0,1-3.66-3.62c0-2.34,1.46-3.63,3.24-3.63s3,1.08,3,3.3a8.47,8.47,0,0,1-.1,1h-4.45a2.07,2.07,0,0,0,2.21,1.59,3.26,3.26,0,0,0,1.89-.56Zm-1.15-4c0-.86-.46-1.51-1.37-1.51s-1.44.56-1.61,1.72h3Z" style="fill:#2c58c4"/><path d="M309.42,266.42a2.27,2.27,0,0,1,2.19-1.3,2.19,2.19,0,0,1,2.29,2.47v4.72h-1.68v-4.37c0-1-.5-1.42-1.24-1.42s-1.56.65-1.56,2v3.81h-1.68V265.2h1.68Z" style="fill:#2c58c4"/><path d="M317.7,270.08a.82.82,0,0,0,.89.91,1.85,1.85,0,0,0,1-.3v1.45a3.31,3.31,0,0,1-1.26.24,2,2,0,0,1-2.29-2.33v-3.58H315V265.2H316v-1.7h1.68v1.7h1.76v1.27H317.7Z" style="fill:#2c58c4"/><path d="M253.57,285.64A3.43,3.43,0,0,1,257,281.9a3.31,3.31,0,0,1,3.43,3.64c0,2.07-1.2,3.68-3.43,3.68A3.3,3.3,0,0,1,253.57,285.64Zm1.77-.06c0,1.24.56,2.3,1.67,2.3s1.66-1,1.66-2.28-.44-2.33-1.68-2.33S255.34,284.34,255.34,285.58Z" style="fill:#2c58c4"/><path d="M265.82,280.6a1.89,1.89,0,0,0-.7-.14c-.61,0-1,.26-1,1.14V282h1.42v1.26h-1.42v5.84h-1.68v-5.84h-1V282h1v-.42a2.31,2.31,0,0,1,2.48-2.54,3,3,0,0,1,.93.13Z" style="fill:#2c58c4"/><path d="M275.8,287.67v1.44h-5.63v-9.44h5.58v1.44H272v2.57h3.38v1.43H272v2.56Z" style="fill:#2c58c4"/><path d="M279.18,283.23a2.23,2.23,0,0,1,2.18-1.3,2.19,2.19,0,0,1,2.3,2.46v4.72H282v-4.37c0-.95-.51-1.41-1.25-1.41s-1.55.64-1.55,2v3.81h-1.69V282h1.69Z" style="fill:#2c58c4"/><path d="M290.83,288.72a4.67,4.67,0,0,1-2.14.46,3.41,3.41,0,0,1-3.66-3.61c0-2.34,1.46-3.63,3.24-3.63s3,1.08,3,3.29a8.63,8.63,0,0,1-.1,1h-4.45a2.06,2.06,0,0,0,2.21,1.58,3.19,3.19,0,0,0,1.89-.56Zm-1.15-4c0-.87-.46-1.51-1.37-1.51-.76,0-1.45.56-1.61,1.72h3Z" style="fill:#2c58c4"/><path d="M294.5,283.27a1.85,1.85,0,0,1,1.79-1.32,1.7,1.7,0,0,1,.48.05v1.62a1.74,1.74,0,0,0-.72-.14c-.94,0-1.55.86-1.55,2v3.67h-1.7l0-7.1h1.68Z" style="fill:#2c58c4"/><path d="M304,282v6.46a3.14,3.14,0,0,1-3.44,3.37,5.83,5.83,0,0,1-2.46-.5v-1.71a4.11,4.11,0,0,0,2.29.67c1.27,0,1.93-.56,1.93-1.85v-.61a2.21,2.21,0,0,1-2,1.05c-1.45,0-2.88-1.07-2.88-3.42,0-2,1.15-3.54,2.93-3.54a2.13,2.13,0,0,1,2,1.1v-1Zm-1.68,3.56c0-1.61-.74-2.2-1.58-2.2s-1.57.83-1.57,2.1.69,2,1.54,2A1.73,1.73,0,0,0,302.34,285.57Z" style="fill:#2c58c4"/><path d="M304.93,282h1.86l.83,2.27a27.45,27.45,0,0,1,.94,2.76s.14-.49.89-2.76l.75-2.27H312l-2.56,6.91c-.77,2-1.88,2.84-3.25,2.84a2.6,2.6,0,0,1-.7-.07V290.3a1.6,1.6,0,0,0,.47.06,1.84,1.84,0,0,0,1.81-1.39Z" style="fill:#2c58c4"/><rect x="138.76" y="296.66" width="90.44" height="45.74" rx="11.52" style="fill:#fff;stroke:#2c58c4;stroke-miterlimit:10;stroke-width:2px"/><path d="M164.51,307.62h-2.4v8h-1.77v-8h-2.4v-1.46h6.57Z" style="fill:#2c58c4"/><path d="M167.45,309.76a1.85,1.85,0,0,1,1.79-1.31,2,2,0,0,1,.48,0v1.62A1.69,1.69,0,0,0,169,310c-.94,0-1.56.86-1.56,2v3.67h-1.69v-7.1h1.68Z" style="fill:#2c58c4"/><path d="M176.13,315.21a4.62,4.62,0,0,1-2.14.47,3.41,3.41,0,0,1-3.65-3.62c0-2.34,1.45-3.63,3.23-3.63s3,1.08,3,3.29a6.78,6.78,0,0,1-.1,1H172a2.07,2.07,0,0,0,2.21,1.59,3.26,3.26,0,0,0,1.89-.56ZM175,311.26c-.05-.87-.47-1.51-1.38-1.51-.75,0-1.44.56-1.61,1.72h3Z" style="fill:#2c58c4"/><path d="M178.3,308.87a4.86,4.86,0,0,1,2.3-.49c2,0,2.89.89,2.89,2.69v4.53h-1.67v-.85a1.93,1.93,0,0,1-1.85.91,2,2,0,0,1-2.2-2.07c0-1.33,1-2.16,2.94-2.16h1V311c0-.75-.32-1.21-1.36-1.21a4,4,0,0,0-2.09.63Zm2.58,3.68c-.92,0-1.36.44-1.36,1s.34.89,1,.89a1.11,1.11,0,0,0,1.19-1.19v-.67Z" style="fill:#2c58c4"/><path d="M189.47,310.21a3.62,3.62,0,0,0-1.75-.42c-.59,0-.93.28-.93.67,0,.55.72.77,1.46,1.12s1.61.92,1.61,2c0,1.36-1.07,2.12-2.62,2.12a4.88,4.88,0,0,1-2.13-.44V313.7a3.79,3.79,0,0,0,2,.63c.63,0,1-.25,1-.66,0-.56-.7-.8-1.5-1.13a2.19,2.19,0,0,1-1.55-2c0-1.36,1.17-2.1,2.6-2.1a4.94,4.94,0,0,1,1.8.31Z" style="fill:#2c58c4"/><path d="M197.3,308.5v7.1h-1.7v-1.16a2.2,2.2,0,0,1-2.18,1.24,2.13,2.13,0,0,1-2.29-2.37V308.5h1.68v4.42c0,.91.48,1.37,1.24,1.37.92,0,1.55-.6,1.55-2V308.5Z" style="fill:#2c58c4"/><path d="M200.8,309.76a1.84,1.84,0,0,1,1.79-1.31,2,2,0,0,1,.47,0v1.62a1.67,1.67,0,0,0-.71-.14c-.94,0-1.55.86-1.55,2v3.67h-1.7v-7.1h1.69Z" style="fill:#2c58c4"/><path d="M203.23,308.5h1.87l.82,2.27a27.45,27.45,0,0,1,.94,2.76s.14-.49.9-2.76l.74-2.27h1.76l-2.56,6.91c-.77,2-1.88,2.84-3.25,2.84a2.6,2.6,0,0,1-.7-.07V316.8a2,2,0,0,0,.48.05,1.83,1.83,0,0,0,1.8-1.38Z" style="fill:#2c58c4"/><path d="M150.56,323a4.72,4.72,0,1,1,0,9.44h-3.08V323Zm0,8c2,0,3-1.39,3-3.38a2.91,2.91,0,0,0-3.06-3.1h-1.21v6.48Z" style="fill:#2c58c4"/><path d="M162.28,332a4.61,4.61,0,0,1-2.14.46,3.42,3.42,0,0,1-3.66-3.61c0-2.34,1.46-3.63,3.24-3.63s3,1.08,3,3.29a6.91,6.91,0,0,1-.1,1h-4.45a2.07,2.07,0,0,0,2.21,1.58,3.19,3.19,0,0,0,1.89-.56Zm-1.15-3.95c0-.87-.46-1.51-1.37-1.51-.75,0-1.44.56-1.61,1.72h3Z" style="fill:#2c58c4"/><path d="M166,326.4a2.48,2.48,0,0,1,2.17-1.19c1.87,0,3,1.47,3,3.62s-1.12,3.68-3,3.68a2.43,2.43,0,0,1-2.16-1.16v3.74h-1.68v-9.78H166Zm3.48,2.45c0-1.44-.75-2.21-1.68-2.21s-1.8.62-1.8,2.17.87,2.26,1.77,2.26S169.43,330.28,169.43,328.85Z" style="fill:#2c58c4"/><path d="M172.77,325.67a5,5,0,0,1,2.3-.49c2,0,2.88.9,2.88,2.69v4.54h-1.66v-.85a1.94,1.94,0,0,1-1.85.91,2,2,0,0,1-2.2-2.08c0-1.33,1-2.15,2.94-2.15h1v-.44c0-.74-.32-1.2-1.36-1.2a4,4,0,0,0-2.09.63Zm2.58,3.69c-.93,0-1.36.43-1.36,1s.34.9,1,.9a1.11,1.11,0,0,0,1.19-1.19v-.67Z" style="fill:#2c58c4"/><path d="M181.37,326.57a1.87,1.87,0,0,1,1.79-1.32,1.64,1.64,0,0,1,.48.05v1.62a1.69,1.69,0,0,0-.71-.14c-.94,0-1.56.86-1.56,2v3.67h-1.69v-7.1h1.68Z" style="fill:#2c58c4"/><path d="M186.68,330.18a.83.83,0,0,0,.9.92,1.94,1.94,0,0,0,1-.3v1.44a3.31,3.31,0,0,1-1.26.24,2,2,0,0,1-2.3-2.32v-3.59h-1.07v-1.26H185V323.6h1.68v1.71h1.76v1.26h-1.76Z" style="fill:#2c58c4"/><path d="M191.62,326.43a2.15,2.15,0,0,1,2-1.2,1.93,1.93,0,0,1,2,1.34,2.24,2.24,0,0,1,2.12-1.34c1.44,0,2.25.91,2.25,2.5v4.68h-1.69v-4.36c0-.89-.37-1.42-1.09-1.42s-1.4.46-1.4,2v3.81h-1.7v-4.36c0-.89-.36-1.42-1.09-1.42s-1.42.46-1.42,2v3.81h-1.68v-7.1h1.68Z" style="fill:#2c58c4"/><path d="M207.17,332a4.67,4.67,0,0,1-2.14.46,3.41,3.41,0,0,1-3.66-3.61c0-2.34,1.46-3.63,3.24-3.63s3,1.08,3,3.29a8.63,8.63,0,0,1-.1,1h-4.46a2.08,2.08,0,0,0,2.22,1.58,3.19,3.19,0,0,0,1.89-.56ZM206,328.07c0-.87-.46-1.51-1.37-1.51s-1.45.56-1.61,1.72h3Z" style="fill:#2c58c4"/><path d="M210.84,326.53a2.25,2.25,0,0,1,2.18-1.3,2.19,2.19,0,0,1,2.3,2.46v4.72h-1.68V328c0-1-.5-1.41-1.25-1.41s-1.55.64-1.55,2v3.81h-1.68v-7.1h1.68Z" style="fill:#2c58c4"/><path d="M219.11,330.18a.83.83,0,0,0,.9.92,1.94,1.94,0,0,0,1-.3v1.44a3.31,3.31,0,0,1-1.26.24,2,2,0,0,1-2.3-2.32v-3.59h-1.06v-1.26h1.06V323.6h1.68v1.71h1.77v1.26h-1.77Z" style="fill:#2c58c4"/><path d="M211.73,144.25A39.23,39.23,0,1,0,223.23,172,38.94,38.94,0,0,0,211.73,144.25Z" style="fill:#fff"/><path d="M208.28,174l.51-5.38a263.53,263.53,0,0,0-49.61,0l.51,5.38A259.45,259.45,0,0,1,208.28,174Z" style="fill:#2c58c4"/><path d="M171.85,155.51A17.16,17.16,0,0,1,201.06,166q2.59.17,5.19.39a22.3,22.3,0,0,0-19.56-20.89v-6.16c-.89-.07-1.8-.11-2.71-.11s-1.81,0-2.7.11v6.16a22.3,22.3,0,0,0-19.56,20.89c1.73-.15,3.45-.28,5.19-.39A17,17,0,0,1,171.85,155.51Z" style="fill:#2c58c4"/><path d="M154.39,176.59,155,182l3.35-.35v10.76a33.11,33.11,0,0,0,5.4,5.38V181.14q3-.22,6.07-.39v20.78a32.19,32.19,0,0,0,5.41,2V180.51q3-.1,6.06-.13v24.26c.89.07,1.79.11,2.7.11s1.82,0,2.71-.11V180.38q3,0,6.06.13v23.05a32.52,32.52,0,0,0,5.41-2V180.75q3,.17,6.06.39v16.61a33.17,33.17,0,0,0,5.41-5.38V181.61L213,182c.2-1.79.4-3.58.59-5.37A268.58,268.58,0,0,0,154.39,176.59Z" style="fill:#2c58c4"/><path d="M212.43,143.55A40.23,40.23,0,1,0,224.21,172,40,40,0,0,0,212.43,143.55Zm-28.45,64A35.56,35.56,0,1,1,219.54,172,35.59,35.59,0,0,1,184,207.55Z" style="fill:#2c58c4"/></g></g></svg>