<svg xmlns="http://www.w3.org/2000/svg" viewBox="0 0 438.16 355.94">
  <title>scales_hammer</title>
  <g id="Layer_2" data-name="Layer 2">
    <g id="Layer_1-2" data-name="Layer 1">
      <g>
        <g>
          <path d="M298.12,143.45l-29.24-14.63a5.85,5.85,0,0,0-5.19,0l-29.27,14.63a1.09,1.09,0,0,0,0,2L263.69,160a5.78,5.78,0,0,0,5.19,0l29.24-14.62A1.09,1.09,0,0,0,298.12,143.45Z" style="fill: #2c58c4"/>
          <path d="M108.45,317.89l-34.06-17a6.76,6.76,0,0,0-6,0l-34.09,17a1.28,1.28,0,0,0,0,2.29l34.09,17a6.76,6.76,0,0,0,6,0l34.06-17A1.27,1.27,0,0,0,108.45,317.89Z" style="fill: #2c58c4"/>
          <path d="M230.73,340.3l-24.88-12.44a5,5,0,0,0-4.42,0l-24.9,12.45a.93.93,0,0,0,0,1.67l24.9,12.44a5,5,0,0,0,4.41,0L230.73,342A.93.93,0,0,0,230.73,340.3Z" style="fill: #fff;stroke: #2c58c4;stroke-miterlimit: 10;stroke-width: 2px"/>
          <path d="M275,260.37,146.13,195.94a25.58,25.58,0,0,0-22.86,0L16.21,249.72a4.83,4.83,0,0,0,0,8.64l129,64.41a25.56,25.56,0,0,0,22.84,0L275,269A4.84,4.84,0,0,0,275,260.37Z" style="fill: #fff;stroke: #2c58c4;stroke-miterlimit: 10;stroke-width: 2px"/>
          <path d="M434.5,230l-128.4-64.2a25.48,25.48,0,0,0-22.77,0l-90.78,46a4.82,4.82,0,0,0,0,8.62l128.5,64.18a25.45,25.45,0,0,0,22.77,0l90.68-46A4.82,4.82,0,0,0,434.5,230Z" style="fill: #fff;stroke: #2c58c4;stroke-miterlimit: 10;stroke-width: 2px"/>
          <path d="M296.77,206.93l-103-51.52a20.45,20.45,0,0,0-18.28,0L92,197.17a3.86,3.86,0,0,0,0,6.91l103.13,51.51a20.43,20.43,0,0,0,18.27,0l83.38-41.75A3.86,3.86,0,0,0,296.77,206.93Z" style="fill: #fff;stroke: #2c58c4;stroke-miterlimit: 10;stroke-width: 2px"/>
          <path d="M389.67,279.86l-93.51-46.75a18.53,18.53,0,0,0-16.58,0L186,279.88a3.51,3.51,0,0,0,0,6.28l93.57,46.73a18.53,18.53,0,0,0,16.58,0l93.51-46.75A3.52,3.52,0,0,0,389.67,279.86Z" style="fill: #2c58c4;stroke: #fff;stroke-miterlimit: 10;stroke-width: 2px"/>
          <path d="M206.92,183.35l-72.81-36a22.2,22.2,0,0,0-19.84,0l-111.95,56a4.2,4.2,0,0,0,0,7.51l72.9,36a22.21,22.21,0,0,0,19.83,0l111.87-55.94A4.19,4.19,0,0,0,206.92,183.35Z" style="fill: #2c58c4"/>
        </g>
        <g id="scales_hammer">
          <g id="scales">
            <path d="M262.41,238.16c0,.19,0,.37,0,.56-.61,11.76-20.16,21.2-44.19,21.2s-43.58-9.44-44.19-21.2c0-.19,0-.37,0-.56s0-.38,0-.57c.53-13.45,20.11-24.27,44.19-24.27s43.66,10.82,44.19,24.27C262.41,237.78,262.41,238,262.41,238.16Z" style="fill: #767776;stroke: #fff;stroke-linecap: round;stroke-linejoin: round;stroke-width: 2px"/>
            <path d="M210.58,170.77a68.51,68.51,0,0,1,.44,19.7c-.57,4.86-2.2,10-2.42,14.83a53.73,53.73,0,0,0,.53,10.82l-.14,2.6,6.49,5.59,5.9-.86,5.29-3.87.34-3.46a54.64,54.64,0,0,0,.53-10.82c-.22-4.81-1.86-10-2.43-14.83a68.51,68.51,0,0,1,.44-19.7Z" style="fill: #767776;stroke: #fff;stroke-linecap: round;stroke-linejoin: round;stroke-width: 2px"/>
            <path d="M228,220.11a1.09,1.09,0,0,1,0,.18c0,3-4.45,5.45-9.93,5.45s-9.94-2.44-9.94-5.45v-2.92a3.46,3.46,0,0,1,.83-2.19A3.14,3.14,0,0,0,210,217.1l.29.27c1.61,1.33,4.48,2.21,7.76,2.21s6.14-.88,7.75-2.21l.29-.27a3.19,3.19,0,0,0,1.06-1.91,3.49,3.49,0,0,1,.83,2.18,1.09,1.09,0,0,1,0,.18Z" style="fill: #767776;stroke: #fff;stroke-linecap: round;stroke-linejoin: round;stroke-width: 2px"/>
            <path d="M227.17,162.58s-2.76,0,0-30.57l-9.1,2-9-2c2.74,30.57-.09,30.57-.09,30.57l.79,4.7,8.06,1.69,6.7-.46,2.43-2.75Z" style="fill: #767776;stroke: #fff;stroke-linecap: round;stroke-linejoin: round;stroke-width: 2px"/>
            <path d="M228,167.5a1.21,1.21,0,0,1,0,.19c0,3-4.45,5.44-9.93,5.44s-9.94-2.44-9.94-5.44v-2.93a3.43,3.43,0,0,1,.83-2.18A3.19,3.19,0,0,0,210,164.5l.29.26c1.61,1.33,4.48,2.22,7.76,2.22s6.14-.89,7.75-2.22l.29-.26a3.24,3.24,0,0,0,1.06-1.92,3.51,3.51,0,0,1,.83,2.18,1.21,1.21,0,0,1,0,.19Z" style="fill: #767776;stroke: #fff;stroke-linecap: round;stroke-linejoin: round;stroke-width: 2px"/>
            <path d="M225.72,112c-.58,10.31,1.31,15.41,1.31,15.41l-.41,3.48-7,3.32-7-.62-3.26-2.87-.3-3.31s1.9-5.1,1.33-15.41l7.64,2.29Z" style="fill: #767776;stroke: #fff;stroke-linecap: round;stroke-linejoin: round;stroke-width: 2px"/>
            <path d="M227.85,131.07a1.09,1.09,0,0,1,0,.18c0,3-4.39,5.37-9.79,5.37s-9.8-2.41-9.8-5.37v-1.72a3.4,3.4,0,0,1,.82-2.15,3.19,3.19,0,0,0,1,1.89l.29.26c1.59,1.31,4.42,2.18,7.65,2.18s6.05-.87,7.63-2.18l.29-.26a3.06,3.06,0,0,0,1-1.89,3.38,3.38,0,0,1,.83,2.15,1.09,1.09,0,0,1,0,.18Z" style="fill: #767776;stroke: #fff;stroke-linecap: round;stroke-linejoin: round;stroke-width: 2px"/>
            <path d="M208.28,107.42s2.83-14.86,3.17-67.42l6.62-2.69L224.69,40c.34,52.56,3.17,67.42,3.17,67.42l-1,4.55-6.3,2.18h-5L209.5,112,208,109.79Z" style="fill: #767776;stroke: #fff;stroke-linecap: round;stroke-linejoin: round;stroke-width: 2px"/>
            <path d="M228.73,110.47a1.34,1.34,0,0,1,0,.2c0,3.23-4.78,5.85-10.67,5.85s-10.68-2.62-10.68-5.85v-.91a3.7,3.7,0,0,1,.89-2.34,3.47,3.47,0,0,0,1.14,2.06,2.8,2.8,0,0,0,.31.28c1.73,1.43,4.82,2.38,8.34,2.38s6.6-1,8.32-2.38a2.92,2.92,0,0,0,.32-.28,3.44,3.44,0,0,0,1.14-2.06,3.76,3.76,0,0,1,.89,2.34,1.27,1.27,0,0,1,0,.2Z" style="fill: #767776;stroke: #fff;stroke-linecap: round;stroke-linejoin: round;stroke-width: 2px"/>
            <g>
              <path d="M285.35,75.68a4.17,4.17,0,0,1-.85-.09c-3.64-.75-11-3.71-18.22-7.35A76.89,76.89,0,0,1,257.61,63a84.68,84.68,0,0,0-9.54-5.71,127.29,127.29,0,0,0-12-5.1,105.25,105.25,0,0,1-9.77-4.09L207,38.47c-3-1.51-6.12-3.47-9.41-5.54-3.7-2.33-7.52-4.73-11.64-6.8A74.88,74.88,0,0,0,176,22.05a68.64,68.64,0,0,1-9.06-3.7c-7.24-3.64-14.23-7.87-17.39-10.53a4.72,4.72,0,0,1-1.73-5A2.82,2.82,0,0,1,150.65,1a9,9,0,0,1,5,2.13c7.18,5.3,12.55,8.6,16.92,10.37,1.1.45,2.39.87,3.89,1.35A71.51,71.51,0,0,1,197.29,25a53.28,53.28,0,0,0,14.56,7.49,61.19,61.19,0,0,1,7.18,3,70.12,70.12,0,0,1,6.89,4.1,52.9,52.9,0,0,0,14.62,7.18c9.57,3,16,7.49,20.71,10.75,1.38,1,2.58,1.79,3.63,2.43,4.18,2.52,9.82,4.75,17.73,7,4.8,1.38,6.18,4.15,5.91,6.1a3.11,3.11,0,0,1-3.17,2.66Z" style="fill: #767776"/>
              <path d="M150.65,2c1,0,2.5.54,4.38,1.93,6.47,4.78,12.26,8.52,17.14,10.5s13.28,3.43,24.55,11.37c10.21,7.2,14.46,6.81,21.86,10.53s10.54,7.82,21.66,11.33c12.27,3.89,19.45,10.26,24.13,13.08s10.82,5.09,18,7.14c6.7,1.93,6.06,6.8,3,6.8a3.79,3.79,0,0,1-.65-.07c-3.58-.74-10.93-3.72-18-7.26s-10.33-7-18.21-10.92-15.56-6-21.82-9.2l-9.62-4.83-9.62-4.83c-6.26-3.15-13.16-8.38-21-12.34s-11.94-4.23-19-7.77-14.08-7.78-17.19-10.4C148,5.2,148.11,2,150.65,2m0-2a3.78,3.78,0,0,0-3.73,2.49,5.74,5.74,0,0,0,2,6.1c3.21,2.7,10.27,7,17.58,10.66A69.53,69.53,0,0,0,175.71,23a74.11,74.11,0,0,1,9.81,4c4.08,2.05,7.88,4.44,11.56,6.75,3.31,2.09,6.45,4.06,9.49,5.59l9.61,4.83L225.8,49a106.74,106.74,0,0,0,9.86,4.14,125.77,125.77,0,0,1,12,5.06,83.07,83.07,0,0,1,9.43,5.64,78.15,78.15,0,0,0,8.78,5.27c7.33,3.68,14.75,6.67,18.47,7.44a5.35,5.35,0,0,0,1.05.11,4.09,4.09,0,0,0,4.16-3.52c.33-2.35-1.21-5.64-6.62-7.2C275.06,63.71,269.5,61.5,265.4,59c-1-.62-2.21-1.44-3.58-2.39-4.75-3.3-11.26-7.81-21-10.88a51.53,51.53,0,0,1-14.38-7.07,67.44,67.44,0,0,0-7-4.15,59.51,59.51,0,0,0-7.29-3,52.12,52.12,0,0,1-14.32-7.36A72.09,72.09,0,0,0,176.75,13.9c-1.48-.48-2.76-.89-3.82-1.33-4.29-1.74-9.6-5-16.71-10.25A9.86,9.86,0,0,0,150.65,0Z" style="fill: #fff"/>
            </g>
            <circle cx="218.07" cy="38.34" r="7.81" style="fill: #767776;stroke: #fff;stroke-linecap: round;stroke-linejoin: round;stroke-width: 2px"/>
            <path d="M326.19,209.76c-.11,5.14-2.5,9.94-6.56,14-7.67,7.71-21.33,12.84-36.91,12.84s-29.24-5.14-36.92-12.86c-4.06-4.08-6.43-8.87-6.55-14,.15,4,2.53,7.79,6.55,11,7.68,6.11,21.34,10.18,36.92,10.18s29.24-4.06,36.91-10.17C323.66,217.56,326,213.79,326.19,209.76Z" style="fill: #767776;stroke: #767776;stroke-linecap: round;stroke-linejoin: round;stroke-width: 2px"/>
            <path d="M326.2,209.37c0,4.18-2.41,8.09-6.57,11.39-7.67,6.11-21.33,10.17-36.91,10.17s-29.24-4.07-36.92-10.18c-4.16-3.3-6.56-7.2-6.56-11.38,0-11.91,19.47-21.57,43.48-21.57S326.2,197.46,326.2,209.37Z" style="fill: #fff;stroke: #767776;stroke-linecap: round;stroke-linejoin: round;stroke-width: 2px"/>
            <path d="M322,214.1a11.14,11.14,0,0,1-2.36,6.66c-7.67,6.11-21.33,10.17-36.91,10.17s-29.24-4.07-36.92-10.18a11.1,11.1,0,0,1-2.35-6.65c0-10.76,17.58-19.48,39.27-19.48S322,203.34,322,214.1Z" style="fill: #fff;stroke: #767776;stroke-linecap: round;stroke-linejoin: round;stroke-width: 2px"/>
            <line x1="248.95" y1="222.95" x2="282.72" y2="71.1" style="fill: #fff;stroke: #767776;stroke-linecap: round;stroke-linejoin: round;stroke-width: 2px"/>
            <line x1="272.9" y1="188.36" x2="282.72" y2="71.1" style="fill: #fff;stroke: #767776;stroke-linecap: round;stroke-linejoin: round;stroke-width: 2px"/>
            <line x1="321.99" y1="200.1" x2="282.72" y2="71.1" style="fill: #fff;stroke: #767776;stroke-linecap: round;stroke-linejoin: round;stroke-width: 2px"/>
            <path d="M194.12,143.38c-.11,5.14-2.5,9.94-6.56,14-7.67,7.72-21.33,12.85-36.91,12.85s-29.24-5.14-36.92-12.86c-4-4.08-6.43-8.87-6.55-14,.15,4,2.53,7.79,6.55,11,7.68,6.11,21.34,10.18,36.92,10.18s29.24-4.06,36.91-10.17C191.59,151.18,194,147.41,194.12,143.38Z" style="fill: #767776;stroke: #767776;stroke-linecap: round;stroke-linejoin: round;stroke-width: 2px"/>
            <path d="M194.13,143c0,4.18-2.41,8.09-6.57,11.39-7.67,6.11-21.33,10.17-36.91,10.17s-29.24-4.07-36.92-10.18c-4.15-3.3-6.55-7.2-6.55-11.38,0-11.91,19.46-21.57,43.47-21.57S194.13,131.08,194.13,143Z" style="fill: #fff;stroke: #767776;stroke-linecap: round;stroke-linejoin: round;stroke-width: 2px"/>
            <path d="M189.92,147.72a11.14,11.14,0,0,1-2.36,6.66c-7.67,6.11-21.33,10.17-36.91,10.17s-29.24-4.07-36.92-10.18a11.16,11.16,0,0,1-2.35-6.65c0-10.76,17.58-19.48,39.27-19.48S189.92,137,189.92,147.72Z" style="fill: #fff;stroke: #767776;stroke-linecap: round;stroke-linejoin: round;stroke-width: 2px"/>
            <line x1="114.23" y1="131.21" x2="150.65" y2="4.72" style="fill: #fff;stroke: #767776;stroke-linecap: round;stroke-linejoin: round;stroke-width: 2px"/>
            <line x1="155.66" y1="164.55" x2="150.65" y2="4.72" style="fill: #fff;stroke: #767776;stroke-linecap: round;stroke-linejoin: round;stroke-width: 2px"/>
            <line x1="184.23" y1="129.29" x2="150.65" y2="4.72" style="fill: #fff;stroke: #767776;stroke-linecap: round;stroke-linejoin: round;stroke-width: 2px"/>
          </g>
          <g id="hammer">
            <g>
              <ellipse cx="97.02" cy="221.59" rx="18.87" ry="23.47" transform="translate(-133.66 148.77) rotate(-48.84)" style="fill: #767776;stroke: #fff;stroke-linecap: round;stroke-linejoin: round;stroke-width: 2px"/>
              <ellipse cx="91.44" cy="227.32" rx="19.19" ry="24.53" transform="translate(-139.88 146.53) rotate(-48.84)" style="fill: #767776;stroke: #fff;stroke-linecap: round;stroke-linejoin: round;stroke-width: 2px"/>
              <path d="M105.89,246.08a17,17,0,0,1-1.26,1.28l-7.29,7.9-4.5-3.44L67.67,232.58,60.38,227l9.38-9.91a15.93,15.93,0,0,1,1.2-1.57c7-8,20.45-7.6,30.09.83S112.86,238.1,105.89,246.08Z" style="fill: #fff;stroke: #767776;stroke-linecap: round;stroke-linejoin: round;stroke-width: 2px"/>
              <ellipse cx="75.86" cy="244.4" rx="19.19" ry="24.53" transform="translate(-158.06 140.64) rotate(-48.84)" style="fill: #767776;stroke: #fff;stroke-linecap: round;stroke-linejoin: round;stroke-width: 2px"/>
              <ellipse cx="69.38" cy="251.38" rx="17.85" ry="22.86" transform="translate(-165.54 138.14) rotate(-48.84)" style="fill: #767776;stroke: #fff;stroke-linecap: round;stroke-linejoin: round;stroke-width: 2px"/>
              <ellipse cx="67.95" cy="254.18" rx="12.74" ry="16.31" transform="translate(-168.12 138.03) rotate(-48.84)" style="fill: #767776;stroke: #fff;stroke-linecap: round;stroke-linejoin: round;stroke-width: 2px"/>
            </g>
            <g>
              <path d="M105,236a3.93,3.93,0,0,1,5.07,2l1.32,1s1.65-2.33,5.12-1,3.17,3.8,3.17,3.8,12.54,6.38,24,8.94c0,0,1.62-2,4.92-.94s3.26,2.46,3.26,2.46,19.52,8.92,59.33,22.61S266,292.3,266,292.3a3,3,0,0,1,3.18-.39c2.08.75,2.09,2.07,2.09,2.07s4.27,1.53,7.75,3.13,6.05,3.39,5.2,6.3l-.24.64c-1.07,2.83-4.21,2.71-7.94,1.89s-8.08-2.16-8.08-2.16-.88,1-3,.37-2.21-2.2-2.21-2.2-14.2-6-54.22-19.07-61-17.69-61-17.69-.81,1.16-4.08,0-3.36-3.72-3.36-3.72c-10.71-4.87-24.56-7.33-24.56-7.33s-1.23,2.14-4.81,1.12-3.5-3.88-3.5-3.88h-1.66a3.9,3.9,0,0,1-5.26-1.42S99.57,238.79,105,236Z" style="fill: #767776;stroke: #fff;stroke-linecap: round;stroke-linejoin: round;stroke-width: 2px"/>
              <path d="M107.24,251.38s-.52-5.56,4.18-12.4" style="fill: #767776;stroke: #fff;stroke-linecap: round;stroke-linejoin: round;stroke-width: 2px"/>
              <path d="M268,303.78s-2.9-.41-.6-6,3.91-3.76,3.91-3.76" style="fill: #767776;stroke: #fff;stroke-linecap: round;stroke-linejoin: round;stroke-width: 2px"/>
              <path d="M262.75,302s-.64-1.6.83-5.76c1.08-3,2.42-3.89,2.42-3.89" style="fill: #767776;stroke: #fff;stroke-linecap: round;stroke-linejoin: round;stroke-width: 2px"/>
              <path d="M140.11,261.47a12.57,12.57,0,0,1,.83-6,11.24,11.24,0,0,1,2.79-4.71" style="fill: #767776;stroke: #fff;stroke-linecap: round;stroke-linejoin: round;stroke-width: 2px"/>
              <path d="M147.55,265.19s-3-.6-.34-7.73c2.52-6.67,4.7-5.21,4.7-5.21" style="fill: #767776;stroke: #fff;stroke-linecap: round;stroke-linejoin: round;stroke-width: 2px"/>
              <path d="M115.55,254.14s-4.85,1.65-1.32-8.32c2.71-7.66,5.48-4,5.48-4" style="fill: #767776;stroke: #fff;stroke-linecap: round;stroke-linejoin: round;stroke-width: 2px"/>
              <path d="M105.58,251.38s-1.86-1.68,1-8.47c2.13-5.11,3.54-4.93,3.54-4.93" style="fill: #767776;stroke: #fff;stroke-linecap: round;stroke-linejoin: round;stroke-width: 2px"/>
            </g>
          </g>
        </g>
      </g>
    </g>
  </g>
</svg>
