<svg xmlns="http://www.w3.org/2000/svg" xmlns:xlink="http://www.w3.org/1999/xlink" viewBox="0 0 280.76 114.29"><defs><clipPath id="clip-path"><rect x="131.05" y="8.94" width="140.27" height="75.45" style="fill:none"/></clipPath></defs><title>scanning</title><g id="Layer_2" data-name="Layer 2"><g id="Layer_1-2" data-name="Layer 1"><line x1="279.76" y1="103.34" x2="1" y2="103.34" style="fill:none;stroke:#767776;stroke-linecap:round;stroke-linejoin:round;stroke-width:2px"/><g style="clip-path:url(#clip-path)"><path d="M171.8,30.72h58.76A9.46,9.46,0,0,1,240,40.17V88.23a0,0,0,0,1,0,0H162.35a0,0,0,0,1,0,0V40.17A9.46,9.46,0,0,1,171.8,30.72Z" style="fill:none;stroke:#f5771f;stroke-miterlimit:10;stroke-width:2px"/><rect x="141.23" y="15.36" width="119.91" height="7.32" style="fill:none;stroke:#f5771f;stroke-miterlimit:10;stroke-width:2px"/><rect x="141.23" y="15.36" width="77.57" height="7.32" style="fill:#f5771f;stroke:#f5771f;stroke-miterlimit:10;stroke-width:2px"/><line x1="188.98" y1="39.78" x2="231.71" y2="39.78" style="fill:none;stroke:#f5771f;stroke-linecap:round;stroke-linejoin:round;stroke-width:2px"/><line x1="188.98" y1="46.01" x2="231.71" y2="46.01" style="fill:none;stroke:#f5771f;stroke-linecap:round;stroke-linejoin:round;stroke-width:2px"/><line x1="188.98" y1="52.41" x2="231.71" y2="52.41" style="fill:none;stroke:#f5771f;stroke-linecap:round;stroke-linejoin:round;stroke-width:2px"/><line x1="171.19" y1="58.65" x2="231.71" y2="58.65" style="fill:none;stroke:#f5771f;stroke-linecap:round;stroke-linejoin:round;stroke-width:2px"/><line x1="171.19" y1="64.76" x2="231.71" y2="64.76" style="fill:none;stroke:#f5771f;stroke-linecap:round;stroke-linejoin:round;stroke-width:2px"/><line x1="171.19" y1="70.99" x2="231.71" y2="70.99" style="fill:none;stroke:#f5771f;stroke-linecap:round;stroke-linejoin:round;stroke-width:2px"/><line x1="171.19" y1="77.4" x2="231.71" y2="77.4" style="fill:none;stroke:#f5771f;stroke-linecap:round;stroke-linejoin:round;stroke-width:2px"/><rect x="170.69" y="39.07" width="14.38" height="14.38" rx="1.46" style="fill:#f5771f"/></g><path d="M228.31,110l-5.67-4.13a7.48,7.48,0,0,1-3.07-6V92.34H182.8v7.4a7.48,7.48,0,0,1-3,6l-5.7,4.2c-2.35,1.71-2.14,3.33.85,3.33h52.53C230.45,113.29,230.65,111.67,228.31,110Z" style="fill:#fff;stroke:#767776;stroke-miterlimit:10;stroke-width:2px"/><rect x="131.05" y="1" width="140.27" height="91.34" rx="7.04" style="fill:none;stroke:#767776;stroke-miterlimit:10;stroke-width:2px"/><rect x="131.05" y="8.94" width="140.27" height="75.45" style="fill:none;stroke:#767776;stroke-miterlimit:10;stroke-width:2px"/><rect x="17.46" y="85.22" width="94.55" height="24.04" style="fill:#fff;stroke:#767776;stroke-linecap:round;stroke-linejoin:round;stroke-width:2px"/><rect x="17.46" y="78.9" width="94.55" height="6.31" style="fill:#fff;stroke:#767776;stroke-linecap:round;stroke-linejoin:round;stroke-width:2px"/><polygon points="104.57 75.34 24.9 75.34 17.46 78.9 112.01 78.9 104.57 75.34" style="fill:#fff;stroke:#767776;stroke-linecap:round;stroke-linejoin:round;stroke-width:2px"/><polygon points="94.34 55.22 35.13 55.22 29.6 75.34 99.88 75.34 94.34 55.22" style="fill:#fff;stroke:#767776;stroke-linecap:round;stroke-linejoin:round;stroke-width:2px"/><path d="M38.13,75.34A286.88,286.88,0,0,0,40.79,43s27.27,1,47.91-.46a114.14,114.14,0,0,0,2.86,32.77Z" style="fill:#fff;stroke:#767776;stroke-linecap:round;stroke-linejoin:round;stroke-width:2px"/><path d="M45.91,49.27c0,1.28-.14,3.71-.28,6a.93.93,0,0,0,.85,1c1.57.05,4.88.14,7.68,0a.94.94,0,0,0,.85-1,52.18,52.18,0,0,1-.16-6,.93.93,0,0,0-.88-1H46.79A.92.92,0,0,0,45.91,49.27Z" style="fill:#f5771f;stroke:#f5771f;stroke-miterlimit:10;stroke-width:2px"/><path d="M59.42,48.26s10.41.38,22.82-.43" style="fill:#f5771f;stroke:#f5771f;stroke-linecap:round;stroke-miterlimit:10;stroke-width:2px"/><path d="M59.42,52.28s10.41.38,22.82-.43" style="fill:#f5771f;stroke:#f5771f;stroke-linecap:round;stroke-miterlimit:10;stroke-width:2px"/><path d="M59.42,56.58s10.41.38,22.82-.43" style="fill:#f5771f;stroke:#f5771f;stroke-linecap:round;stroke-miterlimit:10;stroke-width:2px"/><path d="M45,61s17,.37,37.21-.43" style="fill:#f5771f;stroke:#f5771f;stroke-linecap:round;stroke-miterlimit:10;stroke-width:2px"/><path d="M45,65.72s17,.37,37.21-.44" style="fill:#f5771f;stroke:#f5771f;stroke-linecap:round;stroke-miterlimit:10;stroke-width:2px"/><path d="M45,70.64s17,.37,37.21-.43" style="fill:#f5771f;stroke:#f5771f;stroke-linecap:round;stroke-miterlimit:10;stroke-width:2px"/><circle cx="103.85" cy="92.23" r="2.87" style="fill:#f5771f"/></g></g></svg>
