<svg xmlns="http://www.w3.org/2000/svg" viewBox="0 0 219.76 123.02"><title>searching</title><g id="Layer_2" data-name="Layer 2"><g id="Layer_1-2" data-name="Layer 1"><g style="opacity:0.6"><path d="M10.35,38.25V36.78a3.55,3.55,0,0,0,2,.63q2.13,0,2.13-2.25V23H16V34.93q0,3.85-3.44,3.86A4.07,4.07,0,0,1,10.35,38.25Z" style="fill:#3d4543"/><path d="M19.87,29.09V27.54a6.42,6.42,0,0,1,3.35-.82c2.9,0,4.36,1.53,4.36,4.57v7.5H26.15V37.41a3.79,3.79,0,0,1-3.43,1.5,3.77,3.77,0,0,1-2.68-1,3.28,3.28,0,0,1-1-2.5,3.09,3.09,0,0,1,1.32-2.66,5.91,5.91,0,0,1,3.51-1h2.32v-.54a3.67,3.67,0,0,0-.68-2.4,2.83,2.83,0,0,0-2.28-.81A5.76,5.76,0,0,0,19.87,29.09Zm6.28,4.06H23.83a4,4,0,0,0-2.49.64,2,2,0,0,0-.82,1.61A2.1,2.1,0,0,0,21.17,37a2.61,2.61,0,0,0,1.88.61,3.18,3.18,0,0,0,2.25-.78,2.52,2.52,0,0,0,.85-2Z" style="fill:#3d4543"/><path d="M31.09,23.82a1,1,0,0,1-.28-.71,1,1,0,0,1,.28-.71.91.91,0,0,1,.7-.29,1,1,0,0,1,.72.29,1,1,0,0,1,.29.71,1,1,0,0,1-.29.71,1,1,0,0,1-.72.28A1,1,0,0,1,31.09,23.82Zm0,15V26.91h1.43V38.79Z" style="fill:#3d4543"/><path d="M37.61,26.91v1.95a3.42,3.42,0,0,1,3.32-2.14c1.91,0,3.08.78,3.52,2.35A3.66,3.66,0,0,1,48,26.72a3.51,3.51,0,0,1,2.79,1.05,4,4,0,0,1,.91,2.73v8.29H50.24V30.94c0-1.89-.83-2.83-2.48-2.83a2.77,2.77,0,0,0-2.17,1.12,4.46,4.46,0,0,0-1,3v6.56H43.21V30.94c0-1.89-.83-2.83-2.49-2.83a2.77,2.77,0,0,0-2.16,1.12,4.46,4.46,0,0,0-1,3v6.56H36.18V26.91Z" style="fill:#3d4543"/><path d="M63.6,36.75v1.46a7.23,7.23,0,0,1-3.28.7A5.81,5.81,0,0,1,56,37.26a5.89,5.89,0,0,1-1.66-4.35,6.53,6.53,0,0,1,1.46-4.5,4.81,4.81,0,0,1,3.77-1.64,4.46,4.46,0,0,1,3.47,1.43,5.81,5.81,0,0,1,1.29,4,7.14,7.14,0,0,1-.09,1.27h-8.4a4.32,4.32,0,0,0,1.36,3,4.69,4.69,0,0,0,3.17,1A5.65,5.65,0,0,0,63.6,36.75Zm-.73-4.57v-.53a3.62,3.62,0,0,0-.9-2.58,3.17,3.17,0,0,0-2.43-1A3.31,3.31,0,0,0,57,29.16a4.76,4.76,0,0,0-1.18,3Z" style="fill:#3d4543"/><path d="M65.66,27.52l1.85-5h1.9l-2.69,5Z" style="fill:#3d4543"/><path d="M77.17,27.33v1.43a6,6,0,0,0-3-.63,2.55,2.55,0,0,0-1.63.48A1.55,1.55,0,0,0,72,29.86a1.74,1.74,0,0,0,.17.82,1.77,1.77,0,0,0,.61.65,5.85,5.85,0,0,0,.74.43c.2.1.53.24,1,.42A8.33,8.33,0,0,1,77,33.63a2.68,2.68,0,0,1,.88,2.12,2.88,2.88,0,0,1-1,2.33,4.22,4.22,0,0,1-2.8.85,7.35,7.35,0,0,1-3.47-.7V36.75a6.71,6.71,0,0,0,3.38.9,2.83,2.83,0,0,0,1.81-.5,1.55,1.55,0,0,0,.63-1.29,1.75,1.75,0,0,0-.65-1.45,8.91,8.91,0,0,0-2.12-1.1A7.67,7.67,0,0,1,71.36,32a2.61,2.61,0,0,1-.85-2.07,2.77,2.77,0,0,1,1.06-2.28,4.06,4.06,0,0,1,2.65-.86A6.49,6.49,0,0,1,77.17,27.33Z" style="fill:#3d4543"/><path d="M97.42,23.63v1.52a9.82,9.82,0,0,0-1.83-.76,8.46,8.46,0,0,0-2.2-.22A6.11,6.11,0,0,0,88.85,26,6.52,6.52,0,0,0,87,30.8a6.81,6.81,0,0,0,1.79,4.95A6.33,6.33,0,0,0,93.6,37.6a6.09,6.09,0,0,0,3.87-1.22V38a6.7,6.7,0,0,1-3.94,1,7.89,7.89,0,0,1-5.79-2.18,8,8,0,0,1-2.2-6,7.68,7.68,0,0,1,7.89-8A8.77,8.77,0,0,1,97.42,23.63Z" style="fill:#3d4543"/><path d="M107.59,26.91H109V38.79h-1.43V36.66a4.21,4.21,0,0,1-6.53,1.25,3.75,3.75,0,0,1-1-2.75V26.91h1.43v7.85a2.85,2.85,0,0,0,.72,2.09,2.52,2.52,0,0,0,1.89.72,3.2,3.2,0,0,0,2.54-1.12,4.32,4.32,0,0,0,1-2.93Z" style="fill:#3d4543"/><path d="M114,26.91v1.74a4.1,4.1,0,0,1,3.68-1.93,4.44,4.44,0,0,1,3.73,1.75,6.78,6.78,0,0,1,1.33,4.25,6.93,6.93,0,0,1-1.42,4.52A4.56,4.56,0,0,1,117.65,39,4.16,4.16,0,0,1,114,37v6.47h-1.43V26.91Zm3.59,10.71a3.19,3.19,0,0,0,2.62-1.28,5.64,5.64,0,0,0,1-3.64,5.32,5.32,0,0,0-1-3.33,3.07,3.07,0,0,0-2.52-1.29,3.56,3.56,0,0,0-2.63,1.12,5.17,5.17,0,0,0-1.1,3.71,6.36,6.36,0,0,0,.37,2.29,3.58,3.58,0,0,0,.93,1.47,4,4,0,0,0,1.15.73A3.08,3.08,0,0,0,117.6,37.62Z" style="fill:#3d4543"/><path d="M126.36,32.91a4.91,4.91,0,0,0,1.25,3.4,4.49,4.49,0,0,0,3.54,1.38,4,4,0,0,0,2.43-.75V38.4a4.58,4.58,0,0,1-2.6.67,5.72,5.72,0,0,1-4.5-1.81,6.6,6.6,0,0,1,0-8.71A5.69,5.69,0,0,1,131,26.7a5.29,5.29,0,0,1,2.6.63v1.46a4.31,4.31,0,0,0-2.46-.71,4.48,4.48,0,0,0-3.47,1.42A4.9,4.9,0,0,0,126.36,32.91Z" style="fill:#3d4543"/><path d="M136.91,29.09V27.54a6.44,6.44,0,0,1,3.35-.82c2.91,0,4.36,1.53,4.36,4.57v7.5h-1.43V37.41a4.44,4.44,0,0,1-6.1.53,3.25,3.25,0,0,1-1.05-2.5,3.07,3.07,0,0,1,1.33-2.66,5.9,5.9,0,0,1,3.5-1h2.32v-.54a3.62,3.62,0,0,0-.68-2.4,2.81,2.81,0,0,0-2.27-.81A5.77,5.77,0,0,0,136.91,29.09Zm6.28,4.06h-2.32a4,4,0,0,0-2.48.64,2,2,0,0,0-.82,1.61,2.09,2.09,0,0,0,.64,1.59,2.64,2.64,0,0,0,1.89.61,3.18,3.18,0,0,0,2.25-.78,2.54,2.54,0,0,0,.84-2Z" style="fill:#3d4543"/><path d="M148,38.79V22.22h1.43V38.79Zm3.52-6.23,5,6.23h-1.78l-5-6.23,4.83-5.65h1.76Z" style="fill:#3d4543"/><path d="M167.38,36.75v1.46a7.23,7.23,0,0,1-3.28.7,5.81,5.81,0,0,1-4.3-1.65,5.89,5.89,0,0,1-1.66-4.35,6.53,6.53,0,0,1,1.46-4.5,4.81,4.81,0,0,1,3.77-1.64,4.46,4.46,0,0,1,3.47,1.43,5.81,5.81,0,0,1,1.29,4,6.2,6.2,0,0,1-.1,1.27h-8.39a4.32,4.32,0,0,0,1.36,3,4.69,4.69,0,0,0,3.17,1A5.65,5.65,0,0,0,167.38,36.75Zm-.73-4.57v-.53a3.62,3.62,0,0,0-.9-2.58,3.17,3.17,0,0,0-2.43-1,3.31,3.31,0,0,0-2.5,1.05,4.76,4.76,0,0,0-1.18,3Z" style="fill:#3d4543"/><path d="M177.25,27.33v1.43a6,6,0,0,0-3-.63,2.53,2.53,0,0,0-1.63.48,1.53,1.53,0,0,0-.6,1.25,1.74,1.74,0,0,0,.18.82,1.77,1.77,0,0,0,.61.65,5.23,5.23,0,0,0,.74.43c.2.1.53.24,1,.42a8.58,8.58,0,0,1,2.52,1.45,2.68,2.68,0,0,1,.88,2.12,2.88,2.88,0,0,1-1,2.33,4.22,4.22,0,0,1-2.8.85,7.32,7.32,0,0,1-3.47-.7V36.75a6.67,6.67,0,0,0,3.37.9,2.86,2.86,0,0,0,1.82-.5,1.54,1.54,0,0,0,.62-1.29,1.75,1.75,0,0,0-.64-1.45,8.91,8.91,0,0,0-2.12-1.1A7.73,7.73,0,0,1,171.43,32a2.63,2.63,0,0,1-.84-2.07,2.79,2.79,0,0,1,1-2.28,4.09,4.09,0,0,1,2.65-.86A6.54,6.54,0,0,1,177.25,27.33Z" style="fill:#3d4543"/><path d="M187.77,37.46h7v1.33h-8.41V23h1.45Z" style="fill:#3d4543"/><path d="M198.88,37.46h7v1.33h-8.41V23h1.45Z" style="fill:#3d4543"/><path d="M219.71,23.63v1.52a9.5,9.5,0,0,0-1.82-.76,8.54,8.54,0,0,0-2.21-.22A6.09,6.09,0,0,0,211.15,26a6.53,6.53,0,0,0-1.82,4.79,6.85,6.85,0,0,0,1.79,4.95,6.36,6.36,0,0,0,4.77,1.85,6.07,6.07,0,0,0,3.87-1.22V38a6.66,6.66,0,0,1-3.94,1A7.89,7.89,0,0,1,210,36.8a8.08,8.08,0,0,1-2.2-6,7.7,7.7,0,0,1,7.9-8A8.7,8.7,0,0,1,219.71,23.63Z" style="fill:#3d4543"/><path d="M15.93,63.29l4,6.1H18.2l-3.12-5-3.18,5H10.28l3.91-6.12-3.68-5.79H12.2l2.91,4.69L18,57.48h1.66Z" style="fill:#3d4543"/><path d="M26.83,63.29l4,6.1H29.1L26,64.4l-3.19,5H21.18l3.91-6.12-3.68-5.79H23.1L26,62.17l2.88-4.69h1.66Z" style="fill:#3d4543"/><path d="M37.72,63.29l4,6.1H40l-3.12-5-3.19,5H32.08L36,63.27l-3.68-5.79H34l2.9,4.69,2.89-4.69h1.66Z" style="fill:#3d4543"/><path d="M43.75,63.69V62.4H49v1.29Z" style="fill:#3d4543"/><path d="M56.71,63.29l4,6.1H59l-3.12-5-3.18,5H51.06L55,63.27l-3.68-5.79H53l2.91,4.69,2.88-4.69h1.66Z" style="fill:#3d4543"/><path d="M67.61,63.29l4,6.1H69.88l-3.12-5-3.18,5H62l3.91-6.12-3.68-5.79h1.69l2.91,4.69,2.88-4.69h1.66Z" style="fill:#3d4543"/><path d="M73.63,63.69V62.4H78.9v1.29Z" style="fill:#3d4543"/><path d="M86.59,63.29l4,6.1H88.86l-3.11-5-3.19,5H80.94l3.92-6.12-3.68-5.79h1.68l2.91,4.69,2.88-4.69h1.67Z" style="fill:#3d4543"/><path d="M97.49,63.29l4,6.1H99.76l-3.11-5-3.19,5H91.84l3.91-6.12-3.67-5.79h1.68l2.91,4.69,2.88-4.69h1.67Z" style="fill:#3d4543"/><path d="M108.39,63.29l4,6.1h-1.71l-3.12-5-3.18,5h-1.62l3.91-6.12L103,57.48h1.69l2.91,4.69,2.88-4.69h1.66Z" style="fill:#3d4543"/><path d="M10.35,99V97.52a3.56,3.56,0,0,0,2,.64q2.13,0,2.13-2.25V83.74H16V95.67q0,3.87-3.44,3.87A4.07,4.07,0,0,1,10.35,99Z" style="fill:#3d4543"/><path d="M19.87,89.83V88.29a6.33,6.33,0,0,1,3.35-.82c2.9,0,4.36,1.52,4.36,4.57v7.5H26.15V98.16a3.79,3.79,0,0,1-3.43,1.5,3.78,3.78,0,0,1-2.68-1,3.27,3.27,0,0,1-1-2.49,3.09,3.09,0,0,1,1.32-2.66,5.84,5.84,0,0,1,3.51-1h2.32V92a3.65,3.65,0,0,0-.68-2.4,2.83,2.83,0,0,0-2.28-.81A5.75,5.75,0,0,0,19.87,89.83Zm6.28,4.06H23.83a4,4,0,0,0-2.49.64,2,2,0,0,0-.82,1.61,2.07,2.07,0,0,0,.65,1.59,2.61,2.61,0,0,0,1.88.61,3.22,3.22,0,0,0,2.25-.77,2.54,2.54,0,0,0,.85-2Z" style="fill:#3d4543"/><path d="M31.09,84.56a.94.94,0,0,1-.28-.7,1,1,0,0,1,.28-.72,1,1,0,0,1,.7-.29,1,1,0,0,1,.72.29,1,1,0,0,1,.29.72,1,1,0,0,1-.29.7,1,1,0,0,1-.72.28A.94.94,0,0,1,31.09,84.56Zm0,15V87.66h1.43V99.54Z" style="fill:#3d4543"/><path d="M37.61,87.66V89.6a3.43,3.43,0,0,1,3.32-2.13c1.91,0,3.08.78,3.52,2.34A3.67,3.67,0,0,1,48,87.47a3.53,3.53,0,0,1,2.79,1,4.05,4.05,0,0,1,.91,2.73v8.3H50.24V91.69c0-1.89-.83-2.84-2.48-2.84A2.78,2.78,0,0,0,45.59,90a4.46,4.46,0,0,0-1,3v6.56H43.21V91.69c0-1.89-.83-2.84-2.49-2.84A2.78,2.78,0,0,0,38.56,90a4.46,4.46,0,0,0-1,3v6.56H36.18V87.66Z" style="fill:#3d4543"/><path d="M63.6,97.5V99a7.24,7.24,0,0,1-3.28.71A5.82,5.82,0,0,1,56,98a5.88,5.88,0,0,1-1.66-4.34,6.53,6.53,0,0,1,1.46-4.5,4.78,4.78,0,0,1,3.77-1.65,4.46,4.46,0,0,1,3.47,1.43,5.83,5.83,0,0,1,1.29,4,6.94,6.94,0,0,1-.09,1.26h-8.4a4.3,4.3,0,0,0,1.36,3,4.65,4.65,0,0,0,3.17,1A5.73,5.73,0,0,0,63.6,97.5Zm-.73-4.57v-.54a3.62,3.62,0,0,0-.9-2.58,3.17,3.17,0,0,0-2.43-1A3.29,3.29,0,0,0,57,89.91a4.76,4.76,0,0,0-1.18,3Z" style="fill:#3d4543"/><path d="M71.85,99V97.52a3.55,3.55,0,0,0,2,.64c1.43,0,2.14-.75,2.14-2.25V83.74h1.45V95.67q0,3.87-3.44,3.87A4.07,4.07,0,0,1,71.85,99Z" style="fill:#3d4543"/><path d="M86.87,83.74h4.5a7.87,7.87,0,0,1,5.7,2.16,7.51,7.51,0,0,1,2.22,5.65,9.12,9.12,0,0,1-.82,3.9,6.89,6.89,0,0,1-2.63,2.93,7.93,7.93,0,0,1-4.35,1.16H86.87ZM88.33,98.2h3.16a7,7,0,0,0,2.86-.56,5.06,5.06,0,0,0,2-1.52A7.3,7.3,0,0,0,97.41,94a8.22,8.22,0,0,0,.36-2.46A6.44,6.44,0,0,0,96,87a6.1,6.1,0,0,0-4.61-1.88h-3Z" style="fill:#3d4543"/><path d="M106.86,99.75a4.94,4.94,0,0,1-4-1.74,7.1,7.1,0,0,1,.05-8.74,4.91,4.91,0,0,1,3.93-1.78A5.07,5.07,0,0,1,111,89.24a6.65,6.65,0,0,1,1.46,4.42A6.42,6.42,0,0,1,111,98,5.14,5.14,0,0,1,106.86,99.75Zm0-10.9a3.42,3.42,0,0,0-2.9,1.41,5.45,5.45,0,0,0-1.06,3.4A5.27,5.27,0,0,0,104,97a3.48,3.48,0,0,0,2.87,1.4,3.63,3.63,0,0,0,3-1.37,5.33,5.33,0,0,0,1.06-3.36,5.61,5.61,0,0,0-1-3.44A3.56,3.56,0,0,0,106.86,88.85Z" style="fill:#3d4543"/><path d="M123.79,97.5V99a7.28,7.28,0,0,1-3.29.71,5.68,5.68,0,0,1-6-6,6.58,6.58,0,0,1,1.45-4.5,4.8,4.8,0,0,1,3.78-1.65,4.46,4.46,0,0,1,3.47,1.43,5.83,5.83,0,0,1,1.29,4,6.8,6.8,0,0,1-.1,1.26h-8.39a4.26,4.26,0,0,0,1.36,3,4.63,4.63,0,0,0,3.17,1A5.73,5.73,0,0,0,123.79,97.5Zm-.73-4.57v-.54a3.62,3.62,0,0,0-.9-2.58,3.17,3.17,0,0,0-2.43-1,3.32,3.32,0,0,0-2.51,1.06,4.82,4.82,0,0,0-1.17,3Z" style="fill:#3d4543"/></g><path d="M1,84.63V22.08A11.55,11.55,0,0,1,12.55,10.53H195.87" style="fill:none;stroke:#f5771f;stroke-linecap:round;stroke-miterlimit:10;stroke-width:2px"/><path d="M102.63,67.31l-3.52-5.89-3.7,5.89H92l5.47-8.17-5.12-7.91h3.51l3.36,5.66,3.45-5.66h3.48l-5.35,7.94,5.08,7.73c.6-.52,1.19-1.05,1.76-1.62a30.88,30.88,0,0,0,5.06-6.68l-4.78-7.37h3.52l2.67,4.52A30.81,30.81,0,0,0,116.28,39a5.71,5.71,0,0,1-.15-.86A30.44,30.44,0,0,0,109.6,24a13.13,13.13,0,0,0-2.33-.18A7.18,7.18,0,0,0,101.94,26a7.84,7.84,0,0,0-2.14,5.75,7.89,7.89,0,0,0,2.12,5.79,7.53,7.53,0,0,0,5.61,2.16,8.28,8.28,0,0,0,5.16-1.59v3.3a9.87,9.87,0,0,1-5.45,1.29,10.32,10.32,0,0,1-10.86-11,10.61,10.61,0,0,1,3.06-7.88,10.39,10.39,0,0,1,7.14-3,30.71,30.71,0,0,0-46.07,5.46,6,6,0,0,1,3.58,1.82,7.74,7.74,0,0,1,1.81,5.52,12.63,12.63,0,0,1-.19,2.06H56.23c-.16.62-.31,1.25-.44,1.88a4.16,4.16,0,0,0,1.15,1.32A5.87,5.87,0,0,0,60.61,40a7.25,7.25,0,0,0,4.27-1.2V41.6a9.44,9.44,0,0,1-4.68,1,8.47,8.47,0,0,1-4.9-1.37,30.74,30.74,0,0,0,2.4,14.45l2.72-4.46h3.49l-4.86,7.21a30.78,30.78,0,0,0,5.15,6.84c.5.5,1,1,1.54,1.42l5.07-7.56-5.13-7.91h3.51l3.36,5.66L76,51.23h3.48l-5.35,7.94,5.35,8.14H76l-3.52-5.89-3.7,5.89H66.44a30.73,30.73,0,0,0,39,0ZM70.42,27.89H67.89l2.79-7.44h3.7Zm5.29,13.77V38.72a8.73,8.73,0,0,0,4.59,1.36,3.17,3.17,0,0,0,1.92-.51,1.59,1.59,0,0,0,.68-1.33A1.75,1.75,0,0,0,82.36,37a4,4,0,0,0-1.09-.82q-.55-.27-1.89-.84c-2.51-1-3.77-2.55-3.77-4.56a3.93,3.93,0,0,1,1.59-3.32,6.29,6.29,0,0,1,4-1.21,9.48,9.48,0,0,1,4,.7v2.82a7.7,7.7,0,0,0-4-.92,2.83,2.83,0,0,0-1.76.5,1.63,1.63,0,0,0-.65,1.33,2,2,0,0,0,0,.43,1.32,1.32,0,0,0,.17.41c.09.14.17.26.24.35a1.33,1.33,0,0,0,.37.3l.39.27a2.13,2.13,0,0,0,.48.27l.49.24.55.25.56.24A10,10,0,0,1,85,35.28,3.64,3.64,0,0,1,86.09,38a4.06,4.06,0,0,1-1.52,3.37,6.39,6.39,0,0,1-4.11,1.22A10.63,10.63,0,0,1,75.71,41.66Zm13.9,18.53H81.89V57.53h7.72Z" style="fill:#fff"/><path d="M62.89,32.7a4.45,4.45,0,0,0-1-2.86,3.3,3.3,0,0,0-2.63-1.07,2.85,2.85,0,0,0-.29,0,30.75,30.75,0,0,0-2,4.47h5.91Z" style="fill:#fff"/><path d="M65.9,33.65a7.74,7.74,0,0,0-1.81-5.52,6,6,0,0,0-3.58-1.82A29.07,29.07,0,0,0,59,28.8a2.85,2.85,0,0,1,.29,0,3.3,3.3,0,0,1,2.63,1.07,4.45,4.45,0,0,1,1,2.86v.57H57c-.29.8-.53,1.62-.75,2.44h9.48A12.63,12.63,0,0,0,65.9,33.65Z" style="fill:#3d4543"/><path d="M64.88,41.6V38.81A7.25,7.25,0,0,1,60.61,40a5.87,5.87,0,0,1-3.67-1.1,4.16,4.16,0,0,1-1.15-1.32,30.17,30.17,0,0,0-.49,3.65,8.47,8.47,0,0,0,4.9,1.37A9.44,9.44,0,0,0,64.88,41.6Z" style="fill:#3d4543"/><polygon points="67.89 27.89 70.42 27.89 74.38 20.45 70.68 20.45 67.89 27.89" style="fill:#3d4543"/><path d="M86.09,38A3.64,3.64,0,0,0,85,35.28a10,10,0,0,0-2.92-1.85l-.56-.24L81,32.94l-.49-.24a2.13,2.13,0,0,1-.48-.27l-.39-.27a1.33,1.33,0,0,1-.37-.3c-.07-.09-.15-.21-.24-.35a1.32,1.32,0,0,1-.17-.41,2,2,0,0,1,0-.43,1.63,1.63,0,0,1,.65-1.33,2.83,2.83,0,0,1,1.76-.5,7.7,7.7,0,0,1,4,.92V26.94a9.48,9.48,0,0,0-4-.7,6.29,6.29,0,0,0-4,1.21,3.93,3.93,0,0,0-1.59,3.32c0,2,1.26,3.52,3.77,4.56q1.34.57,1.89.84a4,4,0,0,1,1.09.82,1.75,1.75,0,0,1,.54,1.25,1.59,1.59,0,0,1-.68,1.33,3.17,3.17,0,0,1-1.92.51,8.73,8.73,0,0,1-4.59-1.36v2.94a10.63,10.63,0,0,0,4.75,1,6.39,6.39,0,0,0,4.11-1.22A4.06,4.06,0,0,0,86.09,38Z" style="fill:#3d4543"/><path d="M96.38,31.75a10.32,10.32,0,0,0,10.86,11,9.87,9.87,0,0,0,5.45-1.29v-3.3a8.28,8.28,0,0,1-5.16,1.59,7.53,7.53,0,0,1-5.61-2.16,7.89,7.89,0,0,1-2.12-5.79A7.84,7.84,0,0,1,101.94,26a7.18,7.18,0,0,1,5.33-2.16,13.13,13.13,0,0,1,2.33.18c-.62-.75-1.27-1.47-2-2.17-.34-.34-.7-.67-1-1a10.39,10.39,0,0,0-7.14,3A10.61,10.61,0,0,0,96.38,31.75Z" style="fill:#3d4543"/><path d="M116.13,38.12a5.71,5.71,0,0,0,.15.86Z" style="fill:#3d4543"/><path d="M60.42,51.23,57.7,55.69a29.15,29.15,0,0,0,1.35,2.75l4.86-7.21Z" style="fill:#3d4543"/><path d="M72.45,61.42,76,67.31h3.51l-5.35-8.14,5.35-7.94H76l-3.45,5.66-3.36-5.66H65.68l5.13,7.91L65.74,66.7l.7.61h2.31Z" style="fill:#3d4543"/><rect x="81.89" y="57.53" width="7.73" height="2.66" style="fill:#3d4543"/><path d="M106.14,51.23h-3.48l-3.45,5.66-3.36-5.66H92.34l5.12,7.91L92,67.31h3.42l3.7-5.89,3.52,5.89h2.76l.48-.41-5.08-7.73Z" style="fill:#3d4543"/><path d="M107.91,51.23l4.78,7.37a31.41,31.41,0,0,0,1.41-2.85l-2.67-4.52Z" style="fill:#3d4543"/><path d="M116,13.47a42.56,42.56,0,1,0-5.33,64.71L152.47,120a7,7,0,1,0,9.86-9.86l-41.8-41.79A42.56,42.56,0,0,0,116,13.47Zm-8.38,51.81a30.71,30.71,0,1,1,0-43.43A30.71,30.71,0,0,1,107.63,65.28Z" style="fill:#fff;stroke:#f5771f;stroke-miterlimit:10;stroke-width:2px"/></g></g></svg>
