<svg xmlns="http://www.w3.org/2000/svg" viewBox="0 0 112.72 111.86"><title>sos-logo</title><g id="Layer_2" data-name="Layer 2"><g id="Layer_1-2" data-name="Layer 1"><path d="M96.26,16.11h0A56.17,56.17,0,0,0,73.79,2.41L110,38.53A56.14,56.14,0,0,0,96.26,16.11Z" style="fill:#3d4543"/><path d="M45.83,66.25a15,15,0,0,0,20.73.35,14.74,14.74,0,0,0,.34-21,15,15,0,0,0-20.74-.35A14.74,14.74,0,0,0,45.83,66.25Z" style="fill:#3d4543"/><path d="M37.55,74.69c-.4-.4-.79-.82-1.17-1.24-.13-.15-.22-.31-.33-.46A26.48,26.48,0,0,1,51.18,29.9l-3-3a17.88,17.88,0,0,1-.45-25A18.18,18.18,0,0,1,50.06,0,56.2,56.2,0,0,0,0,54.61a6,6,0,0,1,2,1.31l45.85,45.77a6,6,0,0,0,8.27.32,5.9,5.9,0,0,0,.21-8.55Z" style="fill:#3d4543"/><path d="M16.46,95.74a56.24,56.24,0,0,0,22.47,13.7L2.74,73.32A56,56,0,0,0,16.46,95.74Z" style="fill:#3d4543"/><path d="M110.7,55.92,64.72,10a5.91,5.91,0,0,0-8.56.22,6,6,0,0,0,.32,8.25L75.17,37.15c.41.41.8.83,1.17,1.25.14.15.22.31.34.46A26.49,26.49,0,0,1,61.54,82l3.18,3.17a17.69,17.69,0,0,1-.24,25.27,18.69,18.69,0,0,1-1.88,1.47,56.2,56.2,0,0,0,50.12-54.62A5.84,5.84,0,0,1,110.7,55.92Z" style="fill:#3d4543"/></g></g></svg>