<svg xmlns="http://www.w3.org/2000/svg" viewBox="0 0 329.64 111.86">
  <title>sos_enterprise</title>
  <g id="Layer_2" data-name="Layer 2">
    <g id="Layer_1-2" data-name="Layer 1">
      <g>
        <path d="M73.79,2.41,110,38.53A56.14,56.14,0,0,0,96.26,16.11h0A56.17,56.17,0,0,0,73.79,2.41Z" style="fill: #3d4543"/>
        <path d="M45.83,66.25a15,15,0,0,0,20.73.35,14.74,14.74,0,0,0,.34-21,15,15,0,0,0-20.74-.35A14.74,14.74,0,0,0,45.83,66.25Z" style="fill: #3d4543"/>
        <path d="M37.55,74.7c-.4-.41-.79-.83-1.17-1.25-.13-.15-.22-.31-.33-.46A26.49,26.49,0,0,1,51.18,29.9l-3-3a17.88,17.88,0,0,1-.45-25A18.27,18.27,0,0,1,50.07,0,56.19,56.19,0,0,0,0,54.61a6,6,0,0,1,2,1.31l45.85,45.77a6,6,0,0,0,8.27.32,5.89,5.89,0,0,0,.21-8.54Z" style="fill: #3d4543"/>
        <path d="M16.46,95.74a56.24,56.24,0,0,0,22.47,13.7L2.74,73.32A56,56,0,0,0,16.46,95.74Z" style="fill: #3d4543"/>
        <path d="M64.72,10a5.91,5.91,0,0,0-8.56.22,6,6,0,0,0,.32,8.25L75.17,37.16c.41.4.8.82,1.17,1.24.14.15.22.31.34.46A26.48,26.48,0,0,1,61.54,82l3.18,3.17a17.69,17.69,0,0,1-.24,25.27,18.69,18.69,0,0,1-1.88,1.47,56.2,56.2,0,0,0,50.12-54.62,5.84,5.84,0,0,1-2-1.32Z" style="fill: #3d4543"/>
        <path d="M183.31,69.74a22,22,0,0,0,2.36-10.61A21.6,21.6,0,0,0,184,50.35a17.32,17.32,0,0,0-4.61-6.21,25.68,25.68,0,0,0-7.27-4.29,90,90,0,0,0-9.64-3.19q-3.87-1-6.8-1.88A25.81,25.81,0,0,1,150.85,33a8.8,8.8,0,0,1-2.93-2.24,4.86,4.86,0,0,1-1-3.14q0-6.16,9.22-6.16a24.62,24.62,0,0,1,6.7.94A47.45,47.45,0,0,1,169,24.54,42.14,42.14,0,0,1,173.73,27a2.53,2.53,0,0,0,3.54-1l5-9.51a2.52,2.52,0,0,0-1-3.39c-1-.56-2.16-1.13-3.32-1.7a51.79,51.79,0,0,0-6.44-2.62,58.79,58.79,0,0,0-7.23-1.88,40.62,40.62,0,0,0-7.64-.73,34.6,34.6,0,0,0-10.52,1.57,26.05,26.05,0,0,0-8.75,4.65,22.2,22.2,0,0,0-6,7.58,23.16,23.16,0,0,0-2.2,10.34,20.46,20.46,0,0,0,1.2,7.32,15.39,15.39,0,0,0,3.67,5.53,23,23,0,0,0,6.23,4.23,60.11,60.11,0,0,0,8.9,3.4c2.58.77,5,1.46,7.17,2.09a41.75,41.75,0,0,1,5.71,2,13,13,0,0,1,3.77,2.45,4.71,4.71,0,0,1,1.36,3.45q0,5.55-9.11,5.54a31.69,31.69,0,0,1-8.48-1.15,56.59,56.59,0,0,1-7.6-2.61,40.85,40.85,0,0,1-5.7-2.93l0,0a3,3,0,0,0-4.25,1.17L127.3,70.2a3,3,0,0,0,1.16,3.9,46.77,46.77,0,0,0,4.69,2.38,67.61,67.61,0,0,0,7.91,2.87,60.89,60.89,0,0,0,8.38,1.83,57.58,57.58,0,0,0,8.37.63,44.52,44.52,0,0,0,10.37-1.21,26.43,26.43,0,0,0,8.9-3.86A19.89,19.89,0,0,0,183.31,69.74Z" style="fill: #3d4543"/>
        <path d="M265.35,44.08a38.2,38.2,0,0,0-2.62-13.79,38.7,38.7,0,0,0-7.44-12.12A36.77,36.77,0,0,0,243.67,9.6a34.63,34.63,0,0,0-15.08-3.24,35.64,35.64,0,0,0-14.86,3.08A37.49,37.49,0,0,0,194.2,29.66a37,37,0,0,0-2.78,14.11,37.93,37.93,0,0,0,2.67,14,38.81,38.81,0,0,0,7.49,12.07,37.09,37.09,0,0,0,11.62,8.52,34.66,34.66,0,0,0,15.08,3.24,35.14,35.14,0,0,0,14.87-3.14,37.47,37.47,0,0,0,19.42-20.27A37,37,0,0,0,265.35,44.08ZM248.19,52a21.85,21.85,0,0,1-3.92,7.21,19.84,19.84,0,0,1-6.58,5.18,20.62,20.62,0,0,1-9.3,2,21,21,0,0,1-9.08-1.88,19.45,19.45,0,0,1-6.64-5,21.45,21.45,0,0,1-4-7.15A25.68,25.68,0,0,1,207.27,44a26.39,26.39,0,0,1,1.31-8.2,20.85,20.85,0,0,1,4-7.16,20.31,20.31,0,0,1,6.59-5.07,20.65,20.65,0,0,1,9.25-1.93,21.09,21.09,0,0,1,9,1.83,20.06,20.06,0,0,1,6.64,4.91,20.47,20.47,0,0,1,4.08,7.1,25.72,25.72,0,0,1,1.37,8.31A26.39,26.39,0,0,1,248.19,52Z" style="fill: #3d4543"/>
        <path d="M323.4,44.14a25.68,25.68,0,0,0-7.27-4.29,89.28,89.28,0,0,0-9.64-3.19q-3.87-1-6.8-1.88A25.81,25.81,0,0,1,294.82,33a8.8,8.8,0,0,1-2.93-2.24,4.86,4.86,0,0,1-1-3.14q0-6.16,9.22-6.16a24.62,24.62,0,0,1,6.7.94A47.45,47.45,0,0,1,313,24.54,42.14,42.14,0,0,1,317.7,27l0,0a2.48,2.48,0,0,0,3.48-.95l5.09-9.59a2.48,2.48,0,0,0-1-3.33c-1.07-.57-2.19-1.15-3.36-1.72a51.79,51.79,0,0,0-6.44-2.62,58.79,58.79,0,0,0-7.23-1.88,40.62,40.62,0,0,0-7.64-.73,34.6,34.6,0,0,0-10.52,1.57,26.05,26.05,0,0,0-8.75,4.65,22.2,22.2,0,0,0-6,7.58,23.16,23.16,0,0,0-2.2,10.34,20.37,20.37,0,0,0,1.2,7.31,15.34,15.34,0,0,0,3.67,5.54,23,23,0,0,0,6.23,4.23,61.24,61.24,0,0,0,8.9,3.4c2.58.77,5,1.46,7.17,2.09a41.75,41.75,0,0,1,5.71,2,13,13,0,0,1,3.77,2.45,4.71,4.71,0,0,1,1.36,3.45q0,5.55-9.11,5.54a31.69,31.69,0,0,1-8.48-1.15,58,58,0,0,1-7.6-2.61,40.85,40.85,0,0,1-5.7-2.93l-.49-.31a2.48,2.48,0,0,0-3.56.95l-5.21,10.33a2.47,2.47,0,0,0,.92,3.22,47.82,47.82,0,0,0,5.15,2.64,66.81,66.81,0,0,0,7.9,2.87,60.89,60.89,0,0,0,8.38,1.83,57.54,57.54,0,0,0,8.37.62,44.51,44.51,0,0,0,10.37-1.2,26.43,26.43,0,0,0,8.9-3.86,19.89,19.89,0,0,0,6.23-7,22,22,0,0,0,2.36-10.61A21.6,21.6,0,0,0,328,50.35,17.32,17.32,0,0,0,323.4,44.14Z" style="fill: #3d4543"/>
        <polygon points="132.02 101.43 139.12 101.43 139.12 98.77 132.02 98.77 132.02 94.72 140.23 94.72 140.23 91.85 128.74 91.85 128.74 108.68 140.45 108.68 140.45 105.81 132.02 105.81 132.02 101.43" style="fill: #3d4543"/>
        <polygon points="160.99 102.89 152.2 91.85 149.66 91.85 149.66 108.68 152.94 108.68 152.94 97.89 161.6 108.68 164.26 108.68 164.26 91.88 160.99 91.88 160.99 102.89" style="fill: #3d4543"/>
        <polygon points="173 94.72 178.39 94.72 178.39 108.68 181.64 108.68 181.64 94.72 187.03 94.72 187.03 91.85 173 91.85 173 94.72" style="fill: #3d4543"/>
        <polygon points="199.04 101.43 206.15 101.43 206.15 98.77 199.04 98.77 199.04 94.72 207.26 94.72 207.26 91.85 195.77 91.85 195.77 108.68 207.48 108.68 207.48 105.81 199.04 105.81 199.04 101.43" style="fill: #3d4543"/>
        <path d="M228.69,100.42a5.54,5.54,0,0,0,.82-3,5.38,5.38,0,0,0-.4-2,6,6,0,0,0-1.12-1.8,5.4,5.4,0,0,0-1.7-1.28,4.82,4.82,0,0,0-2.15-.49h-7.45v16.83H220V103h3.24l3.44,5.64h3.68l-3.85-6.33A4.67,4.67,0,0,0,228.69,100.42ZM226,98.51a3,3,0,0,1-.45.87,2.32,2.32,0,0,1-.67.58,1.81,1.81,0,0,1-.85.21H220V94.72h4a1.92,1.92,0,0,1,.84.2,2.26,2.26,0,0,1,.74.57,2.92,2.92,0,0,1,.51.86,3,3,0,0,1,.19,1.09A3.38,3.38,0,0,1,226,98.51Z" style="fill: #3d4543"/>
        <path d="M250.12,93.62a5.4,5.4,0,0,0-1.7-1.28,4.82,4.82,0,0,0-2.15-.49h-7.14v16.83h3.27V103h4a4.77,4.77,0,0,0,2.14-.48,5.16,5.16,0,0,0,1.66-1.25,5.68,5.68,0,0,0,1.07-1.79,5.89,5.89,0,0,0,.38-2.08,5.59,5.59,0,0,0-.4-2A6,6,0,0,0,250.12,93.62Zm-2.41,5.82a1.92,1.92,0,0,1-1.51.73h-3.8V94.72h3.66a2,2,0,0,1,.84.18,2,2,0,0,1,.73.53,2.82,2.82,0,0,1,.49.87,3.17,3.17,0,0,1,.2,1.14A3.08,3.08,0,0,1,247.71,99.44Z" style="fill: #3d4543"/>
        <path d="M272.57,100.42a5.54,5.54,0,0,0,.82-3,5.38,5.38,0,0,0-.4-2,6.19,6.19,0,0,0-1.12-1.8,5.52,5.52,0,0,0-1.7-1.28,4.85,4.85,0,0,0-2.15-.49h-7.45v16.83h3.27V103h3.23l3.45,5.64h3.68l-3.85-6.33A4.72,4.72,0,0,0,272.57,100.42Zm-2.65-1.91a3,3,0,0,1-.45.87,2.23,2.23,0,0,1-.68.58,1.74,1.74,0,0,1-.84.21h-4.11V94.72h4a1.92,1.92,0,0,1,.84.2,2.37,2.37,0,0,1,.74.57,2.92,2.92,0,0,1,.51.86,3,3,0,0,1,.19,1.09A3.38,3.38,0,0,1,269.92,98.51Z" style="fill: #3d4543"/>
        <rect x="283.01" y="91.85" width="3.28" height="16.82" style="fill: #3d4543"/>
        <path d="M307.07,100.55a6.08,6.08,0,0,0-1.71-1c-.67-.25-1.42-.49-2.24-.71q-1-.24-1.68-.45a6.39,6.39,0,0,1-1.2-.47,2.32,2.32,0,0,1-.72-.61,1.41,1.41,0,0,1-.25-.86,1.65,1.65,0,0,1,.66-1.4,3.4,3.4,0,0,1,2-.5,6.29,6.29,0,0,1,1.5.19,9.85,9.85,0,0,1,1.36.46,7,7,0,0,1,1.07.56,4.35,4.35,0,0,1,.61.45l1.45-2.65a12.25,12.25,0,0,0-2.61-1.32,9.37,9.37,0,0,0-3.28-.56,8,8,0,0,0-2.4.35,6.05,6.05,0,0,0-2,1,4.77,4.77,0,0,0-1.32,1.66A5.34,5.34,0,0,0,295.9,97a4.22,4.22,0,0,0,.3,1.67,3.32,3.32,0,0,0,.88,1.23,5.57,5.57,0,0,0,1.49.93,15,15,0,0,0,2.1.72l1.81.52a8.78,8.78,0,0,1,1.37.52,2.7,2.7,0,0,1,.88.66,1.43,1.43,0,0,1,.31.93c0,1.15-.9,1.73-2.71,1.73a7.55,7.55,0,0,1-1.9-.24,10.32,10.32,0,0,1-1.68-.58,11.37,11.37,0,0,1-1.32-.69,4.22,4.22,0,0,1-.77-.55l-1.45,2.82a11.76,11.76,0,0,0,3.32,1.61,12.75,12.75,0,0,0,3.76.57,9.6,9.6,0,0,0,2.36-.28,6,6,0,0,0,2-.86,4.3,4.3,0,0,0,1.38-1.55,4.86,4.86,0,0,0,.51-2.31,4.56,4.56,0,0,0-.38-2A3.84,3.84,0,0,0,307.07,100.55Z" style="fill: #3d4543"/>
        <polygon points="320.92 101.43 328.02 101.43 328.02 98.77 320.92 98.77 320.92 94.72 329.14 94.72 329.14 91.85 317.65 91.85 317.65 108.68 329.35 108.68 329.35 105.81 320.92 105.81 320.92 101.43" style="fill: #3d4543"/>
      </g>
    </g>
  </g>
</svg>
