<svg xmlns="http://www.w3.org/2000/svg" viewBox="0 0 112.72 112">
  <title>sos_logo_orange</title>
  <g id="Layer_2" data-name="Layer 2">
    <g id="Layer_1-2" data-name="Layer 1">
      <g>
        <path d="M64.72,85.2,61.54,82A26.48,26.48,0,0,0,76.68,38.94a5,5,0,0,0-.34-.46c-.37-.43-.76-.84-1.17-1.25L56.48,18.58a6,6,0,0,1-.32-8.25,5.92,5.92,0,0,1,8.56-.21L110.7,56a5.88,5.88,0,0,0,2,1.31,56.57,56.57,0,0,0-2.76-18.76L74.31,3A58.07,58.07,0,0,0,49.73.33a17.28,17.28,0,0,0-2,1.69,17.87,17.87,0,0,0,.45,25l3,3A26.47,26.47,0,0,0,36.05,73.06a4.84,4.84,0,0,0,.33.46c.38.43.77.84,1.17,1.25L56.36,93.54a5.9,5.9,0,0,1-.21,8.55,6,6,0,0,1-8.27-.33L2,56a5.91,5.91,0,0,0-2-1.31A56.22,56.22,0,0,0,2.79,73.44L38.42,109A57.87,57.87,0,0,0,63,111.67a14.39,14.39,0,0,0,1.52-1.21A17.68,17.68,0,0,0,64.72,85.2ZM45.83,66.32a14.73,14.73,0,0,1,.33-21,15,15,0,0,1,20.74.35,14.73,14.73,0,0,1-.34,21A15,15,0,0,1,45.83,66.32Z" style="fill: #fff"/>
        <path d="M110,38.6A56.14,56.14,0,0,0,96.26,16.18h0A56.17,56.17,0,0,0,73.79,2.48l.52.52,35.63,35.55Z" style="fill: #f5771d"/>
        <path d="M66.9,45.68a15,15,0,0,0-20.74-.35,14.73,14.73,0,0,0-.33,21,15,15,0,0,0,20.73.35A14.73,14.73,0,0,0,66.9,45.68Z" style="fill: #f5771d"/>
        <path d="M47.88,101.76a6,6,0,0,0,8.27.33,5.9,5.9,0,0,0,.21-8.55L37.55,74.77c-.4-.41-.79-.82-1.17-1.25a4.84,4.84,0,0,1-.33-.46A26.49,26.49,0,0,1,51.18,30l-3-3a17.87,17.87,0,0,1-.45-25,17.28,17.28,0,0,1,2-1.69l.34-.26A56.25,56.25,0,0,0,16.46,16.18c-.38.38-.73.77-1.1,1.15h0A56,56,0,0,0,0,54.68H0A5.91,5.91,0,0,1,2,56Z" style="fill: #f5771d"/>
        <path d="M2.74,73.39a55.94,55.94,0,0,0,36.19,36.12l-.51-.51L2.79,73.44Z" style="fill: #f5771d"/>
        <path d="M97.41,94.61c.64-.67,1.25-1.35,1.85-2l.08-.09c.6-.71,1.19-1.43,1.75-2.16l0-.06c.58-.74,1.13-1.5,1.66-2.26v0a56.14,56.14,0,0,0,9.92-30.65h0a5.88,5.88,0,0,1-2-1.31l-46-45.88a5.92,5.92,0,0,0-8.56.21,6,6,0,0,0,.32,8.25L75.17,37.23c.41.41.8.82,1.17,1.25a5,5,0,0,1,.34.46A26.49,26.49,0,0,1,61.54,82l3.18,3.17a17.68,17.68,0,0,1-.24,25.26A14.39,14.39,0,0,1,63,111.67l-.36.26A56.16,56.16,0,0,0,96.26,95.82c.36-.36.69-.73,1-1.09Z" style="fill: #f5771d"/>
      </g>
    </g>
  </g>
</svg>
